SplineFontDB: 3.0
FontName: LindenHill-Italic
FullName: Linden Hill Italic
FamilyName: Linden Hill
Weight: Regular
Copyright: Copyright (c) 2010 Barry Schwartz
UComments: "Scaling: Cut the 12-point to 640 pixels high and scale it to about 122%." 
Version: 001.000
ItalicAngle: -4
UnderlinePosition: -99
UnderlineWidth: 49
Ascent: 734
Descent: 266
LayerCount: 3
Layer: 0 0 "Back"  1
Layer: 1 0 "Fore"  0
Layer: 2 0 "backup"  1
NeedsXUIDChange: 1
XUID: [1021 658 797806517 427014]
FSType: 0
OS2Version: 0
OS2_WeightWidthSlopeOnly: 0
OS2_UseTypoMetrics: 1
CreationTime: 1249677682
ModificationTime: 1293013041
PfmFamily: 17
TTFWeight: 400
TTFWidth: 5
LineGap: 90
VLineGap: 0
OS2TypoAscent: 0
OS2TypoAOffset: 1
OS2TypoDescent: 0
OS2TypoDOffset: 1
OS2TypoLinegap: 90
OS2WinAscent: 0
OS2WinAOffset: 1
OS2WinDescent: 0
OS2WinDOffset: 1
HheadAscent: 0
HheadAOffset: 1
HheadDescent: 0
HheadDOffset: 1
OS2Vendor: 'PfEd'
Lookup: 3 0 0 "'aalt' Access All Alternates lookup 0"  {"'aalt' Access All Alternates lookup 0 subtable"  } ['aalt' ('DFLT' <'dflt' > ) ]
Lookup: 3 0 0 "'aalt' Access All Alternates in Latin lookup 0"  {"'aalt' Access All Alternates in Latin lookup 0 subtable"  } ['aalt' ('latn' <'CAT ' 'ROM ' 'MOL ' 'TRK ' 'AZE ' 'CRT ' 'dflt' > ) ]
Lookup: 1 0 0 "catalan"  {"catalan subtable"  } ['locl' ('latn' <'CAT ' > ) ]
Lookup: 1 0 0 "romanian"  {"romanian subtable"  } ['locl' ('latn' <'ROM ' 'MOL ' > ) ]
Lookup: 1 0 0 "turkish"  {"turkish subtable"  } ['locl' ('latn' <'TRK ' 'AZE ' 'CRT ' > ) ]
Lookup: 1 0 0 "numerators"  {"numerators subtable"  } ['frac' ('latn' <'dflt' 'CAT ' 'ROM ' 'MOL ' 'TRK ' 'AZE ' 'CRT ' > 'DFLT' <'dflt' > ) 'numr' ('latn' <'dflt' 'CAT ' 'ROM ' 'MOL ' 'TRK ' 'AZE ' 'CRT ' > 'DFLT' <'dflt' > ) ]
Lookup: 1 0 0 "denominators"  {"denominators subtable"  } ['dnom' ('latn' <'dflt' 'CAT ' 'ROM ' 'MOL ' 'TRK ' 'AZE ' 'CRT ' > 'DFLT' <'dflt' > ) ]

StartChar: l
Encoding: 108 108 2
Width: 229
VWidth: 0
Flags: HW
HStem: -10 21G<71.5 81> 668 44<54.8817 162.259>
VStem: 62 65<10.0959 215.404> 98 75<456.079 701.276>
AnchorPoint: "r;o" 229 195 basechar 0
AnchorPoint: "r;hi" 184 684 basechar 0
AnchorPoint: "r;x" 214 376 basechar 0
AnchorPoint: "r;bl" 199 15 basechar 0
AnchorPoint: "l;o" 10 195 basechar 0
AnchorPoint: "l;k;hi" 10 684 basechar 0
AnchorPoint: "l;x" 10 376 basechar 0
AnchorPoint: "l;bl" 0 15 basechar 0
AnchorPoint: "cedilla" 86 -88 basechar 0
AnchorPoint: "commaright" 249 654 basechar 0
AnchorPoint: "top" 101 732 basechar 0
LayerCount: 3
Fore
SplineSet
87 668 m 0xd0
 81 668 40 658 21 652 c 1
 15 679 l 1
 15 679 128 712 152 712 c 0
 169 712 173 702 173 696 c 0xd0
 173 689 164 610 157 519 c 0
 143 346 127 109 127 101 c 0
 127 94 128 79 135 79 c 0
 154 79 203 166 203 166 c 1
 225 150 l 1
 225 150 173 48 105 0 c 0
 94 -8 84 -10 78 -10 c 0
 65 -10 62 3 62 20 c 0xe0
 62 33 64 48 65 67 c 0
 84 431 98 608 98 654 c 0
 98 663 96 668 87 668 c 0xd0
EndSplineSet
EndChar

StartChar: .notdef
Encoding: 65536 -1 4
Width: 500
VWidth: 0
Flags: W
HStem: 0 32<183.262 229.781> 119 55<179.258 220.739> 654 55<185.046 286.577>
VStem: 52 117<39.2863 109.463 587.001 637.898> 52 102<199.25 340.037> 221 227<174.004 244.649> 246 202<42.7051 111.413> 372 76<443.516 563.713>
LayerCount: 3
Fore
SplineSet
209 174 m 0xe9
 216 174 221 179 221 185 c 0xec
 221 200 201 196 201 247 c 0
 201 321 372 430 372 488 c 0
 372 580 276 654 231 654 c 0
 191 654 167 612 167 598 c 0
 167 589 170 587 179 587 c 0
 205 587 243 596 258 596 c 0
 286 596 312 578 312 545 c 0
 312 452 154 368 154 277 c 0
 154 207 194 174 209 174 c 0xe9
169 76 m 0xf2
 169 65 190 32 204 32 c 0
 221 32 246 64 246 75 c 0
 246 88 225 119 209 119 c 0
 197 119 169 94 169 76 c 0xf2
52 0 m 17xe9
 52 709 l 9
 448 709 l 25
 448 0 l 25
 52 0 l 17xe9
EndSplineSet
EndChar

StartChar: k
Encoding: 107 107 5
Width: 406
VWidth: 0
Flags: HMW
HStem: -8 67<289 325> 364 21<223 293> 670 35<64 166>
DStem2: 55 12 126 178 0.079295 0.996851<-11.7513 18.9554 170.659 386.142>
AnchorPoint: "l;o" 10 195 basechar 0
AnchorPoint: "l;k;hi" 20 684 basechar 0
AnchorPoint: "l;x" 10 376 basechar 0
AnchorPoint: "l;bl" 0 15 basechar 0
AnchorPoint: "cedilla" 182 -88 basechar 0
AnchorPoint: "r;bl" 386 15 basechar 0
AnchorPoint: "r;x" 406 376 basechar 0
AnchorPoint: "r;o" 406 195 basechar 0
LayerCount: 3
Fore
SplineSet
95 670 m 4
 89 670 37 656 30 655 c 5
 25 678 l 5
 64 689 149 705 162 705 c 4
 170 705 176 702 176 695 c 4
 176 671 126 178 126 178 c 5
 126 178 294 286 294 347 c 4
 294 363 277 364 269 364 c 6
 249 364 l 6
 241 364 232 363 221 363 c 5
 223 385 l 5
 256 388 309 389 331 389 c 4
 369 389 374 385 374 379 c 4
 374 362 344 325 316 296 c 4
 273 252 220 216 220 216 c 5
 220 216 283 59 317 59 c 4
 337 59 373 136 373 136 c 5
 396 123 l 5
 396 123 385 100 369 74 c 4
 346 37 313 -8 293 -8 c 4
 252 -8 172 184 172 184 c 5
 124 151 l 5
 124 151 118 80 117 55 c 6
 116 26 l 6
 116 5 110 -2 87 -2 c 4
 73 -2 55 0 55 12 c 4
 55 26 83 285 106 657 c 4
 106 658 l 4
 106 664 105 670 95 670 c 4
EndSplineSet
Layer: 2
SplineSet
95.078125 669.921875 m 4
 88.73046875 669.921875 36.484375 656.73828125 29.6484375 655.2734375 c 5
 25.25390625 678.22265625 l 5
 64.31640625 688.96484375 149.765625 705.078125 162.4609375 705.078125 c 4
 170.2734375 705.078125 176.1328125 702.63671875 176.1328125 695.3125 c 4
 176.1328125 671.38671875 125.83984375 177.734375 125.83984375 177.734375 c 5
 125.83984375 177.734375 293.80859375 286.1328125 293.80859375 347.16796875 c 4
 293.80859375 363.28125 276.71875 363.76953125 268.90625 363.76953125 c 6
 249.375 363.76953125 l 6
 241.5625 363.76953125 232.28515625 363.76953125 221.0546875 363.28125 c 5
 222.51953125 384.765625 l 5
 255.234375 387.6953125 308.9453125 388.671875 330.91796875 388.671875 c 4
 369.00390625 388.671875 373.88671875 385.25390625 373.88671875 379.39453125 c 4
 373.88671875 362.79296875 344.58984375 324.70703125 316.26953125 295.8984375 c 4
 273.30078125 251.953125 220.078125 215.8203125 220.078125 215.8203125 c 5
 220.078125 215.8203125 282.578125 59.08203125 316.7578125 59.08203125 c 4
 336.2890625 59.08203125 373.3984375 135.7421875 373.3984375 135.7421875 c 5
 395.859375 122.55859375 l 5
 395.859375 122.55859375 384.62890625 100.09765625 368.515625 73.73046875 c 4
 345.56640625 36.62109375 312.8515625 -8.30078125 293.3203125 -8.30078125 c 4
 252.3046875 -8.30078125 171.73828125 183.59375 171.73828125 183.59375 c 5
 123.88671875 150.87890625 l 5
 123.88671875 150.87890625 117.5390625 80.078125 116.5625 55.17578125 c 6
 115.5859375 26.3671875 l 6
 115.09765625 4.8828125 109.7265625 -2.44140625 86.77734375 -2.44140625 c 4
 73.10546875 -2.44140625 54.55078125 0.48828125 54.55078125 12.20703125 c 4
 54.55078125 25.87890625 82.3828125 284.66796875 105.8203125 656.73828125 c 4
 105.8203125 663.0859375 106.30859375 669.921875 95.078125 669.921875 c 4
EndSplineSet
AlternateSubs2: "'aalt' Access All Alternates lookup 0 subtable" k.001
AlternateSubs2: "'aalt' Access All Alternates in Latin lookup 0 subtable" k.001
Substitution2: "swsh1 subtable" k.001
EndChar

StartChar: n
Encoding: 110 110 6
Width: 411
VWidth: 0
Flags: HMW
HStem: -1 15G<74.5 102.5 262 282> 324 74<264 320> 379 20G<128.5 143.5 301.5 330.5>
DStem2: 61 14 122 18 0.0633645 0.99799<-12.3449 167.627 315.634 336.912> 254 16 324 111 0.0983797 0.995149<71.3452 101.426 264.282 307.528>
AnchorPoint: "cedilla" 190 -93 basechar 0
AnchorPoint: "top" 250 488 basechar 0
AnchorPoint: "l;bl" 0 15 basechar 0
AnchorPoint: "l;x" 0 376 basechar 0
AnchorPoint: "l;o" 0 195 basechar 0
AnchorPoint: "r;bl" 391 15 basechar 0
AnchorPoint: "r;x" 411 376 basechar 0
AnchorPoint: "r;o" 411 195 basechar 0
LayerCount: 3
Fore
SplineSet
15 357 m 1xc0
 31 362 118 399 139 399 c 0xa0
 148 399 152 394 152 383 c 0
 152 364 137 286 136 190 c 1
 229 355 283 398 320 398 c 0
 341 398 344 356 344 332 c 0
 344 257 324 144 324 111 c 0
 324 93 326 80 332 80 c 0
 342 80 360 115 379 148 c 1
 396 139 l 1
 363 67 297 -7 267 -7 c 0
 257 -7 254 2 254 16 c 0
 254 69 280 197 280 279 c 0
 280 301 276 324 264 324 c 0
 242 324 169 222 140 147 c 0
 123 104 128 88 122 18 c 0
 121 6 109 -1 96 -1 c 2
 80 -1 l 2
 69 -1 60 2 61 14 c 0
 73 140 81 298 81 329 c 0
 81 345 78 351 70 351 c 0
 61 351 24 336 24 336 c 1
 15 357 l 1xc0
EndSplineSet
EndChar

StartChar: a
Encoding: 97 97 7
Width: 371
VWidth: 0
Flags: HW
HStem: -11 70<70.7575 118.86> 355 45<166.756 222.18>
VStem: 25 51<67.2474 216.225> 218 66<29.0306 200.642> 268 51<355.8 411.996>
AnchorPoint: "top" 235 488 basechar 0
AnchorPoint: "l;bl" 0 15 basechar 0
AnchorPoint: "l;x" 20 376 basechar 0
AnchorPoint: "l;o" 0 195 basechar 0
AnchorPoint: "r;bl" 371 15 basechar 0
AnchorPoint: "r;x" 371 376 basechar 0
AnchorPoint: "r;o" 371 195 basechar 0
LayerCount: 3
Fore
SplineSet
74 -11 m 0xf0
 54 -11 25 7 25 99 c 0
 25 185 44 222 88 293 c 0
 104 319 175 400 207 400 c 0
 243 400 258 339 258 339 c 1
 268 395 l 2
 271 412 285 412 291 412 c 2
 301 412 l 2
 316 412 319 411 319 400 c 0xe8
 319 391 284 189 284 121 c 0
 284 90 288 72 296 72 c 0
 305 72 313 84 333 107 c 1
 351 93 l 1
 351 93 280 -11 240 -11 c 0
 229 -11 218 0 218 61 c 0
 218 83 220 111 223 149 c 1
 211 126 186 81 156 44 c 0
 131 14 90 -11 74 -11 c 0xf0
245 290 m 0
 245 321 204 355 184 355 c 0
 149 355 76 235 76 131 c 0
 76 86 98 59 113 59 c 0
 152 59 245 230 245 290 c 0
EndSplineSet
EndChar

StartChar: h
Encoding: 104 104 8
Width: 428
VWidth: 0
Flags: HW
HStem: 0 14G<79 97.5 266 275.5> 327 67<261.714 318.5> 669 37<66.6797 162.243>
VStem: 61 54<0.384766 165.836> 101 68<458.156 698.258> 256 65<13.9134 245.569> 280 62<81.7524 326.251>
AnchorPoint: "top" 274 732 basechar 0
AnchorPoint: "l;bl" 0 15 basechar 0
AnchorPoint: "l;x" 10 376 basechar 0
AnchorPoint: "l;k;hi" 20 684 basechar 0
AnchorPoint: "l;o" 10 195 basechar 0
AnchorPoint: "r;bl" 398 15 basechar 0
AnchorPoint: "r;x" 418 376 basechar 0
AnchorPoint: "r;o" 428 195 basechar 0
LayerCount: 3
Fore
SplineSet
25 677 m 21xe8
 64 688 143 706 156 706 c 4
 164 706 169 703 169 696 c 4
 169 677 135 341 124 190 c 5
 184 293 261 394 305 394 c 4
 332 394 342 353 342 290 c 4xea
 342 217 321 142 321 95 c 4
 321 86 321 75 327 75 c 4
 338 75 364 106 382 131 c 6
 398 154 l 13
 413 143 l 21
 384 91 348 56 328 36 c 4
 289 -2 282 -7 269 -7 c 4
 263 -7 256 -4 256 19 c 4xe4
 256 51 280 229 280 291 c 4
 280 319 273 327 265 327 c 4
 238 327 142 209 126 137 c 4
 120 109 117 83 116 58 c 6
 115 29 l 6
 115 8 109 0 86 0 c 4
 72 0 61 3 61 15 c 4xf2
 61 39 70 143 74 206 c 4
 101 648 101 593 101 648 c 4
 101 659 102 669 93 669 c 4
 87 669 51 660 29 654 c 13
 25 677 l 21xe8
EndSplineSet
EndChar

StartChar: f
Encoding: 102 102 9
Width: 261
VWidth: 0
Flags: HW
HStem: -258 35<-24.5 49.8048> 360 32<35 105 166 239> 661 41<217.265 309>
DStem2: 59.6444 -258 122.644 -258 0.0697565 0.997564<112.878 619.658 655.836 859.808>
AnchorPoint: "l;bl" 0 15 basechar 0
AnchorPoint: "l;x" 0 376 basechar 0
AnchorPoint: "l;o" 0 195 basechar 0
AnchorPoint: "r;x" 261 376 basechar 0
AnchorPoint: "r;k;hi" 351 684 basechar 0
AnchorPoint: "r;o" 251 195 basechar 0
AnchorPoint: "l;k;lo" -74 -244 basechar 0
AnchorPoint: "r;bl" 231 15 basechar 0
LayerCount: 3
Fore
SplineSet
-7 -258 m 0
 -42 -258 -76 -241 -76 -205 c 0
 -76 -184 -65 -161 -45 -161 c 0
 -26 -161 -20 -180 -11 -196 c 0
 -2 -211 11 -223 27 -223 c 0
 65 -223 68 -136 83 76 c 0
 88 153 95 248 105 360 c 1
 35 360 l 1
 35 392 l 1
 106 392 l 1
 116 490 114 586 174 646 c 4
 206 678 238 702 287 702 c 4
 331 702 348 674 348 650 c 4
 348 630 338 613 322 613 c 4
 295 613 279 661 255 661 c 4
 184 661 179 525 166 392 c 5
 241 392 l 5
 239 360 l 5
 164 360 l 5
 156 248 151 154 146 76 c 4
 130 -167 112 -258 -7 -258 c 0
EndSplineSet
EndChar

StartChar: e
Encoding: 101 101 10
Width: 280
VWidth: 0
Flags: HW
HStem: -4 65<82.5 155.354> 355 43<134.518 201.5>
VStem: 20 55<86.3076 184.557 191 242.273> 191 68<306 361>
AnchorPoint: "top" 203 488 basechar 0
AnchorPoint: "l;bl" 0 15 basechar 0
AnchorPoint: "l;x" 20 376 basechar 0
AnchorPoint: "l;o" 0 195 basechar 0
AnchorPoint: "r;bl" 260 15 basechar 0
AnchorPoint: "r;x" 280 376 basechar 0
AnchorPoint: "r;o" 280 195 basechar 0
LayerCount: 3
Fore
SplineSet
151 355 m 4
 121 355 75 298 75 199 c 6
 75 191 l 5
 81 197 191 299 191 313 c 4
 191 345 165 355 151 355 c 4
250 123 m 5
 265 100 l 5
 265 100 157 -4 93 -4 c 4
 72 -4 20 19 20 101 c 0
 20 171 37 245 62 299 c 4
 86 352 111 362 140 380 c 4
 161 393 183 398 193 398 c 0
 210 398 259 369 259 353 c 4
 259 342 160 232 76 169 c 5
 76 156 78 61 139 61 c 4
 186 61 235 109 250 123 c 5
EndSplineSet
EndChar

StartChar: d
Encoding: 100 100 11
Width: 374
VWidth: 0
Flags: HW
HStem: -9 74<65 121.267> 363 34<151.197 205.956> 670 36<209.168 321>
VStem: 20 50<81.0544 232.923> 225 59<4.67361 251.649>
AnchorPoint: "commaright" 400 662 basechar 0
AnchorPoint: "l;bl" 0 15 basechar 0
AnchorPoint: "l;x" 20 376 basechar 0
AnchorPoint: "l;o" 0 195 basechar 0
AnchorPoint: "r;bl" 354 15 basechar 0
AnchorPoint: "r;x" 374 376 basechar 0
AnchorPoint: "r;hi" 344 684 basechar 0
AnchorPoint: "r;o" 374 195 basechar 0
LayerCount: 3
Fore
SplineSet
177 682 m 1
 206 688 305 706 313 706 c 0
 329 706 332 700 332 690 c 0
 332 685 331 679 331 672 c 2
 300 296 l 2
 292 201 284 144 284 100 c 0
 284 79 287 74 294 74 c 0
 312 74 347 138 347 138 c 1
 364 129 l 1
 364 128 345 75 283 19 c 0
 264 2 246 -10 236 -10 c 0
 229 -10 225 -5 225 7 c 0
 225 72 240 178 240 178 c 1
 225 133 134 -9 76 -9 c 0
 54 -9 20 18 20 116 c 0
 20 194 51 268 84 311 c 0
 118 355 160 397 191 397 c 0
 229 397 239 340 246 328 c 1
 260 624 l 2
 260 631 260 638 260 643 c 0
 260 665 257 670 250 670 c 0
 243 670 236 669 181 659 c 1
 177 682 l 1
234 278 m 2
 234 333 193 363 175 363 c 0
 144 363 110 305 101 286 c 0
 80 242 70 195 70 176 c 0
 70 128 79 65 120 65 c 0
 156 65 234 173 234 262 c 2
 234 278 l 2
EndSplineSet
EndChar

StartChar: c
Encoding: 99 99 12
Width: 277
VWidth: 0
Flags: HW
HStem: -8 66<86 153.337> 358 42<132.577 216.281>
VStem: 20 52<84.1782 243.298>
AnchorPoint: "cedilla" 84 -93 basechar 0
AnchorPoint: "top" 205 488 basechar 0
AnchorPoint: "l;bl" 0 15 basechar 0
AnchorPoint: "l;x" 20 376 basechar 0
AnchorPoint: "l;o" 0 195 basechar 0
AnchorPoint: "r;bl" 257 15 basechar 0
AnchorPoint: "r;x" 277 376 basechar 0
AnchorPoint: "r;o" 277 195 basechar 0
LayerCount: 3
Fore
SplineSet
256 115 m 2
 256 115 167 -8 95 -8 c 0
 77 -8 68 1 64 4 c 0
 39 24 20 52 20 110 c 4
 20 169 31 217 51 272 c 4
 76 340 126 400 211 400 c 0
 250 400 262 381 262 368 c 0
 262 343 253 330 239 330 c 0
 218 330 192 358 148 358 c 0
 112 358 72 253 72 170 c 0
 72 93 107 58 130 58 c 0
 178 58 231 116 242 127 c 1
 256 115 l 2
EndSplineSet
EndChar

StartChar: b
Encoding: 98 98 13
Width: 339
VWidth: 0
Flags: HMW
HStem: -4 44<141 193> 347 52<211 273> 698 10G<131 145>
VStem: 272 48<175 324>
DStem2: 51 68 105 135 0.0651144 0.997878<17.8196 417.626>
AnchorPoint: "l;bl" 0 15 basechar 0
AnchorPoint: "l;x" 0 376 basechar 0
AnchorPoint: "l;o" 0 195 basechar 0
AnchorPoint: "r;bl" 319 15 basechar 0
AnchorPoint: "r;x" 339 376 basechar 0
AnchorPoint: "r;o" 339 195 basechar 0
AnchorPoint: "l;k;hi" 0 684 basechar 0
LayerCount: 3
Fore
SplineSet
80 634 m 0
 80 659 76 667 66 667 c 0
 61 667 54 665 44 662 c 2
 11 653 l 1
 5 674 l 1
 81 694 122 708 140 708 c 0
 150 708 153 704 153 692 c 0
 153 686 151 672 110 270 c 1
 176 366 236 398 267 398 c 0
 281 398 319 384 319 294 c 4
 319 284 308 152 252 78 c 0
 233 53 176 -4 157 -4 c 0
 131 -4 101 19 68 42 c 0
 54 52 51 57 51 68 c 0
 51 79 63 218 71 368 c 0
 76 461 80 559 80 634 c 0
178 40 m 0
 209 40 272 150 272 239 c 0
 272 300 244 347 217 347 c 0
 197 347 160 315 134 267 c 0
 107 218 105 184 105 135 c 0
 105 73 168 40 178 40 c 0
EndSplineSet
EndChar

StartChar: g
Encoding: 103 103 14
Width: 388
VWidth: 0
Flags: HMW
HStem: -263 35<75.4844 222.814> -92 21<38.0199 53> 91 32<138.748 193.688> 372 35<153.704 211.707>
VStem: -33 55<-185.933 -98.2614> 26 48<-7.87598 68.0089> 40 65<152.806 290.98> 237 59<193.832 316.687> 287 64<-178.802 -103.926>
AnchorPoint: "l;s;gg" -42 -344 basechar 0
AnchorPoint: "r;s;gg" 351 -344 basechar 0
AnchorPoint: "top" 221 488 basechar 0
AnchorPoint: "l;bl" 0 15 basechar 0
AnchorPoint: "l;x" 20 376 basechar 0
AnchorPoint: "l;o" 0 195 basechar 0
AnchorPoint: "r;bl" 358 15 basechar 0
AnchorPoint: "r;x" 388 376 basechar 0
AnchorPoint: "r;o" 368 195 basechar 0
AnchorPoint: "r;k;lo" 351 -244 basechar 0
LayerCount: 3
Fore
SplineSet
59 -92 m 1xfc80
 59 -92 22 -100 22 -136 c 0
 22 -176 67 -228 146 -228 c 0
 220 -228 287 -183 287 -135 c 0
 287 -109 259 -95 219 -85 c 0
 143 -65 26 -39 26 24 c 0xfc80
 26 66 88 99 92 102 c 1
 57 118 40 159 40 197 c 0
 40 288 111 407 204 407 c 0
 260 407 282 373 333 373 c 0
 341 373 348 379 353 385 c 2
 360 393 l 1
 380 383 l 1
 351 315 353 311 333 311 c 0
 325 311 294 317 294 317 c 1
 295 308 296 298 296 289 c 0xfb
 296 215 246 91 145 91 c 0
 136 91 127 92 117 94 c 1
 117 94 74 70 74 44 c 0
 74 19 153 4 221 -9 c 0
 255 -15 351 -29 351 -113 c 0
 351 -203 247 -263 127 -263 c 0
 7 -263 -33 -198 -33 -155 c 0
 -33 -75 53 -71 53 -71 c 1
 59 -92 l 1xfc80
184 372 m 0
 148 372 105 296 105 228 c 0
 105 163 145 123 168 123 c 0
 206 123 237 208 237 279 c 0xfb
 237 329 209 372 184 372 c 0
EndSplineSet
AlternateSubs2: "'aalt' Access All Alternates lookup 0 subtable" g.001
AlternateSubs2: "'aalt' Access All Alternates in Latin lookup 0 subtable" g.001
Substitution2: "swsh1 subtable" g.001
EndChar

StartChar: r
Encoding: 114 114 15
Width: 334
VWidth: 0
Flags: HMW
HStem: -1 21G<80.5 115> 316 82<242.058 301.335> 382 20G<136.5 155.5>
DStem2: 67 12 131 15 0.0781303 0.996943<-13 0 319 380.5>
AnchorPoint: "cedilla" 92 -93 basechar 0
AnchorPoint: "top" 203 486 basechar 0
AnchorPoint: "l;bl" 0 15 basechar 0
AnchorPoint: "l;x" 0 376 basechar 0
AnchorPoint: "l;o" 0 195 basechar 0
AnchorPoint: "r;bl" 294 15 basechar 0
AnchorPoint: "r;x" 334 376 basechar 0
AnchorPoint: "r;o" 314 195 basechar 0
LayerCount: 3
Fore
SplineSet
311 291 m 0xc0
 296 291 286 316 266 316 c 0xc0
 213 316 175 232 155 172 c 0
 135 111 136 77 131 15 c 0
 130 4 120 -1 110 -1 c 2
 87 -1 l 2
 74 -1 67 4 67 12 c 0
 77 121 90 267 92 331 c 0
 92 346 87 353 78 353 c 0
 67 353 29 336 17 331 c 1
 10 354 l 1
 10 354 122 402 151 402 c 0xa0
 160 402 163 396 163 389 c 0
 163 360 142 224 142 224 c 1
 142 224 227 398 280 398 c 0
 296 398 324 347 324 316 c 0
 324 302 320 291 311 291 c 0xc0
EndSplineSet
EndChar

StartChar: s
Encoding: 115 115 16
Width: 316
VWidth: 0
Flags: HW
HStem: -7 35<95.1265 186.502> 370 29<142.867 211.136>
VStem: 84 52<289.205 364.087> 215 60<56.6685 152.407>
AnchorPoint: "cedilla" 109 -93 basechar 0
AnchorPoint: "top" 209 488 basechar 0
AnchorPoint: "l;bl" 0 15 basechar 0
AnchorPoint: "l;x" 20 376 basechar 0
AnchorPoint: "l;o" 20 195 basechar 0
AnchorPoint: "r;bl" 301 15 basechar 0
AnchorPoint: "r;x" 316 376 basechar 0
AnchorPoint: "r;o" 316 195 basechar 0
LayerCount: 3
Fore
SplineSet
136 336 m 0
 136 272 275 213 275 118 c 0
 275 56 208 -7 123 -7 c 0
 74 -7 42 5 33 17 c 0
 27 24 25 37 25 60 c 0
 25 78 32 101 49 101 c 0
 78 101 75 28 137 28 c 0
 181 28 215 60 215 101 c 0
 215 177 84 218 84 311 c 0
 84 371 144 399 207 399 c 0
 245 399 286 381 286 348 c 0
 286 339 279 325 268 325 c 0
 228 325 215 370 176 370 c 0
 152 370 136 355 136 336 c 0
EndSplineSet
AlternateSubs2: "'aalt' Access All Alternates lookup 0 subtable" longs
AlternateSubs2: "'aalt' Access All Alternates in Latin lookup 0 subtable" longs
Substitution2: "'hist' Historical Forms in Latin lookup 10 subtable" longs
EndChar

StartChar: o
Encoding: 111 111 17
Width: 330
VWidth: 0
Flags: HW
HStem: -12 38<119.492 178.736> 369 32<156.591 213.166>
VStem: 20 67<60.9375 241.877> 245 65<153.977 338.936>
AnchorPoint: "top" 224 488 basechar 0
AnchorPoint: "l;bl" 0 15 basechar 0
AnchorPoint: "l;x" 20 376 basechar 0
AnchorPoint: "l;o" 0 195 basechar 0
AnchorPoint: "r;bl" 310 15 basechar 0
AnchorPoint: "r;x" 330 376 basechar 0
AnchorPoint: "r;o" 330 195 basechar 0
LayerCount: 3
Fore
SplineSet
209 401 m 0
 291 401 310 317 310 264 c 0
 310 138 214 -12 123 -12 c 0
 61 -12 20 52 20 128 c 0
 20 254 89 325 100 338 c 0
 125 367 166 401 209 401 c 0
184 369 m 0
 145 369 87 276 87 170 c 0
 87 94 112 26 151 26 c 0
 198 26 245 145 245 238 c 0
 245 289 228 369 184 369 c 0
EndSplineSet
EndChar

StartChar: w
Encoding: 119 119 18
Width: 612
VWidth: 0
Flags: HMW
HStem: -13 66<120 195 339 416> 376 20G<352.5 389.5 538 564> 382 20G<152.5 168.5>
VStem: 88 66<56 324> 314 63<53 187> 541 46<238 349>
AnchorPoint: "r;o" 602 195 basechar 0
AnchorPoint: "r;x" 612 376 basechar 0
AnchorPoint: "r;bl" 582 15 basechar 0
AnchorPoint: "l;o" 20 195 basechar 0
AnchorPoint: "l;x" 0 376 basechar 0
AnchorPoint: "l;bl" 20 15 basechar 0
AnchorPoint: "top" 385 488 basechar 0
LayerCount: 3
Fore
SplineSet
541 288 m 0xdc
 541 328 515 339 515 369 c 0
 515 381 526 396 550 396 c 0xdc
 578 396 587 369 587 342 c 0
 587 285 549 173 504 104 c 0
 444 12 389 -13 360 -13 c 0
 318 -13 314 30 314 72 c 0
 314 98 321 187 321 187 c 1
 321 187 287 107 245 54 c 0
 214 14 163 -13 139 -13 c 0
 100 -13 88 30 88 72 c 0
 88 156 107 274 108 325 c 0
 108 338 103 347 94 347 c 0
 88 347 88 346 33 322 c 1
 25 341 l 1
 87 374 142 402 163 402 c 0xbc
 174 402 179 397 179 387 c 0
 179 370 154 171 154 136 c 0
 154 96 161 53 184 53 c 0
 203 53 239 82 281 159 c 0
 319 228 332 330 336 367 c 0
 338 385 342 396 363 396 c 2
 383 396 l 2
 396 396 400 383 400 374 c 0
 396 326 377 278 377 145 c 0
 377 93 379 52 402 52 c 0
 435 52 541 177 541 288 c 0xdc
EndSplineSet
EndChar

StartChar: u
Encoding: 117 117 19
Width: 473
VWidth: 0
Flags: HMW
HStem: -10 10G<99 120 312 324> 382 20G<151 172.5 336.5 375.5>
VStem: 295 66<18 274>
DStem2: 83 48 155 124 0.0805807 0.996748<0 80.7349 222.215 299.141>
AnchorPoint: "top" 260 488 basechar 0
AnchorPoint: "l;bl" 20 15 basechar 0
AnchorPoint: "l;x" 0 376 basechar 0
AnchorPoint: "l;o" 20 195 basechar 0
AnchorPoint: "r;bl" 443 15 basechar 0
AnchorPoint: "r;x" 443 376 basechar 0
AnchorPoint: "r;o" 473 195 basechar 0
LayerCount: 3
Fore
SplineSet
167 74 m 4
 197 74 319 254 319 347 c 6
 319 369 l 6
 319 388 325 399 348 399 c 6
 372 399 l 6
 379 399 387 394 386 384 c 4
 379 307 362 184 362 97 c 4
 362 88 366 78 373 78 c 4
 389 78 435 151 435 151 c 5
 453 138 l 5
 445 125 425 79 354 11 c 4
 341 -2 329 -10 320 -10 c 4
 305 -10 295 7 295 38 c 4
 295 80 305 147 310 229 c 5
 310 229 290 184 259 133 c 4
 210 50 133 -9 107 -9 c 4
 91 -9 83 13 83 48 c 4
 83 118 106 239 106 326 c 4
 106 341 102 349 93 349 c 4
 90 349 85 348 81 346 c 6
 36 326 l 5
 25 353 l 5
 25 353 136 402 166 402 c 4
 179 402 183 395 183 381 c 4
 183 359 171 320 165 265 c 4
 158 196 155 152 155 124 c 4
 155 102 155 74 167 74 c 4
EndSplineSet
EndChar

StartChar: t
Encoding: 116 116 20
Width: 283
VWidth: 0
Flags: HW
HStem: -5 63<101 179.062> 361 31<28 102 168 252>
VStem: 78 68<16.9626 305.698> 107 61<392 434> 121 65<434 491.411>
AnchorPoint: "commaright" 259 654 basechar 0
AnchorPoint: "cedilla" 117 -93 basechar 0
AnchorPoint: "l;bl" 10 15 basechar 0
AnchorPoint: "l;x" 0 376 basechar 0
AnchorPoint: "l;o" 10 195 basechar 0
AnchorPoint: "r;bl" 263 15 basechar 0
AnchorPoint: "r;x" 283 376 basechar 0
AnchorPoint: "r;o" 283 195 basechar 0
LayerCount: 3
Fore
SplineSet
163 361 m 5xd0
 162 351 146 225 146 129 c 4xe0
 146 93 148 58 168 58 c 4xd0
 190 58 246 121 246 121 c 5
 263 105 l 5
 203 16 121 -5 110 -5 c 0
 92 -5 78 14 78 36 c 0xe0
 78 189 102 361 102 361 c 1
 25 361 l 1
 28 392 l 1
 107 392 l 1xd0
 121 476 l 2
 122 484 164 503 177 503 c 4
 183 503 186 497 186 490 c 4xc8
 186 471 173 438 168 392 c 5
 256 392 l 5
 252 361 l 5
 163 361 l 5xd0
EndSplineSet
EndChar

StartChar: y
Encoding: 121 121 21
Width: 385
VWidth: 0
Flags: HMW
HStem: -260 23<-2 40> 331 70<85.5 143.5> 378 17<276 277>
VStem: 298 62<271 378>
DStem2: 188 306 130 262 0.259711 -0.965686<-48.6024 231.377>
AnchorPoint: "top" 251 488 basechar 0
AnchorPoint: "l;bl" 20 15 basechar 0
AnchorPoint: "l;x" 0 376 basechar 0
AnchorPoint: "l;o" 10 195 basechar 0
AnchorPoint: "r;bl" 345 15 basechar 0
AnchorPoint: "r;x" 385 376 basechar 0
AnchorPoint: "r;o" 365 195 basechar 0
LayerCount: 3
Fore
SplineSet
298 339 m 0xd0
 298 373 276 378 276 378 c 1
 277 395 l 1xb0
 293 397 305 397 312 397 c 2
 318 397 l 2
 348 397 360 395 360 371 c 0
 360 322 288 85 222 -49 c 0
 187 -120 151 -182 107 -244 c 0
 100 -253 96 -260 80 -260 c 2
 -2 -260 l 1
 -2 -237 l 1
 37 -227 36 -239 98 -173 c 0
 145 -123 201 -29 201 -2 c 0
 201 27 163 173 130 262 c 0
 115 302 101 331 93 331 c 0
 78 331 63 301 38 263 c 1
 15 277 l 1
 18 281 45 329 74 360 c 0
 95 382 116 401 133 401 c 0
 154 401 169 370 188 306 c 0
 203 254 221 179 246 82 c 1
 274 150 298 236 298 339 c 0xd0
EndSplineSet
EndChar

StartChar: quoteright
Encoding: 8217 8217 22
Width: 243
VWidth: 0
Flags: HW
HStem: 468 212<81 124>
VStem: 131 59<530.73 606.23>
AnchorPoint: "r;s;quote" 294 589 basechar 0
AnchorPoint: "l;s;quote" 124 589 basechar 0
AnchorPoint: "l;x" 0 376 basechar 0
AnchorPoint: "l;hi" 0 684 basechar 0
AnchorPoint: "l;o" 0 195 basechar 0
AnchorPoint: "r;x" 243 376 basechar 0
AnchorPoint: "r;hi" 243 684 basechar 0
AnchorPoint: "r;o" 243 195 basechar 0
LayerCount: 3
Fore
SplineSet
69 477 m 0
 69 501 131 505 131 567 c 0
 131 617 80 608 80 624 c 0
 80 626 82 629 84 633 c 2
 108 668 l 2
 110 671 118 680 124 680 c 0
 129 680 137 675 152 666 c 0
 173 653 190 646 190 602 c 0
 190 519 110 468 81 468 c 0
 74 468 69 471 69 477 c 0
EndSplineSet
EndChar

StartChar: G
Encoding: 71 71 23
Width: 673
VWidth: 0
Flags: W
HStem: -14 36<268.261 436.918> -1 21G<544 563.571> 279 32<394 516 584 640> 650 33<297.113 461.534>
VStem: 30 80<190.914 431.681> 544 18<0 30.0058>
DStem2: 494.511 -14 561.091 -14 0.0697565 0.997564<83.2438 293.785>
AnchorPoint: "top" 392 732 basechar 0
LayerCount: 3
Fore
SplineSet
30 304 m 0xbc
 30 488 160 683 401 683 c 0
 430 683 509 671 558 644 c 0
 595 623 597 617 597 590 c 2
 597 580 l 2
 597 540 592 481 592 481 c 1
 572 480 l 2
 571 480 574 594 462 634 c 0
 438 642 412 650 380 650 c 0
 208 650 110 479 110 334 c 0
 110 90 256 22 353 22 c 0xbc
 438 22 499 64 505 136 c 2
 516 279 l 1
 392 279 l 1
 394 311 l 1
 642 311 l 1
 640 279 l 1
 584 279 l 1
 562 -1 l 1x7c
 544 0 l 1
 544 0 540 23 533 34 c 0
 528 42 519 41 516 39 c 0
 473 12 432 -14 346 -14 c 0
 120 -14 30 139 30 304 c 0xbc
EndSplineSet
AlternateSubs2: "'aalt' Access All Alternates lookup 0 subtable" G.001
AlternateSubs2: "'aalt' Access All Alternates in Latin lookup 0 subtable" G.001
Position2: "'cpsp' Capital Spacing in Latin lookup 2 subtable" dx=4 dy=0 dh=8 dv=0
Substitution2: "swsh1 subtable" G.001
EndChar

StartChar: A
Encoding: 65 65 24
Width: 642
VWidth: 0
Flags: W
HStem: 0 32<27 82.553 141.042 221 399 478.834 564.675 632> 257 39<249 423> 663 20G<375.602 407.965>
DStem2: 104 85 155 88 0.425287 0.905059<-16.5019 210.532 252.634 252.634> 403 683 360 548 0.240927 -0.970543<120.663 380.419 420.438 631.465>
AnchorPoint: "top" 393 733 basechar 0
LayerCount: 3
Fore
SplineSet
403 683 m 1
 544 115 l 2
 564 34 567 32 603 32 c 2
 632 32 l 1
 632 0 l 1
 399 0 l 1
 399 32 l 1
 428 32 l 2
 465 32 479 33 479 51 c 0
 479 56 478 62 476 70 c 2
 432 257 l 1
 233 257 l 1
 155 88 l 2
 147 70 141 57 141 49 c 0
 141 34 155 32 204 32 c 2
 223 32 l 1
 221 0 l 1
 27 0 l 1
 27 32 l 1
 43 32 l 2
 70 32 81 35 104 85 c 2
 385 683 l 1
 403 683 l 1
249 296 m 1
 423 296 l 1
 360 548 l 1
 249 296 l 1
EndSplineSet
AlternateSubs2: "'aalt' Access All Alternates lookup 0 subtable" A.001
AlternateSubs2: "'aalt' Access All Alternates in Latin lookup 0 subtable" A.001
Position2: "'cpsp' Capital Spacing in Latin lookup 2 subtable" dx=4 dy=0 dh=8 dv=0
Substitution2: "swsh1 subtable" A.001
EndChar

StartChar: B
Encoding: 66 66 25
Width: 528
VWidth: 0
Flags: HMW
HStem: 0 32<5 76.192 151.6 293.62> 635 32<24 116.967> 642 25<189.625 308.577>
VStem: 399 81<442.972 582.02> 412 88<126.592 288.378>
DStem2: 78 62 149 63 0.069972 0.997549<-21.434 5.96556 310.62 311.672 557.366 572.119>
LayerCount: 3
Fore
SplineSet
336 376 m 1xb0
 336 376 500 354 500 212 c 0
 500 164 480 115 450 80 c 0
 386 5 298 0 190 0 c 2
 4 0 l 1
 5 32 l 1
 37 32 l 2
 71 32 76 34 78 62 c 0
 116 608 117 614 117 618 c 0
 117 635 106 635 68 635 c 2
 24 635 l 1
 24 667 l 1xc8
 281 667 l 2
 440 667 480 578 480 519 c 0
 480 384 336 376 336 376 c 1xb0
169 367 m 1
 149 69 l 2
 149 67 149 65 149 63 c 0
 149 44 156 32 188 32 c 0
 399 32 412 174 412 211 c 0
 412 266 388 304 349 326 c 0
 299 355 230 367 169 367 c 1
171 392 m 1
 181 392 230 390 245 389 c 0
 249 389 253 389 257 389 c 0
 302 389 399 412 399 506 c 0
 399 619 301 642 220 642 c 0xb0
 199 642 188 634 187 621 c 2
 171 392 l 1
EndSplineSet
Layer: 2
SplineSet
281 667 m 6xa8
 440 667 480 578 480 519 c 4xb0
 480 384 336 376 336 376 c 5
 336 376 500 354 500 212 c 4
 500 163 477 111 450 80 c 4
 386 5 298 0 190 0 c 6
 4 0 l 5
 5 32 l 5
 37 32 l 6
 71 32 76 34 78 62 c 4
 116 608 117 614 117 618 c 4
 117 635 106 635 68 635 c 6
 24 635 l 5
 24 667 l 5xc8
 281 667 l 6xa8
169 367 m 5
 149 69 l 6
 149 67 149 65 149 63 c 4
 149 44 156 32 188 32 c 4
 399 32 412 174 412 211 c 4x88
 412 266 388 304 349 326 c 4
 299 355 230 367 169 367 c 5
171 392 m 5
 181 392 230 390 245 389 c 4
 249 389 253 389 257 389 c 4
 302 389 399 412 399 506 c 4
 399 619 301 642 220 642 c 4xb0
 199 642 188 634 187 621 c 6
 171 392 l 5
EndSplineSet
AlternateSubs2: "'aalt' Access All Alternates lookup 0 subtable" B.001
AlternateSubs2: "'aalt' Access All Alternates in Latin lookup 0 subtable" B.001
Position2: "'cpsp' Capital Spacing in Latin lookup 2 subtable" dx=4 dy=0 dh=8 dv=0
Substitution2: "swsh1 subtable" B.001
EndChar

StartChar: C
Encoding: 67 67 26
Width: 629
VWidth: 0
Flags: W
HStem: -11 35<265.046 433.144> 650 32<306.539 471.839>
VStem: 33 80<189.331 426.775> 534 69<519.041 607.485>
AnchorPoint: "cedilla" 324 -93 basechar 0
AnchorPoint: "top" 392 732 basechar 0
LayerCount: 3
Fore
SplineSet
390 682 m 0
 505 682 603 633 603 577 c 0
 603 568 592 511 566 511 c 0
 545 511 545 540 534 578 c 0
 526 605 478 650 389 650 c 0
 255 650 113 527 113 319 c 0
 113 140 218 24 346 24 c 0
 384 24 433 35 478 63 c 0
 525 93 526 97 551 153 c 1
 573 153 l 1
 563 97 557 73 555 64 c 0
 552 52 548 47 518 31 c 0
 484 12 424 -11 340 -11 c 0
 121 -11 33 131 33 287 c 0
 33 472 149 682 390 682 c 0
EndSplineSet
AlternateSubs2: "'aalt' Access All Alternates lookup 0 subtable" C.001
AlternateSubs2: "'aalt' Access All Alternates in Latin lookup 0 subtable" C.001
Position2: "'cpsp' Capital Spacing in Latin lookup 2 subtable" dx=4 dy=0 dh=8 dv=0
Substitution2: "swsh1 subtable" C.001
EndChar

StartChar: D
Encoding: 68 68 27
Width: 709
VWidth: 0
Flags: HW
HStem: 0 32<24 79.406 157.441 394.236> 635 32<40 124.979 198 427.156>
VStem: 599 80<250.505 480.224>
AnchorPoint: "r;o" 689 195 basechar 0
AnchorPoint: "r;x" 709 376 basechar 0
AnchorPoint: "l;bl" 0 15 basechar 0
AnchorPoint: "l;x" 10 376 basechar 0
AnchorPoint: "l;hi" 30 684 basechar 0
AnchorPoint: "l;o" 0 195 basechar 0
AnchorPoint: "top" 350 732 basechar 0
LayerCount: 3
Fore
SplineSet
292 32 m 2
 538 32 599 237 599 359 c 0
 599 475 544 635 325 635 c 2
 225 635 l 2
 204 635 199 634 198 621 c 0
 183 439 155 109 155 66 c 0
 155 33 167 32 227 32 c 2
 292 32 l 2
306 667 m 2
 495 667 565 636 626 550 c 0
 662 499 679 437 679 373 c 0
 679 281 643 183 572 110 c 0
 484 19 386 0 281 0 c 2
 22 0 l 1
 24 32 l 1
 42 32 l 2
 76 32 79 34 81 62 c 0
 124 608 125 614 125 618 c 0
 125 635 118 635 80 635 c 2
 38 635 l 1
 40 667 l 1
 306 667 l 2
EndSplineSet
AlternateSubs2: "'aalt' Access All Alternates lookup 0 subtable" D.001
AlternateSubs2: "'aalt' Access All Alternates in Latin lookup 0 subtable" D.001
Position2: "'cpsp' Capital Spacing in Latin lookup 2 subtable" dx=4 dy=0 dh=8 dv=0
Substitution2: "swsh1 subtable" D.001
EndChar

StartChar: E
Encoding: 69 69 28
Width: 528
VWidth: 0
Flags: HMW
HStem: 0 46<170.004 419.212> 0 32<35 98.591> 359 39<199 405.47> 635 32<66 151.993 220 445.471>
VStem: 406 19<268 355.73> 414 27<399.521 472> 492 22<546 620.166>
DStem2: 101 62 173 93 0.0911805 0.995834<-7.26522 6.38264 559.33 573.279>
AnchorPoint: "top" 328 732 basechar 0
LayerCount: 3
Fore
SplineSet
210 46 m 2xba
 453 46 458 50 467 76 c 0
 476 99 482 131 487 152 c 1
 512 147 l 1
 478 0 l 1
 33 0 l 1
 35 32 l 1
 58 32 l 2
 92 32 98 34 101 62 c 0
 150 610 152 612 152 619 c 0
 152 635 143 635 121 635 c 2
 66 635 l 1
 66 667 l 1
 514 667 l 1
 514 546 l 1
 492 545 l 1
 491 597 l 2
 490 633 478 631 247 635 c 0
 226 635 221 634 220 621 c 2
 200 398 l 1
 380 398 l 2
 408 398 411 400 414 424 c 2
 419 473 l 1
 441 472 l 1x76
 425 267 l 1
 401 268 l 1
 405 322 406 329 406 336 c 0
 406 354 398 359 375 359 c 2
 196 359 l 1
 173 93 l 2
 172 80 171 69 171 62 c 0
 171 47 176 46 195 46 c 2
 210 46 l 2xba
EndSplineSet
AlternateSubs2: "'aalt' Access All Alternates lookup 0 subtable" E.001
AlternateSubs2: "'aalt' Access All Alternates in Latin lookup 0 subtable" E.001
Position2: "'cpsp' Capital Spacing in Latin lookup 2 subtable" dx=4 dy=0 dh=8 dv=0
Substitution2: "swsh1 subtable" E.001
EndChar

StartChar: F
Encoding: 70 70 29
Width: 545
VWidth: 0
Flags: HMW
HStem: 0 32<27 94.192 168.694 256> 359 39<193 400.7> 635 32<56 141.993 211 436.292>
VStem: 401 21<261 353.312> 408 30<398.688 472> 489 30<540 621.718>
DStem2: 96 62 170 93 0.0823051 0.996607<-22.1251 0 558.896 573.093>
AnchorPoint: "top" 325 732 basechar 0
LayerCount: 3
Fore
SplineSet
192 32 m 2xf4
 258 32 l 1
 256 0 l 1
 25 0 l 1
 27 32 l 1
 55 32 l 2
 89 32 94 34 96 62 c 0
 137 554 142 600 142 619 c 0
 142 635 133 635 111 635 c 2
 56 635 l 1
 56 667 l 1
 519 667 l 1
 519 540 l 1
 489 539 l 1
 489 597 l 2
 489 633 470 631 239 635 c 0
 218 635 212 635 211 621 c 2
 193 398 l 1
 377 398 l 2
 405 398 405 400 408 424 c 2
 413 473 l 1
 438 472 l 1xec
 422 261 l 1
 396 261 l 1
 400 315 401 329 401 336 c 0
 401 354 395 359 372 359 c 2
 190 359 l 1
 170 93 l 2
 169 80 168 63 168 56 c 0
 168 41 173 32 192 32 c 2xf4
EndSplineSet
Position2: "'cpsp' Capital Spacing in Latin lookup 2 subtable" dx=4 dy=0 dh=8 dv=0
EndChar

StartChar: H
Encoding: 72 72 30
Width: 685
VWidth: 0
Flags: HW
HStem: 0 32<12 77.5271 152.16 240 408 489.027 563.539 646> 353 39<174 513> 635 32<39 119.67 191.688 266 454 531.67 604 674>
DStem2: 75.5457 0 146.637 0 0.0697565 0.997564<65.5346 358.799 397.913 610.43> 487.546 0 558.266 0 0.0697565 0.997564<61.4551 353.916 393.03 610.43>
AnchorPoint: "top" 342 732 basechar 0
AnchorPoint: "l;bl" 0 15 basechar 0
AnchorPoint: "l;x" 10 376 basechar 0
AnchorPoint: "l;hi" 20 684 basechar 0
AnchorPoint: "l;o" 0 195 basechar 0
AnchorPoint: "r;bl" 665 15 basechar 0
AnchorPoint: "r;x" 685 376 basechar 0
AnchorPoint: "r;hi" 685 684 basechar 0
AnchorPoint: "r;o" 675 195 basechar 0
LayerCount: 3
Fore
SplineSet
120 609 m 4
 120 633 118 635 84 635 c 6
 38 635 l 5
 39 667 l 5
 267 667 l 5
 266 635 l 5
 244 635 l 6
 193 635 192 635 189 598 c 6
 174 392 l 5
 516 392 l 1
 531 596 l 2
 531 601 532 605 532 609 c 0
 532 633 530 635 496 635 c 2
 454 635 l 1
 454 667 l 1
 675 667 l 1
 674 635 l 1
 658 635 l 2
 607 635 604 635 601 598 c 2
 564 82 l 2
 563 71 563 63 563 56 c 0
 563 32 571 32 610 32 c 2
 646 32 l 1
 646 0 l 1
 406 0 l 1
 408 32 l 1
 449 32 l 2
 488 32 490 35 493 78 c 2
 513 353 l 1
 171 353 l 5
 153 91 l 6
 152 73 151 69 151 60 c 4
 151 33 161 32 197 32 c 6
 240 32 l 5
 240 0 l 5
 10 0 l 5
 12 32 l 5
 45 32 l 6
 77 32 78 35 81 78 c 6
 119 596 l 6
 119 601 120 605 120 609 c 4
EndSplineSet
Position2: "'cpsp' Capital Spacing in Latin lookup 2 subtable" dx=4 dy=0 dh=8 dv=0
EndChar

StartChar: I
Encoding: 73 73 31
Width: 285
VWidth: 0
Flags: HW
HStem: 0 32<12 76.7907 150.453 244> 635 32<52 133.914 206.594 274>
VStem: 11 265
DStem2: 82 78 152 82 0.0979818 0.995188<-14.904 540.272>
AnchorPoint: "r;o" 275 195 basechar 0
AnchorPoint: "r;hi" 285 684 basechar 0
AnchorPoint: "r;x" 285 376 basechar 0
AnchorPoint: "r;bl" 255 15 basechar 0
AnchorPoint: "l;o" 0 195 basechar 0
AnchorPoint: "l;hi" 30 684 basechar 0
AnchorPoint: "l;x" 10 376 basechar 0
AnchorPoint: "l;bl" 0 15 basechar 0
AnchorPoint: "top" 178 732 basechar 0
LayerCount: 3
Fore
SplineSet
51 635 m 5
 52 667 l 5
 276 667 l 1
 274 635 l 1
 262 635 l 2
 210 635 207 635 203 598 c 2
 152 82 l 2
 151 71 150 63 150 56 c 0
 150 33 156 32 203 32 c 2
 245 32 l 1
 244 0 l 1
 11 0 l 5
 12 32 l 5
 34 32 l 6
 74 32 78 35 82 78 c 6
 133 596 l 6
 134 604 134 611 134 616 c 4
 134 634 127 635 98 635 c 6
 51 635 l 5
EndSplineSet
Position2: "'cpsp' Capital Spacing in Latin lookup 2 subtable" dx=4 dy=0 dh=8 dv=0
EndChar

StartChar: J
Encoding: 74 74 32
Width: 287
VWidth: 0
Flags: HMW
HStem: -263 48<-70.5 37.0789> 635 32<24 133.914 206.108 276>
DStem2: 84 82 138 -81 0.0952934 0.995449<-256.603 -157.112 516.33 552.454>
AnchorPoint: "top" 175 736 basechar 0
LayerCount: 3
Fore
SplineSet
84 82 m 2
 133 596 l 2
 134 604 134 611 134 616 c 0
 134 634 127 635 98 635 c 2
 24 635 l 1
 24 667 l 1
 276 667 l 1
 276 635 l 1
 242 635 l 2
 210 635 206 633 203 598 c 2
 138 -81 l 2
 133 -134 129 -143 122 -156 c 0
 96 -201 40 -263 -43 -263 c 0
 -98 -263 -132 -237 -132 -191 c 0
 -132 -158 -107 -134 -86 -134 c 0
 -65 -134 -60 -152 -53 -170 c 0
 -40 -200 -29 -215 -6 -215 c 0
 10 -215 28 -207 40 -191 c 0
 49 -179 51 -174 61 -109 c 0
 70 -48 79 25 84 82 c 2
EndSplineSet
Position2: "'cpsp' Capital Spacing in Latin lookup 2 subtable" dx=4 dy=0 dh=8 dv=0
EndChar

StartChar: K
Encoding: 75 75 33
Width: 733
VWidth: 0
Flags: HMW
HStem: 0 32<17 81.4874 155.453 250 588.851 677> 635 32<56 128.914 201.172 271 504 562.993 625.589 720>
DStem2: 86 78 156 82 0.0808159 0.996729<-37.049 0 527.35 556.432> 175 314 172 274 0.79354 0.608518<0 73.8815 142.226 497.703>
AnchorPoint: "cedilla" 363 -90 basechar 0
LayerCount: 3
Fore
SplineSet
526 594 m 2
 550 613 563 622 563 628 c 0
 563 633 554 635 535 635 c 2
 504 635 l 1
 504 667 l 1
 722 667 l 1
 720 635 l 1
 678 635 l 2
 641 635 632 626 558 570 c 2
 307 376 l 1
 432 204 569 32 624 32 c 2
 679 32 l 1
 677 0 l 1
 505 0 l 1
 420 100 337 213 252 335 c 1
 172 274 l 1
 156 82 l 2
 155 71 155 63 155 56 c 0
 155 33 161 32 208 32 c 2
 250 32 l 1
 250 0 l 1
 17 0 l 1
 17 32 l 1
 39 32 l 2
 79 32 83 35 86 78 c 2
 128 596 l 2
 129 604 129 611 129 616 c 0
 129 634 122 635 93 635 c 2
 56 635 l 1
 56 667 l 1
 272 667 l 1
 271 635 l 1
 257 635 l 2
 205 635 201 635 198 598 c 2
 175 314 l 1
 526 594 l 2
EndSplineSet
Layer: 2
SplineSet
536 588 m 2
 554 601 561 611 561 617 c 0
 561 625 546 627 515 627 c 2
 476 627 l 1
 474 667 l 1
 714 667 l 1
 714 627 l 1
 688 627 l 2
 645 627 642 617 567 562 c 2
 308 372 l 1
 553 66 l 1
 574 42 583 39 596 39 c 2
 654 39 l 1
 652 0 l 1
 495 0 l 1
 248 325 l 1
 171.739212036 270.611053467 l 5
 156.389648438 82 l 2
 155.58203125 71 154.721679688 63 154.84375 56 c 0
 155.245117188 33 161.262695312 32 208.262695312 32 c 2
 250.262695312 32 l 1
 249.821289062 0 l 1
 16.8212890625 0 l 1
 17.2626953125 32 l 1
 39.2626953125 32 l 2
 79.2626953125 32 82.9784317017 35.0181274414 86.4599609375 78 c 2
 128.41796875 596 l 2
 129.278320312 604 129.15625 611 129.069335938 616 c 0
 128.754882812 634 121.737304688 635 92.7373046875 635 c 2
 45.7373046875 635 l 1
 46.1787109375 667 l 1
 270.178710938 667 l 1
 268.737304688 635 l 1
 256.737304688 635 l 2
 204.737304688 635 201.737304688 635 198.3828125 598 c 2
 175.808288574 320.610717773 l 1
 536 588 l 2
EndSplineSet
Position2: "'cpsp' Capital Spacing in Latin lookup 2 subtable" dx=4 dy=0 dh=8 dv=0
EndChar

StartChar: L
Encoding: 76 76 34
Width: 513
VWidth: 0
Flags: HW
HStem: 0 39<152.199 394.344> 0 32<11 79.192> 635 32<34 119.762 190.678 269>
AnchorPoint: "commaright" 369 654 basechar 0
AnchorPoint: "top" 158 732 basechar 0
AnchorPoint: "l;bl" 0 15 basechar 0
AnchorPoint: "l;x" 10 376 basechar 0
AnchorPoint: "l;hi" 20 684 basechar 0
AnchorPoint: "l;o" 0 195 basechar 0
AnchorPoint: "r;bl" 493 15 basechar 0
AnchorPoint: "r;o" 513 195 basechar 0
LayerCount: 3
Fore
SplineSet
453 0 m 1x60
 10 0 l 1
 11 32 l 1
 40 32 l 2x60
 74 32 79 34 81 62 c 0
 94 245 120 606 120 616 c 0
 120 632 107 635 81 635 c 2
 32 635 l 1
 34 667 l 1
 269 667 l 1
 269 635 l 1
 223 635 l 2
 187 635 190 623 188 591 c 0
 176 416 152 74 152 63 c 0
 152 44 159 39 191 39 c 0xa0
 266 39 413 53 426 57 c 0
 444 64 445 75 467 149 c 1
 493 142 l 1
 479 97 462 32 453 0 c 1x60
EndSplineSet
AlternateSubs2: "'aalt' Access All Alternates in Latin lookup 0 subtable" L.CAT
Position2: "'cpsp' Capital Spacing in Latin lookup 2 subtable" dx=4 dy=0 dh=8 dv=0
Substitution2: "catalan subtable" L.CAT
EndChar

StartChar: M
Encoding: 77 77 35
Width: 823
VWidth: 0
Flags: HMW
HStem: -17 21G<369 376.5> 0 32<28 91.6152 132.099 215 546 626.192 701.166 777> 635 32<30 136.125 734.14 811>
DStem2: 96 75 132 51 0.0913941 0.995815<-37.2155 176.915> 200 667 135 622 0.339265 -0.940691<0 45.9088 109.891 600.546> 398 100 393 12 0.446582 0.894743<0 514.72> 628 62 699 66 0.058722 0.998274<-24.1721 8.16236>
LayerCount: 3
Fore
SplineSet
135 622 m 2x60
 131 633 124 635 108 635 c 2
 28 635 l 1
 30 667 l 1
 200 667 l 1
 398 100 l 1
 681 667 l 1
 811 667 l 1
 811 635 l 1
 770 635 l 2
 732 635 733 635 728 559 c 0
 699 75 699 70 699 66 c 0
 699 32 713 32 730 32 c 2
 777 32 l 1
 777 0 l 1
 544 0 l 1
 546 32 l 1
 587 32 l 2x60
 621 32 626 34 628 62 c 2
 657 546 l 1
 393 12 l 2
 384 -6 380 -17 373 -17 c 0xa0
 365 -17 363 -10 355 12 c 2
 169 539 l 1
 157 384 132 55 132 51 c 0
 132 37 137 32 162 32 c 2
 215 32 l 1
 215 0 l 1
 26 0 l 1
 28 32 l 1
 50 32 l 2
 90 32 92 35 96 75 c 2
 144 598 l 1
 135 622 l 2x60
EndSplineSet
AlternateSubs2: "'aalt' Access All Alternates lookup 0 subtable" M.001 M.002
AlternateSubs2: "'aalt' Access All Alternates in Latin lookup 0 subtable" M.001 M.002
Position2: "'cpsp' Capital Spacing in Latin lookup 2 subtable" dx=4 dy=0 dh=8 dv=0
Substitution2: "'ss01' Style Set 1 in Latin lookup 13 subtable" M.001
AlternateSubs2: "swsh2 subtable" M.002 M.001
EndChar

StartChar: N
Encoding: 78 78 36
Width: 760
VWidth: 0
Flags: HMW
HStem: -17 21G<603 609> 0 32<44 107.29 148.172 227> 635 32<42 129.525 563 644.438 682.221 746>
DStem2: 111 75 157 203 0.0852912 0.996356<-37.1026 0 131.457 485.559> 196 667 155 589 0.589396 -0.807844<0 38.8466 83.1873 689.985> 595 104 635 175 0.096766 0.995307<74.5374 389.165 492.746 530.712>
AnchorPoint: "top" 362 732 basechar 0
AnchorPoint: "cedilla" 367 -93 basechar 0
LayerCount: 3
Fore
SplineSet
595 104 m 1x60
 630 464 l 2
 637 531 645 591 645 611 c 0
 645 632 638 635 611 635 c 2
 562 635 l 1
 563 667 l 1
 748 667 l 1
 746 635 l 1
 721 635 l 2
 681 635 682 627 678 591 c 2
 678 591 669 510 667 488 c 2
 635 175 l 0
 618 7 l 2
 616 -17 611 -17 607 -17 c 0xa0
 599 -17 597 -17 584 1 c 2
 185 556 l 1
 185 556 167 341 157 203 c 24
 153 144 148 97 148 51 c 0
 148 32 163 32 178 32 c 2
 233 32 l 1
 232 0 l 1
 42 0 l 1
 44 32 l 1
 66 32 l 2
 106 32 108 35 111 75 c 2
 155 589 l 1
 117 634 125 635 70 635 c 2
 40 635 l 1
 42 667 l 1
 196 667 l 1
 595 104 l 1x60
EndSplineSet
Layer: 2
SplineSet
595 104 m 5
 630 464 l 6
 637 531 645 591 645 611 c 4
 645 632 638 635 611 635 c 6
 562 635 l 5
 563 667 l 5
 748 667 l 5
 746 635 l 5
 721 635 l 6
 681 635 682 627 678 591 c 6
 678 591 669 510 667 488 c 6
 618 7 l 6
 616 -17 611 -17 607 -17 c 4
 599 -17 598 -16 586 1 c 6
 185 556 l 5
 147 91 146 88 146 51 c 4
 146 32 161 32 176 32 c 6
 226 32 l 5
 225 0 l 5
 40 0 l 5
 42 32 l 5
 64 32 l 6
 104 32 105 35 109 75 c 6
 155 589 l 5
 117 634 125 635 70 635 c 6
 40 635 l 5
 42 667 l 5
 196 667 l 5
 595 104 l 5
EndSplineSet
AlternateSubs2: "'aalt' Access All Alternates lookup 0 subtable" N.001
AlternateSubs2: "'aalt' Access All Alternates in Latin lookup 0 subtable" N.001
Position2: "'cpsp' Capital Spacing in Latin lookup 2 subtable" dx=4 dy=0 dh=8 dv=0
Substitution2: "'ss01' Style Set 1 in Latin lookup 13 subtable" N.001
Substitution2: "swsh1 subtable" N.001
EndChar

StartChar: O
Encoding: 79 79 37
Width: 688
VWidth: 0
Flags: HW
HStem: -16 36<247.507 402.567> 654 32<287.186 434.251>
VStem: 25 82<179.601 435.153> 576 82<243.27 499.975>
AnchorPoint: "top" 363 732 basechar 0
AnchorPoint: "l;x" 0 376 basechar 0
AnchorPoint: "l;o" 0 195 basechar 0
AnchorPoint: "r;x" 688 376 basechar 0
AnchorPoint: "r;o" 668 195 basechar 0
LayerCount: 3
Fore
SplineSet
372 686 m 0
 567 686 658 537 658 376 c 4
 658 188 533 -16 301 -16 c 0
 157 -16 25 81 25 297 c 0
 25 513 164 686 372 686 c 0
576 368 m 0
 576 561 471 654 361 654 c 0
 237 654 107 538 107 318 c 0
 107 116 212 20 323 20 c 0
 446 20 576 140 576 368 c 0
EndSplineSet
Position2: "'cpsp' Capital Spacing in Latin lookup 2 subtable" dx=4 dy=0 dh=8 dv=0
EndChar

StartChar: p
Encoding: 112 112 38
Width: 369
VWidth: 0
Flags: HW
HStem: -6 45<153.319 229.321> 334 61<238.409 309.5> 349 54<85 157.445>
VStem: 96 70<241.718 392> 302 52<176.447 313.919>
AnchorPoint: "l;bl" 0 15 basechar 0
AnchorPoint: "l;x" 0 376 basechar 0
AnchorPoint: "l;o" 0 195 basechar 0
AnchorPoint: "r;bl" 349 15 basechar 0
AnchorPoint: "r;x" 369 376 basechar 0
AnchorPoint: "r;o" 369 195 basechar 0
LayerCount: 3
Fore
SplineSet
88 349 m 4xb8
 82 349 74 346 25 324 c 5
 15 347 l 5
 15 347 129 403 152 403 c 4xb8
 160 403 166 400 166 391 c 4
 166 387 153 313 147 273 c 5
 147 273 225 395 292 395 c 4xd8
 327 395 354 364 354 287 c 4
 354 227 326 154 312 125 c 4
 278 55 220 -6 186 -6 c 4
 155 -6 129 22 129 22 c 5
 124 -89 114 -182 114 -202 c 4
 114 -219 114 -227 133 -227 c 4
 142 -227 187 -223 223 -221 c 5
 222 -248 l 5
 -21 -271 l 5
 -21 -242 l 5
 53 -235 49 -241 51 -208 c 4
 72 68 83 202 89 266 c 4
 92 305 96 325 96 337 c 4
 96 345 94 349 88 349 c 4xb8
248 334 m 4xd8
 212 334 135 247 135 149 c 4
 135 71 159 39 188 39 c 4
 237 39 302 131 302 225 c 4
 302 260 291 334 248 334 c 4xd8
EndSplineSet
EndChar

StartChar: q
Encoding: 113 113 39
Width: 343
VWidth: 0
Flags: HMW
HStem: -3 62<61 130> 360 36<148 203>
VStem: 20 57<77 234>
DStem2: 86 -237 85 -270 0.996615 0.0822157<0 106.261 175.114 239.878> 195 -188 259 -202 0.0596309 0.99822<-33.1223 198.689>
AnchorPoint: "l;bl" 0 15 basechar 0
AnchorPoint: "l;x" 20 376 basechar 0
AnchorPoint: "l;o" 0 195 basechar 0
AnchorPoint: "r;bl" 323 15 basechar 0
AnchorPoint: "r;x" 343 376 basechar 0
AnchorPoint: "r;o" 343 195 basechar 0
LayerCount: 3
Fore
SplineSet
328 -226 m 1
 328 -250 l 1
 85 -270 l 1
 86 -237 l 1
 181 -230 190 -239 195 -188 c 2
 227 146 l 1
 227 146 149 -3 81 -3 c 0
 41 -3 20 54 20 109 c 0
 20 143 31 212 49 255 c 0
 91 355 163 396 195 396 c 0
 238 396 271 341 271 341 c 1
 271 341 280 392 285 412 c 1
 310 408 l 1
 296 328 294 308 283 207 c 0
 271 100 259 -180 259 -202 c 0
 259 -225 265 -227 288 -227 c 0
 298 -227 313 -226 328 -226 c 1
231 259 m 0
 231 327 194 360 170 360 c 0
 122 360 76 239 76 171 c 0
 76 84 108 59 127 59 c 0
 150 59 173 91 193 123 c 0
 216 159 231 210 231 259 c 0
EndSplineSet
EndChar

StartChar: v
Encoding: 118 118 40
Width: 383
VWidth: 0
Flags: HMW
HStem: -15 65<109 183> 383 20G<148.5 161.5 306 330>
VStem: 84 67<76 308> 312 46<233 350>
AnchorPoint: "l;bl" 20 15 basechar 0
AnchorPoint: "l;x" 0 376 basechar 0
AnchorPoint: "l;o" 20 195 basechar 0
AnchorPoint: "r;bl" 353 15 basechar 0
AnchorPoint: "r;x" 383 376 basechar 0
AnchorPoint: "r;o" 373 195 basechar 0
LayerCount: 3
Fore
SplineSet
25 355 m 1
 139 403 142 406 155 406 c 0
 168 406 173 399 173 390 c 0
 173 361 151 268 151 191 c 2
 151 147 l 2
 151 83 155 50 180 50 c 0
 205 50 312 164 312 291 c 0
 312 335 286 337 286 371 c 0
 286 391 296 403 316 403 c 0
 344 403 358 372 358 345 c 0
 358 288 325 176 280 107 c 0
 220 15 158 -15 128 -15 c 0
 89 -15 84 33 84 75 c 0
 84 144 95 264 101 328 c 0
 102 341 97 349 88 349 c 0
 85 349 80 348 76 346 c 2
 31 327 l 1
 25 355 l 1
EndSplineSet
EndChar

StartChar: x
Encoding: 120 120 41
Width: 412
VWidth: 0
Flags: HW
HStem: -8 71<232.5 296.462> -8 40<23.1394 101.579> 341 58<140.946 216.5 344.692 395.679> 360 39<318.528 382.466>
VStem: 184 47<134.59 265.78>
AnchorPoint: "l;bl" 0 15 basechar 0
AnchorPoint: "l;x" 40 376 basechar 0
AnchorPoint: "l;o" 30 195 basechar 0
AnchorPoint: "r;bl" 392 15 basechar 0
AnchorPoint: "r;x" 412 376 basechar 0
AnchorPoint: "r;o" 412 195 basechar 0
LayerCount: 3
Fore
SplineSet
397 371 m 0x68
 397 355 381 341 370 341 c 0x68
 358 341 359 360 344 360 c 0
 332 360 304 336 278 303 c 0
 248 265 231 229 231 182 c 0
 231 114 271 63 290 63 c 0
 317 63 347 125 357 147 c 1
 381 140 l 1
 362 98 356 76 299 16 c 0
 286 2 272 -8 261 -8 c 0x98
 204 -8 188 125 188 125 c 1
 188 125 127 -8 50 -8 c 0
 26 -8 10 2 10 22 c 0
 10 34 24 50 34 50 c 0
 48 50 45 32 62 32 c 0
 91 32 126 74 136 89 c 0
 165 131 184 172 184 227 c 0
 184 273 183 343 158 343 c 0
 121 343 96 269 96 269 c 1
 76 280 l 1
 82 296 88 316 121 357 c 0
 140 380 164 400 194 400 c 0
 239 400 239 292 239 292 c 1
 239 292 310 399 363 399 c 0
 390 399 397 382 397 371 c 0x68
EndSplineSet
EndChar

StartChar: z
Encoding: 122 122 42
Width: 450
VWidth: 0
Flags: HMW
HStem: -12 65<227.069 363.388> 346 56<102.587 314.895>
VStem: 10 36<-55.3558 15.4062> 57 29<304.254 335.76> 378 34<71.822 145.972> 379 51<384.781 442.634>
DStem2: 125 131 105 71 0.709575 0.70463<-56.2065 273.641>
AnchorPoint: "top" 249 488 basechar 0
AnchorPoint: "l;bl" 0 15 basechar 0
AnchorPoint: "l;x" 10 376 basechar 0
AnchorPoint: "l;o" 10 195 basechar 0
AnchorPoint: "r;bl" 440 15 basechar 0
AnchorPoint: "r;x" 450 376 basechar 0
AnchorPoint: "r;o" 440 195 basechar 0
LayerCount: 3
Fore
SplineSet
378 110 m 4xf8
 378 130 368 140 362 146 c 5
 377 160 l 5
 377 160 412 146 412 99 c 4xf8
 412 55 378 -12 307 -12 c 4
 249 -12 190 29 128 29 c 4
 74 29 46 12 46 -8 c 4
 46 -11 50 -26 50 -37 c 4
 50 -47 47 -56 33 -56 c 4
 20 -56 10 -45 10 -26 c 4
 10 32 72 77 125 131 c 30
 317 326 l 5
 239 331 178 346 154 346 c 4
 96 346 86 325 86 321 c 4
 86 308 113 302 113 285 c 4
 113 274 107 264 89 264 c 4
 75 264 57 280 57 307 c 4
 57 360 114 402 182 402 c 4
 255 402 292 384 360 384 c 4
 374 384 379 387 379 399 c 4
 379 404 373 412 373 421 c 4
 373 433 382 445 399 445 c 4
 408 445 430 434 430 410 c 4xf4
 430 394 408 372 392 356 c 6
 105 71 l 5
 105 71 128 81 177 81 c 4
 233 81 279 53 322 53 c 4
 366 53 378 102 378 110 c 4xf8
EndSplineSet
AlternateSubs2: "'aalt' Access All Alternates lookup 0 subtable" z.001
AlternateSubs2: "'aalt' Access All Alternates in Latin lookup 0 subtable" z.001
Substitution2: "swsh1 subtable" z.001
EndChar

StartChar: P
Encoding: 80 80 43
Width: 541
VWidth: 0
Flags: HW
HStem: 0 32<10 71.192 143.669 241> 275 32<166.348 323.122> 635 32<45 121.992 191.969 341.35>
VStem: 440 86<405.691 564.112>
AnchorPoint: "l;bl" 0 15 basechar 0
AnchorPoint: "l;x" 10 376 basechar 0
AnchorPoint: "l;hi" 20 684 basechar 0
AnchorPoint: "l;o" 0 195 basechar 0
AnchorPoint: "r;x" 521 376 basechar 0
AnchorPoint: "r;hi" 541 684 basechar 0
AnchorPoint: "r;o" 501 195 basechar 0
LayerCount: 3
Fore
SplineSet
526 496 m 0
 526 363 400 275 261 275 c 0
 209 275 162 285 162 285 c 1
 145 89 l 2
 145 84 143 65 143 57 c 0
 143 40 148 32 164 32 c 2
 243 32 l 1
 241 0 l 1
 10 0 l 1
 10 32 l 1
 32 32 l 2
 66 32 71 34 73 62 c 0
 121 609 122 613 122 619 c 0
 122 635 111 635 73 635 c 2
 44 635 l 1
 45 667 l 1
 287 667 l 2
 444 667 526 607 526 496 c 0
231 307 m 0
 407 307 440 434 440 484 c 0
 440 624 305 635 225 635 c 0
 199 635 193 634 191 612 c 2
 166 312 l 1
 166 312 188 307 231 307 c 0
EndSplineSet
AlternateSubs2: "'aalt' Access All Alternates lookup 0 subtable" P.001
AlternateSubs2: "'aalt' Access All Alternates in Latin lookup 0 subtable" P.001
Position2: "'cpsp' Capital Spacing in Latin lookup 2 subtable" dx=4 dy=0 dh=8 dv=0
Substitution2: "swsh1 subtable" P.001
EndChar

StartChar: Q
Encoding: 81 81 44
Width: 698
VWidth: 0
Flags: W
HStem: -210 63<599.19 728.355> -21 36<76.2108 270.923> 235 46<226.874 350.69> 650 36<283.464 441.304>
VStem: 88 75<351.713 512.062> 585 81<269.732 507.229>
LayerCount: 3
Fore
SplineSet
304 281 m 0
 368 281 370 324 386 324 c 0
 388 324 397 323 397 312 c 0
 397 284 345 235 269 235 c 0
 182 235 88 297 88 411 c 0
 88 534 184 686 376 686 c 0
 519 686 666 596 666 401 c 0
 666 89 353 2 353 2 c 1
 353 2 585 -147 689 -147 c 0
 737 -147 741 -126 758 -126 c 0
 766 -126 768 -135 768 -139 c 0
 768 -145 765 -153 758 -163 c 0
 740 -187 696 -210 653 -210 c 0
 593 -210 516 -183 450 -142 c 0
 346 -77 256 -14 256 -14 c 1
 256 -14 218 -21 178 -21 c 0
 114 -21 24 -6 24 28 c 0
 24 37 31 47 41 47 c 0
 56 47 82 15 178 15 c 0
 454 15 585 218 585 394 c 0
 585 599 433 650 360 650 c 0
 257 650 163 565 163 443 c 0
 163 365 201 281 304 281 c 0
EndSplineSet
Position2: "'cpsp' Capital Spacing in Latin lookup 2 subtable" dx=4 dy=0 dh=8 dv=0
EndChar

StartChar: R
Encoding: 82 82 45
Width: 624
VWidth: 0
Flags: HMW
HStem: 0 32<8 76.192 148.061 252 530.402 614> 312 28<168.259 264.81> 635 32<35 116.979 187 318.127>
VStem: 426 84<406.354 553.936>
DStem2: 78 62 149 69 0.069972 0.997549<-23.2015 0 557.366 571.899>
AnchorPoint: "cedilla" 344 -95 basechar 0
AnchorPoint: "top" 273 732 basechar 0
LayerCount: 3
Fore
SplineSet
426 482 m 0
 426 566 354 635 220 635 c 0
 199 635 188 634 187 621 c 2
 168 344 l 1
 168 344 195 340 231 340 c 0
 291 340 339 345 375 373 c 0
 407 398 426 441 426 482 c 0
510 487 m 0
 510 433 487 342 332 318 c 1
 508 74 l 2
 523 53 539 32 571 32 c 2
 616 32 l 1
 614 0 l 1
 450 0 l 1
 382 86 321 205 259 312 c 1
 245 312 l 2
 206 312 166 319 166 319 c 1
 149 69 l 2
 149 63 148 56 148 50 c 0
 148 40 151 32 170 32 c 2
 254 32 l 1
 252 0 l 1
 7 0 l 1
 8 32 l 1
 37 32 l 2
 71 32 76 34 78 62 c 0
 116 608 117 614 117 618 c 0
 117 634 110 635 65 635 c 2
 35 635 l 1
 35 667 l 1
 281 667 l 2
 456 667 510 568 510 487 c 0
EndSplineSet
AlternateSubs2: "'aalt' Access All Alternates lookup 0 subtable" R.001
AlternateSubs2: "'aalt' Access All Alternates in Latin lookup 0 subtable" R.001
Position2: "'cpsp' Capital Spacing in Latin lookup 2 subtable" dx=4 dy=0 dh=8 dv=0
Substitution2: "swsh1 subtable" R.001
EndChar

StartChar: S
Encoding: 83 83 46
Width: 445
VWidth: 0
Flags: HMW
HStem: -11 35<117.48 268.683> 643 38<183.599 332.429>
VStem: 42 26<-39 3.94364> 74 70<476.812 597.896> 332 71<98.0533 226.399> 384 27<587.727 599.395 660.04 687> 394 28<531 592.375>
AnchorPoint: "cedilla" 189 -93 basechar 0
AnchorPoint: "top" 252 732 basechar 0
LayerCount: 3
Fore
SplineSet
192 -11 m 0xf8
 127 -11 106 4 84 4 c 0
 69 4 68 1 68 -8 c 0
 68 -14 70 -39 70 -39 c 1
 42 -40 l 1
 33 52 30 83 14 175 c 1
 42 180 l 1
 52 112 l 2
 57 79 72 60 108 45 c 0
 142 30 173 24 200 24 c 0
 284 24 332 86 332 156 c 0xf8
 332 235 270 270 210 322 c 2
 161 364 l 2
 121 398 74 458 74 526 c 0
 74 607 151 681 257 681 c 0
 309 681 362 660 369 660 c 0
 381 660 384 666 384 680 c 2
 384 687 l 1
 411 687 l 1xf4
 422 531 l 1
 394 529 l 1xf2
 390 583 l 1
 390 583 336 643 254 643 c 0
 192 643 144 611 144 548 c 0
 144 475 202 433 261 382 c 2
 296 352 l 2
 315 335 403 275 403 180 c 0
 403 97 334 -11 192 -11 c 0xf8
EndSplineSet
Position2: "'cpsp' Capital Spacing in Latin lookup 2 subtable" dx=4 dy=0 dh=8 dv=0
EndChar

StartChar: T
Encoding: 84 84 47
Width: 617
VWidth: 0
Flags: HMW
HStem: 0 32<148 240.192 313.293 405> 623 44<65.2206 279.992 349.475 563.7>
DStem2: 242 62 314 79 0.0699043 0.997554<-23.2012 2.9681 539.176 559.48>
AnchorPoint: "cedilla" 264 -93 basechar 0
AnchorPoint: "top" 321 732 basechar 0
LayerCount: 3
Fore
SplineSet
279 590 m 2
 279 593 280 602 280 607 c 0
 280 620 269 623 237 623 c 2
 112 623 l 2
 62 623 61 610 46 507 c 1
 10 508 l 1
 20 568 28 616 35 667 c 1
 612 667 l 1
 605 616 595 562 590 509 c 1
 554 510 l 1
 560 552 564 578 564 595 c 0
 564 622 553 623 519 623 c 2
 404 623 l 2
 352 623 351 623 349 595 c 2
 314 79 l 2
 314 75 313 65 313 60 c 0
 313 38 313 32 341 32 c 2
 407 32 l 1
 405 0 l 1
 148 0 l 1
 148 32 l 1
 201 32 l 2
 235 32 240 34 242 62 c 2
 279 590 l 2
EndSplineSet
AlternateSubs2: "'aalt' Access All Alternates lookup 0 subtable" T.001 T.002
AlternateSubs2: "'aalt' Access All Alternates in Latin lookup 0 subtable" T.001 T.002
Position2: "'cpsp' Capital Spacing in Latin lookup 2 subtable" dx=4 dy=0 dh=8 dv=0
Substitution2: "'ss01' Style Set 1 in Latin lookup 13 subtable" T.001
AlternateSubs2: "swsh2 subtable" T.002 T.001
EndChar

StartChar: U
Encoding: 85 85 48
Width: 675
VWidth: 0
Flags: W
HStem: -22 44<197.184 376.76> 635 32<23 105.122 182.802 262 424 512.678 589.308 661>
VStem: 74 74<72.1031 393.541> 478 71<47.0023 107>
AnchorPoint: "top" 353 732 basechar 0
LayerCount: 3
Fore
SplineSet
270 -22 m 0
 105 -22 74 35 74 157 c 0
 74 205 106 573 106 603 c 0
 106 633 102 635 77 635 c 2
 22 635 l 1
 23 667 l 1
 264 667 l 1
 262 635 l 1
 215 635 l 2
 191 635 183 634 180 604 c 0
 156 304 148 179 148 157 c 0
 148 94 172 22 278 22 c 0
 370 22 419 64 449 112 c 0
 486 172 485 244 487 264 c 2
 512 586 l 2
 513 594 513 607 513 613 c 0
 513 631 507 635 474 635 c 2
 423 635 l 1
 424 667 l 1
 661 667 l 1
 661 635 l 1
 617 635 l 2
 600 635 589 634 587 605 c 0
 556 160 549 136 549 81 c 0
 549 50 556 47 565 47 c 0
 574 47 592 57 627 75 c 1
 638 50 l 1
 638 50 515 -19 489 -19 c 0
 478 -19 474 -13 474 3 c 0
 474 13 475 26 478 107 c 1
 471 87 446 43 411 18 c 0
 380 -4 334 -22 270 -22 c 0
EndSplineSet
Position2: "'cpsp' Capital Spacing in Latin lookup 2 subtable" dx=4 dy=0 dh=8 dv=0
EndChar

StartChar: V
Encoding: 86 86 49
Width: 660
VWidth: 0
Flags: W
HStem: -15 21G<263.632 299.901> 635 32<24 96.6009 183.005 257 438 517.956 575.855 634>
DStem2: 190 588 112 570 0.259204 -0.965823<-34.3321 488.904> 310 114 291 -15 0.406597 0.913608<0 544.856>
LayerCount: 3
Fore
SplineSet
23 635 m 1
 24 667 l 1
 257 667 l 1
 257 635 l 1
 211 635 l 2
 190 635 183 633 183 622 c 0
 183 615 186 604 190 588 c 2
 310 114 l 1
 515 600 l 2
 518 606 518 614 518 618 c 0
 518 633 503 635 471 635 c 2
 438 635 l 1
 438 667 l 1
 636 667 l 1
 634 635 l 1
 612 635 l 2
 574 635 571 614 538 540 c 2
 291 -15 l 1
 269 -15 l 1
 112 570 l 2
 95 634 94 635 62 635 c 2
 23 635 l 1
EndSplineSet
Position2: "'cpsp' Capital Spacing in Latin lookup 2 subtable" dx=4 dy=0 dh=8 dv=0
EndChar

StartChar: W
Encoding: 87 87 50
Width: 1008
VWidth: 0
Flags: W
HStem: -15 21G<257.632 293.78 623.797 659.757> 635 32<20 90.6009 174.005 253 387 461.514 543.005 623 791 876.991 930.104 995>
DStem2: 181 588 106 570 0.259204 -0.965823<-34.3321 489.682> 304 114 285 -15 0.40199 0.915644<0 411.571> 550 588 477 571 0.245422 -0.969416<-34.3566 30.3341 95.5795 488.954> 670 114 651 -15 0.401079 0.916044<0 546.358>
AnchorPoint: "top" 511 732 basechar 0
LayerCount: 3
Fore
SplineSet
19 635 m 1
 20 667 l 1
 255 667 l 1
 253 635 l 1
 202 635 l 2
 181 635 174 633 174 622 c 0
 174 615 177 604 181 588 c 2
 304 114 l 1
 484 540 l 1
 477 571 l 2
 463 635 452 635 425 635 c 2
 386 635 l 1
 387 667 l 1
 625 667 l 1
 623 635 l 1
 571 635 l 2
 550 635 543 633 543 622 c 0
 543 615 546 604 550 588 c 2
 670 114 l 1
 869 592 l 2
 871 597 877 616 877 620 c 0
 877 633 865 635 850 635 c 2
 791 635 l 1
 791 667 l 1
 997 667 l 1
 995 635 l 1
 968 635 l 2
 930 635 934 631 894 540 c 2
 651 -15 l 1
 629 -15 l 1
 501 477 l 1
 285 -15 l 1
 263 -15 l 1
 106 570 l 2
 89 634 88 635 56 635 c 2
 19 635 l 1
EndSplineSet
Position2: "'cpsp' Capital Spacing in Latin lookup 2 subtable" dx=4 dy=0 dh=8 dv=0
EndChar

StartChar: X
Encoding: 88 88 51
Width: 711
VWidth: 0
Flags: HMW
HStem: -8 59<43.5229 137.099 550.853 615.562> 615 62<119.172 194.344 641.01 700.175> 631 47<596.481 683.693>
VStem: 78 27<490.742 590.957> 636 31<79.0898 136.735>
LayerCount: 3
Fore
SplineSet
667 113 m 0xb8
 663 13 581 -8 558 -8 c 0
 486 -8 463 64 359 286 c 1
 218 20 114 -10 67 -10 c 0
 33 -10 18 15 18 39 c 0
 18 62 32 84 55 84 c 0
 73 84 49 52 86 52 c 0
 184 52 340 328 340 328 c 1
 293 429 218 615 155 615 c 0
 133 615 105 590 105 545 c 0
 105 517 114 494 121 480 c 0
 126 470 124 460 115 460 c 0
 111 460 106 462 102 469 c 0
 85 498 78 529 78 557 c 0
 78 623 118 677 175 677 c 0xd8
 215 677 261 648 302 575 c 0
 333 520 365 453 389 401 c 1
 444 490 549 678 658 678 c 0
 689 678 703 660 703 642 c 0
 703 626 691 610 668 610 c 0
 655 610 662 631 640 631 c 0
 566 631 407 361 407 361 c 1
 478 211 516 134 537 94 c 0
 554 62 570 51 584 51 c 0
 607 51 629 86 636 113 c 0
 638 122 640 137 654 137 c 0
 665 137 667 125 667 113 c 0xb8
EndSplineSet
Position2: "'cpsp' Capital Spacing in Latin lookup 2 subtable" dx=4 dy=0 dh=8 dv=0
EndChar

StartChar: Y
Encoding: 89 89 52
Width: 585
VWidth: 0
Flags: HMW
HStem: 0 32<111 201.332 286.42 369> 635 32<12 73.4084 166.008 229 378 437.99 503.203 572>
DStem2: 196 545 84 601 0.443409 -0.896319<-79.9705 202.594> 207 76 286 78 0.0654332 0.997857<-36.348 0> 285 363 302 322 0.548196 0.83635<0 300.248>
AnchorPoint: "top" 328 732 basechar 0
LayerCount: 3
Fore
SplineSet
11 635 m 1
 12 667 l 1
 232 667 l 1
 229 635 l 1
 200 635 l 2
 177 635 166 633 166 620 c 0
 166 607 177 585 196 545 c 2
 285 363 l 1
 425 591 l 2
 433 604 438 616 438 622 c 0
 438 634 425 635 403 635 c 2
 378 635 l 1
 378 667 l 1
 573 667 l 1
 572 635 l 1
 541 635 l 2
 516 635 505 631 458 560 c 2
 302 322 l 1
 286 78 l 2
 286 70 285 58 285 53 c 0
 285 34 299 32 319 32 c 2
 370 32 l 1
 369 0 l 1
 109 0 l 1
 111 32 l 1
 156 32 l 2
 197 32 204 38 207 76 c 2
 224 318 l 1
 84 601 l 2
 69 631 63 635 37 635 c 2
 11 635 l 1
EndSplineSet
Position2: "'cpsp' Capital Spacing in Latin lookup 2 subtable" dx=4 dy=0 dh=8 dv=0
EndChar

StartChar: Z
Encoding: 90 90 53
Width: 663
VWidth: 0
Flags: HMW
HStem: -16 79<292.363 559.436> 360 32<243 322 395 476> 422 55<101.928 194.425> 625 61<129.177 339.934>
VStem: 54 29<503.694 581.037> 606 24<126.641 195.889>
DStem2: 54 57 43 -12 0.65604 0.754726<-78.253 -5.87886 65.3483 404.501 476.543 724.715>
AnchorPoint: "top" 323 732 basechar 0
LayerCount: 3
Fore
SplineSet
158 477 m 0
 198 477 191 510 206 510 c 0
 212 510 218 502 218 491 c 0
 218 446 183 422 145 422 c 0
 109 422 54 447 54 525 c 0
 54 597 102 686 212 686 c 0
 297 686 356 654 518 654 c 0
 548 654 573 657 586 665 c 0
 614 683 616 696 628 696 c 0
 632 696 640 694 640 684 c 0
 640 676 635 670 628 661 c 2
 395 392 l 1
 478 392 l 1
 476 360 l 1
 367 360 l 1
 126 81 l 1
 126 81 171 87 193 87 c 0
 265 87 411 63 485 63 c 0
 577 63 606 134 606 176 c 0
 606 183 605 189 604 194 c 1
 621 199 l 1
 621 199 630 177 630 156 c 0
 630 92 608 -16 477 -16 c 0
 394 -16 232 21 161 21 c 0
 82 21 68 19 43 -12 c 0
 34 -23 28 -26 21 -26 c 0
 10 -26 8 -15 8 -7 c 0
 8 -1 22 20 54 57 c 2
 322 360 l 1
 240 360 l 1
 243 392 l 1
 350 392 l 1
 534 600 l 1
 534 600 489 595 439 595 c 0
 334 595 256 625 184 625 c 0
 116 625 83 575 83 537 c 0
 83 500 125 477 158 477 c 0
EndSplineSet
Position2: "'cpsp' Capital Spacing in Latin lookup 2 subtable" dx=4 dy=0 dh=8 dv=0
EndChar

StartChar: period
Encoding: 46 46 54
Width: 254
VWidth: 0
Flags: W
HStem: -10 96<80.9705 144.508>
VStem: 65 95<4.92969 70.5159>
LayerCount: 3
Fore
SplineSet
65 41 m 0
 65 56 102 86 113 86 c 0
 133 86 160 48 160 36 c 0
 160 19 125 -10 110 -10 c 0
 98 -10 65 23 65 41 c 0
EndSplineSet
EndChar

StartChar: hyphen
Encoding: 45 45 55
Width: 294
VWidth: 0
Flags: W
HStem: 241 133
VStem: 24 247
DStem2: 24 301 24 241 0.958994 0.283427<0 240.273>
LayerCount: 3
Fore
SplineSet
24 241 m 25
 24 301 l 25
 271 374 l 25
 271 313 l 25
 24 241 l 25
EndSplineSet
EndChar

StartChar: comma
Encoding: 44 44 56
Width: 242
VWidth: 0
Flags: W
HStem: -146 223
VStem: 105 59<-81.7627 9.04013>
LayerCount: 3
Fore
SplineSet
35 -132 m 0
 35 -113 105 -105 105 -32 c 0
 105 16 62 12 62 30 c 0
 62 46 100 77 108 77 c 0
 111 77 164 71 164 -2 c 0
 164 -43 143 -92 119 -115 c 0
 93 -140 59 -146 48 -146 c 0
 35 -146 35 -135 35 -132 c 0
EndSplineSet
Layer: 2
SplineSet
34.66796875 -132.32421875 m 4
 34.66796875 -113.76953125 105.46875 -104.98046875 105.46875 -31.73828125 c 4
 105.46875 16.6015625 62.5 11.71875 62.5 29.78515625 c 4
 62.5 45.41015625 100.5859375 77.1484375 108.3984375 77.1484375 c 5
 112.79296875 76.66015625 164.0625 70.80078125 164.0625 -2.44140625 c 4
 164.0625 -43.45703125 142.578125 -92.28515625 118.65234375 -115.234375 c 4
 92.28515625 -140.13671875 58.59375 -145.99609375 47.8515625 -145.99609375 c 4
 35.15625 -145.99609375 34.66796875 -135.25390625 34.66796875 -132.32421875 c 4
EndSplineSet
EndChar

StartChar: exclam
Encoding: 33 33 57
Width: 254
VWidth: 0
Flags: W
HStem: -9 94<81.0633 139.858>
VStem: 69 85<5.33283 72.4416> 104 34<159.148 321.84> 118 78<470.211 618.676>
LayerCount: 3
Fore
SplineSet
69 38 m 0xc0
 69 57 100 85 113 85 c 0
 130 85 154 53 154 38 c 0
 154 26 125 -9 107 -9 c 0
 92 -9 69 26 69 38 c 0xc0
119 159 m 0
 110 159 104 167 104 187 c 0xa0
 104 207 118 443 118 591 c 0
 118 613 136 618 172 632 c 0
 177 634 183 636 187 636 c 0
 193 636 196 633 196 625 c 0x90
 196 600 183 534 138 213 c 0xa0
 133 178 135 159 119 159 c 0
EndSplineSet
Position2: "'cpsp' Capital Spacing in Latin lookup 2 subtable" dx=4 dy=0 dh=8 dv=0
EndChar

StartChar: question
Encoding: 63 63 58
Width: 368
VWidth: 0
Flags: W
HStem: -9 94<133.063 190.631> 604 63<140.603 245.719>
VStem: 104 52<177.817 275.646> 121 84<4.44037 72.4416> 277 64<482.964 564.806>
LayerCount: 3
Fore
SplineSet
341 486 m 0xe8
 341 422 156 307 156 220 c 0
 156 180 178 167 178 157 c 0
 178 150 172 146 165 146 c 0
 149 146 104 181 104 257 c 0
 104 356 277 447 277 548 c 0
 277 584 247 604 217 604 c 0
 201 604 160 594 132 594 c 0
 123 594 119 597 119 606 c 0
 119 622 145 667 189 667 c 0
 238 667 341 586 341 486 c 0xe8
121 38 m 0xd8
 121 57 152 85 165 85 c 0
 182 85 205 53 205 38 c 0
 205 26 177 -9 159 -9 c 0
 144 -9 121 26 121 38 c 0xd8
EndSplineSet
Position2: "'cpsp' Capital Spacing in Latin lookup 2 subtable" dx=4 dy=0 dh=8 dv=0
EndChar

StartChar: semicolon
Encoding: 59 59 59
Width: 254
VWidth: 0
Flags: W
HStem: 302 94<113.063 170.631>
VStem: 101 84<315.44 383.442> 103 43<-78.5778 34>
LayerCount: 3
Fore
SplineSet
101 349 m 0xc0
 101 368 132 396 145 396 c 0
 162 396 185 364 185 349 c 0
 185 337 157 302 139 302 c 0
 124 302 101 337 101 349 c 0xc0
103 -27 m 0xa0
 103 16 60 3 60 27 c 0
 60 59 98 86 111 86 c 0
 132 86 146 55 146 13 c 0
 146 -75 83 -154 59 -154 c 0
 45 -154 43 -143 43 -138 c 0
 43 -122 103 -88 103 -27 c 0xa0
EndSplineSet
EndChar

StartChar: colon
Encoding: 58 58 60
Width: 254
VWidth: 0
Flags: W
HStem: -9 94<86.0633 144.858> 302 94<113.063 170.631>
VStem: 74 85<5.33283 72.4416> 101 84<315.44 383.442>
LayerCount: 3
Fore
SplineSet
101 349 m 0xd0
 101 368 132 396 145 396 c 0
 162 396 185 364 185 349 c 0
 185 337 157 302 139 302 c 0
 124 302 101 337 101 349 c 0xd0
74 38 m 0xe0
 74 57 105 85 118 85 c 0
 135 85 159 53 159 38 c 0
 159 26 130 -9 112 -9 c 0
 97 -9 74 26 74 38 c 0xe0
EndSplineSet
EndChar

StartChar: emdash
Encoding: 8212 8212 61
Width: 1000
VWidth: 488
Flags: W
HStem: 264 43<0 1000>
LayerCount: 3
Fore
SplineSet
0 264 m 1
 0 307 l 1
 1000 307 l 1
 1000 264 l 1
 0 264 l 1
EndSplineSet
EndChar

StartChar: endash
Encoding: 8211 8211 62
Width: 500
VWidth: 488
Flags: W
HStem: 264 43<0 500>
LayerCount: 3
Fore
SplineSet
0 264 m 1
 0 307 l 1
 500 307 l 1
 500 264 l 1
 0 264 l 1
EndSplineSet
EndChar

StartChar: afii00208
Encoding: 8213 8213 63
Width: 1000
VWidth: 488
Flags: W
HStem: 264 43<0 1000>
LayerCount: 3
Fore
SplineSet
0 264 m 1
 0 307 l 1
 1000 307 l 1
 1000 264 l 1
 0 264 l 1
EndSplineSet
EndChar

StartChar: quoteleft
Encoding: 8216 8216 64
Width: 243
VWidth: 0
Flags: HW
HStem: 468 212<136 179>
VStem: 69 60<542.261 615.925>
AnchorPoint: "l;s;quote" 136 589 basechar 0
AnchorPoint: "r;s;quote" 307 589 basechar 0
AnchorPoint: "l;x" 0 376 basechar 0
AnchorPoint: "l;hi" 0 684 basechar 0
AnchorPoint: "l;o" 0 195 basechar 0
AnchorPoint: "r;x" 243 376 basechar 0
AnchorPoint: "r;hi" 243 684 basechar 0
AnchorPoint: "r;o" 243 195 basechar 0
LayerCount: 3
Fore
SplineSet
69 545 m 0
 69 628 150 680 179 680 c 0
 186 680 190 676 190 670 c 0
 190 646 129 643 129 581 c 0
 129 531 180 540 180 524 c 0
 180 522 178 519 176 515 c 2
 151 479 l 2
 149 476 142 468 136 468 c 0
 131 468 122 472 107 481 c 0
 86 494 69 501 69 545 c 0
EndSplineSet
EndChar

StartChar: quotesinglbase
Encoding: 8218 8218 65
Width: 243
VWidth: 0
Flags: HW
HStem: -127 211<81 124>
VStem: 131 59<-64.2699 11.0149>
AnchorPoint: "l;s;quote" 124 589 basechar 0
AnchorPoint: "r;s;quote" 294 589 basechar 0
AnchorPoint: "l;bl" 0 15 basechar 0
AnchorPoint: "l;o" 0 195 basechar 0
AnchorPoint: "l;lo" 0 -244 basechar 0
AnchorPoint: "r;bl" 243 15 basechar 0
AnchorPoint: "r;o" 243 195 basechar 0
AnchorPoint: "r;lo" 243 -244 basechar 0
LayerCount: 3
Fore
SplineSet
69 -118 m 0
 69 -94 131 -90 131 -28 c 0
 131 22 80 12 80 28 c 0
 80 30 82 34 84 38 c 2
 108 73 l 2
 110 76 118 84 124 84 c 0
 129 84 137 80 152 71 c 0
 173 58 190 51 190 7 c 0
 190 -76 110 -127 81 -127 c 0
 74 -127 69 -124 69 -118 c 0
EndSplineSet
EndChar

StartChar: quotedblleft
Encoding: 8220 8220 66
Width: 414
VWidth: 0
Flags: HW
HStem: 468 212<136 179 307 350>
VStem: 69 60<542.261 615.925> 240 60<542.261 615.925>
AnchorPoint: "r;hi" 414 684 basechar 0
AnchorPoint: "r;s;quote" 478 589 basechar 0
AnchorPoint: "l;x" 0 376 basechar 0
AnchorPoint: "r;o" 414 195 basechar 0
AnchorPoint: "l;s;quote" 136 589 basechar 0
AnchorPoint: "l;o" 0 195 basechar 0
AnchorPoint: "l;hi" 0 684 basechar 0
AnchorPoint: "r;x" 414 376 basechar 0
LayerCount: 3
Fore
Refer: 64 8216 N 1 0 0 1 171 0 2
Refer: 64 8216 N 1 0 0 1 0 0 2
Layer: 2
SplineSet
69.3359375 545.41015625 m 4
 69.3359375 628.90625 149.4140625 679.6875 178.7109375 679.6875 c 4
 186.03515625 679.6875 190.4296875 676.26953125 190.4296875 670.41015625 c 4
 190.4296875 645.99609375 128.90625 642.578125 128.90625 580.56640625 c 4
 128.90625 530.76171875 179.6875 540.0390625 179.6875 523.92578125 c 4
 179.6875 521.484375 178.22265625 518.5546875 175.78125 514.6484375 c 6
 151.3671875 479.4921875 l 6
 149.4140625 476.5625 142.08984375 467.7734375 136.23046875 467.7734375 c 4
 130.859375 467.7734375 122.0703125 472.16796875 107.421875 481.4453125 c 4
 86.42578125 494.62890625 69.3359375 501.46484375 69.3359375 545.41015625 c 4
240.234375 545.41015625 m 4
 240.234375 628.90625 320.3125 679.6875 349.609375 679.6875 c 4
 356.93359375 679.6875 361.328125 676.26953125 361.328125 670.41015625 c 4
 361.328125 645.99609375 299.8046875 642.578125 299.8046875 580.56640625 c 4
 299.8046875 530.76171875 350.5859375 540.0390625 350.5859375 523.92578125 c 4
 350.5859375 521.484375 349.12109375 518.5546875 346.6796875 514.6484375 c 6
 322.265625 479.4921875 l 6
 320.3125 476.5625 312.98828125 467.7734375 307.12890625 467.7734375 c 4
 301.7578125 467.7734375 292.96875 472.16796875 278.3203125 481.4453125 c 4
 257.32421875 494.62890625 240.234375 501.46484375 240.234375 545.41015625 c 4
EndSplineSet
EndChar

StartChar: oe
Encoding: 339 339 69
Width: 493
VWidth: 0
Flags: HW
HStem: -12 38<119.492 176.674> -4 65<297 368.354> 355 43<347.368 414.5> 369 32<156.591 213.78>
VStem: 20 67<60.9375 241.877> 245 43<121.505 184.557 191 303.564> 404 68<306 361>
AnchorPoint: "r;o" 493 195 basechar 0
AnchorPoint: "r;x" 493 376 basechar 0
AnchorPoint: "r;bl" 473 15 basechar 0
AnchorPoint: "l;o" 0 195 basechar 0
AnchorPoint: "l;x" 20 376 basechar 0
AnchorPoint: "l;bl" 0 15 basechar 0
LayerCount: 3
Fore
SplineSet
184 369 m 0x9e
 145 369 87 276 87 170 c 0
 87 94 112 26 151 26 c 0
 198 26 245 145 245 238 c 0
 245 289 228 369 184 369 c 0x9e
463 123 m 1
 478 100 l 1
 478 100 370 -4 306 -4 c 0x6e
 288 -4 247 8 236 80 c 1
 209 24 166 -12 123 -12 c 0
 61 -12 20 52 20 128 c 0
 20 254 89 325 100 338 c 0
 125 367 166 401 209 401 c 0x9e
 264 401 274 347 280 307 c 1
 301 352 329 365 353 380 c 0
 374 393 396 398 406 398 c 0
 423 398 472 369 472 353 c 0
 472 342 373 232 289 169 c 1
 289 156 291 61 352 61 c 0x6e
 399 61 448 109 463 123 c 1
364 355 m 0
 334 355 288 298 288 199 c 2
 288 191 l 1
 294 197 404 299 404 313 c 0
 404 345 378 355 364 355 c 0
EndSplineSet
Layer: 2
SplineSet
184 369 m 4x9e
 145 369 87 276 87 170 c 4
 87 94 112 26 151 26 c 4
 198 26 245 145 245 238 c 4
 245 289 228 369 184 369 c 4x9e
463 123 m 5
 478 100 l 5
 478 100 370 -4 306 -4 c 4x6e
 288 -4 247 13 236 70 c 5
 206 21 166 -12 123 -12 c 4
 61 -12 20 52 20 128 c 4
 20 254 89 325 100 338 c 4
 125 367 166 401 209 401 c 4x9e
 264 401 282 363 288 323 c 5
 308 355 329 365 353 380 c 4
 374 393 396 398 406 398 c 4
 423 398 472 369 472 353 c 4
 472 342 373 232 289 169 c 5
 289 156 291 61 352 61 c 4x6e
 399 61 448 109 463 123 c 5
364 355 m 4
 334 355 288 298 288 199 c 6
 288 191 l 5
 294 197 404 299 404 313 c 4
 404 345 378 355 364 355 c 4
EndSplineSet
EndChar

StartChar: ae
Encoding: 230 230 70
Width: 489
VWidth: 0
Flags: HW
HStem: -11 70<64 118.86> -4 65<291.5 364.354> 355 45<166.756 222.145 352.803 410.5>
VStem: 25 51<67.2474 216.225> 231 54<83.4304 175.827> 245 39<219.308 297.856> 268 51<355.333 411.996> 400 68<306 361>
AnchorPoint: "r;o" 489 195 basechar 0
AnchorPoint: "r;x" 489 376 basechar 0
AnchorPoint: "r;bl" 469 15 basechar 0
AnchorPoint: "l;o" 0 195 basechar 0
AnchorPoint: "l;x" 20 376 basechar 0
AnchorPoint: "l;bl" 0 15 basechar 0
LayerCount: 3
Fore
SplineSet
245 290 m 0xb5
 245 321 204 355 184 355 c 0
 149 355 76 235 76 131 c 0
 76 86 98 59 113 59 c 0
 152 59 245 230 245 290 c 0xb5
74 -11 m 0
 54 -11 25 7 25 99 c 0
 25 185 44 222 88 293 c 0
 104 319 175 400 207 400 c 0
 236 400 256 327 256 327 c 1
 268 395 l 2
 271 412 285 412 291 412 c 2
 301 412 l 2
 316 412 319 411 319 400 c 0xb3
 319 396 302 351 295 325 c 1
 322 361 372 398 402 398 c 0
 419 398 468 369 468 353 c 0
 468 342 369 232 285 169 c 1
 285 156 287 61 348 61 c 0
 395 61 444 109 459 123 c 1
 474 100 l 1
 474 100 366 -4 302 -4 c 0
 281 -4 231 19 231 101 c 0x79
 231 126 231 152 235 177 c 1
 215 130 188 84 156 44 c 0
 131 14 90 -11 74 -11 c 0
360 355 m 0
 330 355 284 298 284 199 c 2
 284 191 l 1x35
 290 197 400 299 400 313 c 0
 400 345 374 355 360 355 c 0
EndSplineSet
Layer: 2
SplineSet
245 290 m 4xb5
 245 321 204 355 184 355 c 4
 149 355 76 235 76 131 c 4
 76 86 98 59 113 59 c 4
 152 59 245 230 245 290 c 4xb5
74 -11 m 4
 54 -11 25 7 25 99 c 4
 25 185 44 222 88 293 c 4
 104 319 175 400 207 400 c 4
 243 400 258 339 258 339 c 5
 268 395 l 6
 271 412 285 412 291 412 c 6
 301 412 l 6
 316 412 319 411 319 400 c 4xb3
 319 396 312 376 305 350 c 5
 319 363 333 370 349 380 c 4
 370 393 392 398 402 398 c 4
 419 398 468 369 468 353 c 4
 468 342 369 232 285 169 c 5
 285 156 287 61 348 61 c 4
 395 61 444 109 459 123 c 5
 474 100 l 5
 474 100 366 -4 302 -4 c 4
 281 -4 229 19 229 101 c 4x79
 229 126 231 152 235 177 c 5
 215 130 188 84 156 44 c 4
 131 14 90 -11 74 -11 c 4
360 355 m 4
 330 355 284 298 284 199 c 6
 284 191 l 5x35
 290 197 400 299 400 313 c 4
 400 345 374 355 360 355 c 4
EndSplineSet
EndChar

StartChar: f_i
Encoding: 65537 -1 71
Width: 463
VWidth: 0
Flags: HW
HStem: -258 35<-24.5 48.3978> -5 21G<304.5 317.5> 360 32<35 105 166 318.547> 664 39<230.739 323.661>
VStem: 293 68<14.2305 248.853> 319 65<137.406 388.5>
DStem2: 59.6444 -258 123.225 -258 0.0697565 0.997564<124.535 619.658 655.836 859.898>
AnchorPoint: "r;o" 463 195 basechar 0
AnchorPoint: "r;x" 453 376 basechar 0
AnchorPoint: "r;bl" 438 15 basechar 0
AnchorPoint: "l;k;lo" -74 -244 basechar 0
AnchorPoint: "l;o" 0 195 basechar 0
AnchorPoint: "l;x" 0 376 basechar 0
AnchorPoint: "l;bl" 0 15 basechar 0
LayerCount: 3
Back
SplineSet
320.4765625 702.63671875 m 0
 384.9296875 702.63671875 394.6953125 670.8984375 394.6953125 649.90234375 c 0
 394.6953125 630.37109375 383.953125 612.79296875 368.328125 612.79296875 c 0
 332.1953125 612.79296875 334.1484375 663.57421875 282.87890625 663.57421875 c 0
 252.1171875 663.57421875 206.21875 652.34375 189.12890625 587.40234375 c 0
 175.45703125 535.64453125 173.015625 463.37890625 165.69140625 391.6015625 c 1
 276.04296875 391.6015625 l 2
 339.51953125 391.6015625 359.05078125 398.4375 371.74609375 398.4375 c 0
 381.0234375 398.4375 384.44140625 396.484375 384.44140625 379.8828125 c 0
 384.44140625 348.14453125 361.4921875 130.37109375 361.4921875 102.05078125 c 0
 361.4921875 84.47265625 364.91015625 78.61328125 369.79296875 78.61328125 c 0
 384.9296875 78.61328125 436.6875 161.1328125 436.6875 161.1328125 c 1
 453.2890625 147.94921875 l 1
 453.2890625 147.94921875 435.22265625 104.00390625 392.25390625 59.08203125 c 0
 372.72265625 38.57421875 324.3828125 -5.37109375 309.734375 -5.37109375 c 0
 298.9921875 -5.37109375 293.1328125 0.9765625 293.1328125 16.6015625 c 0
 293.1328125 40.0390625 319.5 247.55859375 319.5 336.9140625 c 0
 319.5 345.703125 316.5703125 359.86328125 307.78125 359.86328125 c 2
 163.73828125 359.86328125 l 1
 156.046875 249.81640625 151.53125 156.73828125 146.6484375 79.1015625 c 0
 131.0234375 -164.0625 113.192382812 -257.8125 -6.671875 -257.8125 c 0
 -41.828125 -257.8125 -75.51953125 -240.72265625 -75.51953125 -205.078125 c 0
 -75.51953125 -184.08203125 -64.77734375 -161.1328125 -44.7578125 -161.1328125 c 0
 -25.71484375 -161.1328125 -19.85546875 -179.6875 -10.578125 -195.80078125 c 0
 -1.7890625 -210.44921875 10.41796875 -223.14453125 26.53125 -223.14453125 c 0
 64.12890625 -223.14453125 68.03515625 -136.23046875 82.68359375 76.171875 c 0
 88.0546875 153.3203125 94.40234375 247.55859375 104.65625 359.86328125 c 1
 35.3203125 359.86328125 l 1
 35.3203125 391.6015625 l 1
 106.609375 391.6015625 l 1
 120.28125 521.97265625 118.328125 542.48046875 132.9765625 581.0546875 c 0
 156.4140625 643.5546875 222.33203125 702.63671875 320.4765625 702.63671875 c 0
EndSplineSet
Fore
SplineSet
164 360 m 1xf4
 156 252 152 160 147 82 c 0
 132 -158 115 -258 -7 -258 c 0
 -42 -258 -76 -241 -76 -205 c 0
 -76 -184 -65 -161 -45 -161 c 0
 -26 -161 -20 -180 -11 -196 c 0
 -2 -211 11 -223 27 -223 c 0
 65 -223 68 -136 83 76 c 0
 88 153 95 248 105 360 c 1
 35 360 l 1
 35 392 l 1
 107 392 l 1
 121 522 118 542 133 581 c 0
 156 643 222 703 320 703 c 0
 382 703 395 671 395 650 c 0
 395 630 384 613 368 613 c 0
 333 613 332 664 283 664 c 0
 252 664 206 652 189 587 c 0
 175 535 173 464 166 392 c 1
 276 392 l 2
 339 392 359 398 372 398 c 0
 381 398 384 397 384 380 c 0xf4
 384 348 361 130 361 102 c 0
 361 84 365 79 370 79 c 0
 385 79 437 161 437 161 c 1
 453 148 l 1
 453 148 435 104 392 59 c 0
 372 38 325 -5 310 -5 c 0
 299 -5 293 1 293 17 c 0xf8
 293 40 319 248 319 337 c 0
 319 346 317 360 308 360 c 2
 164 360 l 1xf4
EndSplineSet
Ligature2: "'liga' Standard Ligatures in Latin lookup 14 subtable" f i
LCarets2: 1 0 
EndChar

StartChar: f_l
Encoding: 65538 -1 72
Width: 468
VWidth: 0
Flags: HW
HStem: -258 35<-24.5 47.8282> -10 21G<310.5 320> 360 32<35 105 166 239> 661 41<223.408 311.164>
VStem: 300 66<10.0959 209.5>
DStem2: 59.6444 -258 122.644 -258 0.0697565 0.997564<113.765 619.658 655.836 859.8>
AnchorPoint: "r;bl" 438 15 basechar 0
AnchorPoint: "r;x" 453 376 basechar 0
AnchorPoint: "r;hi" 423 684 basechar 0
AnchorPoint: "r;o" 468 195 basechar 0
AnchorPoint: "l;bl" 0 15 basechar 0
AnchorPoint: "l;x" 0 376 basechar 0
AnchorPoint: "l;o" 0 195 basechar 0
AnchorPoint: "l;k;lo" -74 -244 basechar 0
LayerCount: 3
Fore
SplineSet
336 619 m 5
 307 638 304 661 268 661 c 0
 227 661 195 616 184 554 c 0
 176 507 172 449 166 392 c 1
 241 392 l 1
 239 360 l 1
 164 360 l 1
 156 249 151 154 146 76 c 0
 131 -165 112 -258 -7 -258 c 0
 -42 -258 -76 -241 -76 -205 c 0
 -76 -184 -65 -161 -45 -161 c 0
 -26 -161 -20 -180 -11 -196 c 0
 -2 -211 11 -223 27 -223 c 0
 65 -223 68 -136 83 76 c 0
 88 153 95 248 105 360 c 1
 35 360 l 1
 35 392 l 1
 106 392 l 1
 116 490 114 586 174 646 c 0
 206 678 253 702 302 702 c 0
 342 702 367 686 367 686 c 1
 367 686 395 708 404 708 c 0
 412 708 413 702 412 694 c 0
 390 479 366 113 366 98 c 0
 366 91 367 79 374 79 c 0
 393 79 442 166 442 166 c 1
 464 150 l 1
 464 150 412 48 344 0 c 0
 333 -8 323 -10 317 -10 c 0
 304 -10 300 3 300 20 c 0
 300 33 303 48 304 67 c 4
 313 236 321 388 328 491 c 6
 336 619 l 5
EndSplineSet
Layer: 2
SplineSet
336 619 m 5
 307 638 304 661 268 661 c 4
 227 661 195 616 184 554 c 4
 176 507 172 449 166 392 c 5
 241 392 l 5
 239 360 l 5
 164 360 l 5
 156 249 151 154 146 76 c 4
 131 -165 112 -258 -7 -258 c 4
 -42 -258 -76 -241 -76 -205 c 4
 -76 -184 -65 -161 -45 -161 c 4
 -26 -161 -20 -180 -11 -196 c 4
 -2 -211 11 -223 27 -223 c 4
 65 -223 68 -136 83 76 c 4
 88 153 95 248 105 360 c 5
 35 360 l 5
 35 392 l 5
 106 392 l 5
 116 490 114 586 174 646 c 4
 206 678 253 702 302 702 c 4
 342 702 367 686 367 686 c 5
 367 686 395 708 404 708 c 4
 412 708 413 702 412 694 c 4
 390 479 366 113 366 98 c 4
 366 91 367 79 374 79 c 4
 393 79 442 166 442 166 c 5
 464 150 l 5
 464 150 412 48 344 0 c 4
 333 -8 323 -10 317 -10 c 4
 304 -10 300 3 300 20 c 4
 300 33 303 48 304 67 c 4
 320 362 336 619 336 619 c 5
EndSplineSet
Ligature2: "'liga' Standard Ligatures in Latin lookup 14 subtable" f l
LCarets2: 1 0 
EndChar

StartChar: f_f
Encoding: 65539 -1 73
Width: 483
VWidth: 0
Flags: HW
HStem: -258 35<-24.5 48.97> -229 37<211.792 272.75> 360 32<35 105 166 326 387 461> 631 39<224.298 316.799> 661 41<448.535 555>
DStem2: 59.6444 -258 123.197 -258 0.0697565 0.997564<154.903 619.658 655.836 829.246> 280.197 -258 344.197 -258 0.0697565 0.997564<148.657 619.69 655.867 781.644>
AnchorPoint: "r;bl" 453 15 basechar 0
AnchorPoint: "r;o" 473 195 basechar 0
AnchorPoint: "r;k;hi" 593 684 basechar 0
AnchorPoint: "r;x" 483 376 basechar 0
AnchorPoint: "l;bl" 0 15 basechar 0
AnchorPoint: "l;x" 0 376 basechar 0
AnchorPoint: "l;o" 0 195 basechar 0
AnchorPoint: "l;k;lo" -74 -244 basechar 0
LayerCount: 3
Fore
SplineSet
164 360 m 1x68
 157 265 153 182 149 111 c 0
 133 -154 118 -258 -7 -258 c 0
 -42 -258 -76 -241 -76 -205 c 0
 -76 -184 -65 -161 -45 -161 c 0
 -26 -161 -20 -180 -11 -196 c 0
 -2 -211 11 -223 27 -223 c 0
 65 -223 68 -136 83 76 c 0
 88 153 95 248 105 360 c 1
 35 360 l 1
 35 392 l 1
 106 392 l 1
 109 418 110 443 112 468 c 0
 129 643 253 670 306 670 c 0xb0
 363 670 381 629 381 629 c 1
 381 629 389 640 395 646 c 0
 427 678 484 702 533 702 c 4
 577 702 594 674 594 650 c 4
 594 630 584 613 568 613 c 4
 557 613 548 620 540 629 c 4
 519 651 502 661 485 661 c 4
 442 661 411 597 401 519 c 0
 396 479 391 435 387 392 c 1
 463 392 l 1
 461 360 l 1
 385 360 l 1
 378 260 374 178 370 111 c 0
 360 -63 352 -138 309 -188 c 0
 287 -213 248 -229 215 -229 c 0
 181 -229 153 -214 153 -179 c 0
 153 -160 164 -143 180 -143 c 0
 211 -143 202 -192 243 -192 c 0
 264 -192 281 -175 290 -123 c 0
 296 -91 297 -25 306 111 c 0
 310 176 317 258 326 360 c 1
 164 360 l 1x68
355 586 m 2
 342 586 309 631 266 631 c 0
 191 631 178 524 173 468 c 2
 166 392 l 1
 327 392 l 1
 334 462 336 530 357 586 c 1
 355 586 l 2
EndSplineSet
Ligature2: "'liga' Standard Ligatures in Latin lookup 14 subtable" f f
LCarets2: 1 0 
EndChar

StartChar: f_f_i
Encoding: 65540 -1 74
Width: 686
VWidth: 0
Flags: HW
HStem: -258 35<-24.5 49.3603> -229 37<211.792 272.75> -5 21G<527.5 540.5> 360 32<35 105 166 326 387 541.547> 631 39<224.298 316.799> 661 41<449.699 542.521>
VStem: 516 68<14.2305 248.853> 542 65<137.406 388.5>
DStem2: 59.6444 -258 123.197 -258 0.0697565 0.997564<149.652 619.658 655.836 829.246> 280.197 -258 344.197 -258 0.0697565 0.997564<150.599 619.69 655.867 844.607>
AnchorPoint: "r;bl" 661 15 basechar 0
AnchorPoint: "r;x" 676 376 basechar 0
AnchorPoint: "r;o" 686 195 basechar 0
AnchorPoint: "l;bl" 0 15 basechar 0
AnchorPoint: "l;x" 0 376 basechar 0
AnchorPoint: "l;o" 0 195 basechar 0
AnchorPoint: "l;k;lo" -74 -244 basechar 0
LayerCount: 3
Fore
SplineSet
531 360 m 2x35
 385 360 l 1
 378 259 374 177 370 111 c 0
 359 -68 351 -139 309 -188 c 0
 287 -213 248 -229 215 -229 c 0
 181 -229 153 -214 153 -179 c 0
 153 -160 164 -143 180 -143 c 0
 211 -143 202 -192 243 -192 c 0x75
 264 -192 281 -175 290 -123 c 0
 296 -91 296 -33 306 111 c 0
 310 175 317 256 326 360 c 1
 164 360 l 1
 157 265 153 182 149 111 c 0
 134 -149 120 -258 -7 -258 c 0
 -42 -258 -76 -241 -76 -205 c 0
 -76 -184 -65 -161 -45 -161 c 0
 -26 -161 -20 -180 -11 -196 c 0
 -2 -211 11 -223 27 -223 c 0
 65 -223 68 -136 83 76 c 0
 88 153 95 248 105 360 c 1
 35 360 l 1
 35 392 l 1
 106 392 l 1
 109 418 110 443 112 468 c 0
 129 643 253 670 306 670 c 0xb9
 363 670 381 629 381 629 c 1
 381 629 389 640 395 646 c 0
 427 678 486 702 538 702 c 0
 582 702 609 674 609 650 c 0
 609 630 599 613 583 613 c 0
 552 613 551 661 489 661 c 0
 438 661 411 597 401 519 c 0
 396 479 391 435 387 392 c 1
 499 392 l 2
 562 392 582 398 595 398 c 0
 604 398 607 397 607 380 c 0x35
 607 348 584 130 584 102 c 0
 584 84 588 79 593 79 c 0
 608 79 660 161 660 161 c 1
 676 148 l 1
 676 148 658 104 615 59 c 0
 595 38 548 -5 533 -5 c 0
 522 -5 516 1 516 17 c 0x36
 516 40 542 248 542 337 c 0
 542 346 540 360 531 360 c 2x35
355 586 m 2
 342 586 309 631 266 631 c 0x38
 191 631 178 524 173 468 c 2
 166 392 l 1
 327 392 l 1
 334 462 336 530 357 586 c 1
 355 586 l 2
EndSplineSet
Layer: 2
SplineSet
583 613 m 4x35
 552 613 551 661 489 661 c 4
 438 661 411 597 401 519 c 4
 396 479 391 435 387 392 c 5
 499 392 l 6
 562 392 581 398 594 398 c 4
 603 398 607 397 607 380 c 4x35
 607 348 584 130 584 102 c 4
 584 84 587 79 592 79 c 4
 607 79 659 161 659 161 c 5
 676 148 l 5
 676 148 658 104 615 59 c 4
 595 38 547 -5 532 -5 c 4
 521 -5 516 1 516 17 c 4x36
 516 40 542 248 542 337 c 4
 542 346 539 360 530 360 c 6
 385 360 l 5
 378 259 374 177 370 111 c 4
 359 -68 351 -139 309 -188 c 4
 287 -213 248 -229 215 -229 c 4
 181 -229 153 -214 153 -179 c 4
 153 -160 164 -143 180 -143 c 4
 211 -143 202 -192 243 -192 c 4x75
 264 -192 281 -175 290 -123 c 4
 296 -91 296 -33 306 111 c 4
 310 175 317 256 326 360 c 5
 164 360 l 5
 157 265 153 182 149 111 c 4
 134 -149 120 -258 -7 -258 c 4
 -42 -258 -76 -241 -76 -205 c 4
 -76 -184 -65 -161 -45 -161 c 4
 -26 -161 -20 -180 -11 -196 c 4
 -2 -211 11 -223 27 -223 c 4
 65 -223 68 -136 83 76 c 4
 88 153 95 248 105 360 c 5
 35 360 l 5
 35 392 l 5
 106 392 l 5
 109 418 110 443 112 468 c 4
 129 643 253 670 306 670 c 4xb9
 363 670 381 629 381 629 c 5
 381 629 389 640 395 646 c 4
 427 678 486 702 538 702 c 4
 582 702 609 674 609 650 c 4
 609 630 599 613 583 613 c 4x35
355 586 m 6
 342 586 309 631 266 631 c 4x38
 191 631 178 524 173 468 c 6
 166 392 l 5
 327 392 l 5
 334 462 336 530 357 586 c 5
 355 586 l 6
EndSplineSet
Ligature2: "'liga' Standard Ligatures in Latin lookup 14 subtable" f f i
LCarets2: 2 0 0 
EndChar

StartChar: f_f_l
Encoding: 65541 -1 75
Width: 690
VWidth: 0
Flags: HW
HStem: -258 35<-24.5 48.7514> -229 37<211.792 272.75> -10 21G<532.5 542> 360 32<35 105 166 326 387 461> 631 39<224.298 316.799> 661 41<445.181 531.777>
VStem: 522 66<10.0959 209.5>
DStem2: 59.6444 -258 122.805 -258 0.0697565 0.997564<127.23 619.658 655.836 829.246> 280.56 -258 343.805 -258 0.0697565 0.997564<125.978 619.664 655.842 844.581>
AnchorPoint: "r;o" 690 195 basechar 0
AnchorPoint: "r;hi" 645 684 basechar 0
AnchorPoint: "r;x" 675 376 basechar 0
AnchorPoint: "r;bl" 660 15 basechar 0
AnchorPoint: "l;bl" 0 15 basechar 0
AnchorPoint: "l;x" 0 376 basechar 0
AnchorPoint: "l;o" 0 195 basechar 0
AnchorPoint: "l;k;lo" -74 -244 basechar 0
LayerCount: 3
Fore
SplineSet
557 619 m 1x36
 528 638 525 661 489 661 c 0
 450 661 421 620 408 564 c 0
 399 524 389 410 387 392 c 1
 463 392 l 1
 461 360 l 1
 385 360 l 1
 377 247 372 159 368 88 c 0
 358 -74 350 -141 309 -188 c 0
 287 -213 248 -229 215 -229 c 0
 181 -229 153 -214 153 -179 c 0
 153 -160 164 -143 180 -143 c 0
 211 -143 202 -192 243 -192 c 0x76
 264 -192 281 -175 290 -123 c 0
 296 -92 297 -39 305 88 c 0
 309 155 315 243 326 360 c 1
 164 360 l 1
 156 255 152 164 147 88 c 0
 132 -155 117 -258 -7 -258 c 0
 -42 -258 -76 -241 -76 -205 c 0
 -76 -184 -65 -161 -45 -161 c 0
 -26 -161 -20 -180 -11 -196 c 0
 -2 -211 11 -223 27 -223 c 0
 65 -223 68 -136 83 76 c 0
 88 153 95 248 105 360 c 1
 35 360 l 1
 35 392 l 1
 106 392 l 1
 109 418 110 443 112 468 c 0
 129 643 253 670 306 670 c 0xba
 363 670 381 629 381 629 c 1
 381 629 389 640 395 646 c 0
 427 678 475 702 524 702 c 0
 564 702 589 686 589 686 c 1
 589 686 617 708 626 708 c 0
 634 708 634 702 633 694 c 0
 611 479 588 113 588 98 c 0
 588 91 589 79 596 79 c 0
 615 79 664 166 664 166 c 1
 685 150 l 1
 685 150 634 48 566 0 c 0
 555 -8 545 -10 539 -10 c 0
 526 -10 522 3 522 20 c 0
 522 33 525 48 526 67 c 0
 535 236 544 388 550 491 c 2
 557 619 l 1x36
355 586 m 2
 342 586 309 631 266 631 c 0x3a
 191 631 178 524 173 468 c 2
 166 392 l 1
 327 392 l 1
 334 462 336 530 357 586 c 1
 355 586 l 2
EndSplineSet
Layer: 2
SplineSet
164 360 m 5x76
 156 255 152 164 147 88 c 4
 132 -155 117 -258 -7 -258 c 4
 -42 -258 -76 -241 -76 -205 c 4
 -76 -184 -65 -161 -45 -161 c 4
 -26 -161 -20 -180 -11 -196 c 4
 -2 -211 11 -223 27 -223 c 4
 65 -223 68 -136 83 76 c 4
 88 153 95 248 105 360 c 5
 35 360 l 5
 35 392 l 5
 106 392 l 5
 109 418 110 443 112 468 c 4
 129 643 253 670 306 670 c 4xba
 363 670 381 629 381 629 c 5
 381 629 389 640 395 646 c 4
 427 678 475 702 524 702 c 4
 564 702 589 686 589 686 c 5
 589 686 617 708 626 708 c 4
 634 708 634 702 633 694 c 4
 611 479 588 113 588 98 c 4
 588 91 589 79 596 79 c 4
 615 79 664 166 664 166 c 5
 685 150 l 5
 685 150 634 48 566 0 c 4
 555 -8 545 -10 539 -10 c 4
 526 -10 522 3 522 20 c 4
 522 33 525 48 526 67 c 6
 557 619 l 5
 528 638 525 661 489 661 c 4
 450 661 421 620 408 564 c 4
 399 524 389 410 387 392 c 5
 463 392 l 5
 461 360 l 5
 385 360 l 5
 377 247 372 159 368 88 c 4
 358 -74 350 -141 309 -188 c 4
 287 -213 248 -229 215 -229 c 4
 181 -229 153 -214 153 -179 c 4
 153 -160 164 -143 180 -143 c 4
 211 -143 202 -192 243 -192 c 4
 264 -192 281 -175 290 -123 c 4
 296 -92 297 -39 305 88 c 4
 309 155 315 243 326 360 c 5
 164 360 l 5x76
355 586 m 6
 342 586 309 631 266 631 c 4
 191 631 178 524 173 468 c 6
 166 392 l 5
 327 392 l 5
 334 462 336 530 357 586 c 5
 355 586 l 6
EndSplineSet
Ligature2: "'liga' Standard Ligatures in Latin lookup 14 subtable" f f l
LCarets2: 2 0 0 
EndChar

StartChar: f_j
Encoding: 65542 -1 76
Width: 445
VWidth: 0
Flags: HW
HStem: -258 35<-24.5 48.3978> -226 37<229.577 277.497> 360 32<35 105 166 318.547> 664 39<230.739 323.661>
VStem: 319 66<133.614 390>
DStem2: 59.6444 -258 123.365 -258 0.0697565 0.997564<118.564 619.658 655.836 859.898>
AnchorPoint: "r;o" 445 195 basechar 0
AnchorPoint: "r;x" 445 376 basechar 0
AnchorPoint: "r;bl" 425 15 basechar 0
AnchorPoint: "l;bl" 0 15 basechar 0
AnchorPoint: "l;x" 0 376 basechar 0
AnchorPoint: "l;o" 0 195 basechar 0
AnchorPoint: "l;k;lo" -74 -244 basechar 0
LayerCount: 3
Fore
SplineSet
283 664 m 0xb8
 252 664 206 652 189 587 c 0
 175 535 173 464 166 392 c 1
 274 392 l 2
 337 392 361 398 374 398 c 4
 383 398 385 395 385 385 c 4
 385 374 372 184 367 92 c 4
 361 -12 359 -67 345 -121 c 0
 320 -221 244 -226 233 -226 c 0
 200 -226 172 -217 172 -179 c 0
 172 -160 183 -143 199 -143 c 0
 229 -143 223 -189 255 -189 c 0x78
 276 -189 286 -165 296 -83 c 0
 312 46 319 287 319 337 c 0
 319 346 317 360 308 360 c 2
 164 360 l 1
 156 251 152 158 147 80 c 0
 132 -156 115 -258 -7 -258 c 0
 -42 -258 -76 -241 -76 -205 c 0
 -76 -184 -65 -161 -45 -161 c 0
 -26 -161 -20 -180 -11 -196 c 0
 -2 -211 11 -223 27 -223 c 0
 65 -223 68 -136 83 76 c 0
 88 153 95 248 105 360 c 1
 35 360 l 1
 35 392 l 1
 107 392 l 1
 121 522 118 542 133 581 c 0
 156 643 222 703 320 703 c 0
 382 703 395 671 395 650 c 0
 395 630 384 613 368 613 c 0
 333 613 332 664 283 664 c 0xb8
EndSplineSet
Ligature2: "'liga' Standard Ligatures in Latin lookup 14 subtable" f j
LCarets2: 1 0 
EndChar

StartChar: f_f_j
Encoding: 65543 -1 77
Width: 667
VWidth: 0
Flags: HW
HStem: -258 35<-24.5 49.3603> -229 37<211.792 272.75 437.064 497.301> 360 32<35 105 166 326 387 540.639> 631 39<224.298 316.799> 661 41<449.699 542.521>
VStem: 541 66<133.614 390>
DStem2: 59.6444 -258 123.197 -258 0.0697565 0.997564<149.652 619.658 655.836 829.246> 280.197 -258 344.197 -258 0.0697565 0.997564<150.599 619.69 655.867 844.607>
AnchorPoint: "r;bl" 647 15 basechar 0
AnchorPoint: "r;x" 667 376 basechar 0
AnchorPoint: "r;o" 667 195 basechar 0
AnchorPoint: "l;bl" 0 15 basechar 0
AnchorPoint: "l;x" 0 376 basechar 0
AnchorPoint: "l;o" 0 195 basechar 0
AnchorPoint: "l;k;lo" -74 -244 basechar 0
LayerCount: 3
Fore
SplineSet
385 360 m 1x2c
 378 259 374 177 370 111 c 0
 359 -68 351 -139 309 -188 c 0
 287 -213 248 -229 215 -229 c 0
 181 -229 153 -214 153 -179 c 0
 153 -160 164 -143 180 -143 c 0
 211 -143 202 -192 243 -192 c 0x6c
 264 -192 281 -175 290 -123 c 0
 296 -91 296 -33 306 111 c 0
 310 175 317 256 326 360 c 1
 164 360 l 1
 157 265 153 182 149 111 c 0
 134 -149 120 -258 -7 -258 c 0
 -42 -258 -76 -241 -76 -205 c 0
 -76 -184 -65 -161 -45 -161 c 0
 -26 -161 -20 -180 -11 -196 c 0
 -2 -211 11 -223 27 -223 c 0
 65 -223 68 -136 83 76 c 0
 88 153 95 248 105 360 c 1
 35 360 l 1
 35 392 l 1
 106 392 l 1
 109 418 110 443 112 468 c 0
 129 643 253 670 306 670 c 0xb4
 363 670 381 629 381 629 c 1
 381 629 389 640 395 646 c 0
 427 678 486 702 538 702 c 0
 582 702 609 674 609 650 c 0
 609 630 599 613 583 613 c 0
 552 613 551 661 489 661 c 0
 438 661 411 597 401 519 c 0
 396 479 391 435 387 392 c 1
 495 392 l 2
 558 392 582 398 595 398 c 4
 604 398 607 395 607 385 c 4
 607 374 594 184 589 92 c 4
 583 -12 581 -67 567 -121 c 0
 542 -221 465 -226 454 -226 c 0
 421 -226 394 -217 394 -179 c 0
 394 -160 405 -143 421 -143 c 0
 451 -143 445 -189 477 -189 c 0
 498 -189 507 -165 517 -83 c 0
 533 46 541 287 541 337 c 0
 541 358 533 360 524 360 c 2
 385 360 l 1x2c
355 586 m 2
 342 586 309 631 266 631 c 0x34
 191 631 178 524 173 468 c 2
 166 392 l 1
 327 392 l 1
 334 462 336 530 357 586 c 1
 355 586 l 2
EndSplineSet
Ligature2: "'liga' Standard Ligatures in Latin lookup 14 subtable" f f j
LCarets2: 2 0 0 
EndChar

StartChar: f_b
Encoding: 65544 -1 78
Width: 574
VWidth: 0
Flags: HW
HStem: -258 35<-24.5 48.005> -4 44<376 427.064> 347 51<445.208 499.048> 360 32<35 105 166 239> 661 41<217.524 300.086>
VStem: 286 54<62.5 268.735> 316 73<496.073 646.149> 506 48<175.437 324.346>
DStem2: 59.6444 -258 122.644 -258 0.0697565 0.997564<113.785 619.658 655.836 859.912>
AnchorPoint: "r;o" 574 195 basechar 0
AnchorPoint: "r;x" 574 376 basechar 0
AnchorPoint: "r;bl" 554 15 basechar 0
AnchorPoint: "l;bl" 0 15 basechar 0
AnchorPoint: "l;x" 0 376 basechar 0
AnchorPoint: "l;o" 0 195 basechar 0
AnchorPoint: "l;k;lo" -74 -244 basechar 0
LayerCount: 3
Fore
SplineSet
413 40 m 0xed
 444 40 506 150 506 239 c 0
 506 300 479 347 452 347 c 0
 432 347 394 315 368 267 c 0
 341 218 340 184 340 135 c 0
 340 73 403 40 413 40 c 0xed
316 627 m 1xeb
 295 643 286 661 256 661 c 0
 184 661 179 527 166 392 c 1
 241 392 l 1
 239 360 l 1
 164 360 l 1
 156 249 151 154 146 76 c 0
 131 -165 113 -258 -7 -258 c 0
 -42 -258 -76 -241 -76 -205 c 0
 -76 -184 -65 -161 -45 -161 c 0
 -26 -161 -20 -180 -11 -196 c 0
 -2 -211 11 -223 27 -223 c 0
 65 -223 68 -136 83 76 c 0
 88 153 95 248 105 360 c 1
 35 360 l 1
 35 392 l 1
 106 392 l 1
 116 490 114 586 174 646 c 0
 211 683 242 702 287 702 c 0
 318 702 345 691 345 691 c 1
 345 691 372 708 381 708 c 0
 387 708 389 704 389 699 c 0
 389 697 386 670 354 360 c 1xdb
 344 270 l 1
 410 366 470 398 501 398 c 0
 515 398 554 384 554 294 c 4
 554 284 543 152 487 78 c 0
 468 53 410 -4 391 -4 c 0
 365 -4 336 19 303 42 c 0
 289 52 286 57 286 68 c 0xed
 286 74 296 208 304 349 c 0
 310 453 316 562 316 627 c 1xeb
EndSplineSet
Ligature2: "'liga' Standard Ligatures in Latin lookup 14 subtable" f b
LCarets2: 1 0 
EndChar

StartChar: f_f_b
Encoding: 65545 -1 79
Width: 796
VWidth: 0
Flags: HW
HStem: -258 35<-24.5 48.7514> -229 37<211.792 272.75> -4 44<596.863 648.591> 347 51<667.208 721.048> 360 32<35 105 166 326 387 461> 631 39<224.298 316.799> 661 41<438.382 520.99>
VStem: 507 54<62.5 267.651> 537 74<498.076 646.149> 728 48<175.437 324.346>
DStem2: 59.6444 -258 122.805 -258 0.0697565 0.997564<127.23 619.658 655.836 829.246> 280.805 -258 343.805 -258 0.0697565 0.997564<125.961 619.647 655.824 844.564>
AnchorPoint: "r;bl" 776 15 basechar 0
AnchorPoint: "r;x" 796 376 basechar 0
AnchorPoint: "r;o" 796 195 basechar 0
AnchorPoint: "l;bl" 0 15 basechar 0
AnchorPoint: "l;x" 0 376 basechar 0
AnchorPoint: "l;o" 0 195 basechar 0
AnchorPoint: "l;k;lo" -74 -244 basechar 0
LayerCount: 3
Back
SplineSet
537.2734375 626.953125 m 5xec
 516.765625 643.06640625 507.48828125 660.64453125 477.703125 660.64453125 c 4
 405.4375 660.64453125 400.5546875 526.85546875 387.37109375 391.6015625 c 5
 463.0546875 391.6015625 l 5
 461.1015625 359.86328125 l 5
 385.41796875 359.86328125 l 5
 377.60546875 248.53515625 372.72265625 154.296875 367.83984375 76.171875 c 4
 352.703125 -164.55078125 334.63671875 -257.8125 215.0078125 -257.8125 c 4
 179.8515625 -257.8125 146.16015625 -240.72265625 146.16015625 -205.078125 c 4
 146.16015625 -184.08203125 156.90234375 -161.1328125 176.921875 -161.1328125 c 4
 195.96484375 -161.1328125 201.82421875 -179.6875 211.1015625 -195.80078125 c 4
 219.890625 -210.44921875 232.09765625 -223.14453125 248.2109375 -223.14453125 c 4
 285.80859375 -223.14453125 289.71484375 -136.23046875 304.36328125 76.171875 c 4
 309.734375 153.3203125 316.08203125 247.55859375 326.3359375 359.86328125 c 5
 257 359.86328125 l 5
 257 391.6015625 l 5
 327.3125 391.6015625 l 5xdc
 337.56640625 489.2578125 335.125 585.9375 395.18359375 645.99609375 c 4
 432.29296875 683.10546875 463.54296875 702.1484375 508.953125 702.1484375 c 4
 539.71484375 702.1484375 566.5703125 691.40625 566.5703125 691.40625 c 6
 566.5703125 691.40625 592.9375 708.0078125 602.21484375 708.0078125 c 4
 608.5625 708.0078125 610.515625 704.1015625 610.515625 698.73046875 c 4
 610.515625 696.77734375 607.09765625 669.921875 575.359375 360.3515625 c 4
 566.08203125 269.53125 l 5
 632 365.234375 691.5703125 398.4375 722.8203125 398.4375 c 4
 736.4921875 398.4375 775.5546875 383.7890625 775.5546875 293.9453125 c 4
 775.5546875 283.69140625 764.32421875 152.34375 708.66015625 78.125 c 4
 689.6171875 53.22265625 632 -4.39453125 612.95703125 -4.39453125 c 4
 586.58984375 -4.39453125 557.29296875 18.5546875 524.578125 41.9921875 c 4
 510.90625 51.7578125 507.48828125 57.6171875 507.48828125 68.359375 c 4
 507.48828125 74.70703125 517.25390625 208.0078125 525.5546875 348.6328125 c 4
 531.90234375 453.125 537.2734375 562.01171875 537.2734375 626.953125 c 5xec
634.44140625 39.55078125 m 4
 665.203125 40.0390625 727.703125 149.90234375 727.703125 238.76953125 c 4
 727.703125 299.8046875 700.84765625 346.6796875 673.50390625 346.6796875 c 4xec
 653.484375 346.6796875 616.375 314.453125 590.0078125 266.6015625 c 4
 563.15234375 217.28515625 561.19921875 184.5703125 561.19921875 135.25390625 c 4
 561.19921875 73.2421875 624.1875 39.55078125 634.44140625 39.55078125 c 4
EndSplineSet
Fore
SplineSet
355 586 m 2x2c40
 342 586 309 631 266 631 c 0
 191 631 178 524 173 468 c 2
 166 392 l 1
 327 392 l 1
 334 462 336 530 357 586 c 1
 355 586 l 2x2c40
634 40 m 0
 665 40 728 150 728 239 c 0
 728 300 701 347 674 347 c 0
 654 347 616 315 590 267 c 0
 563 218 561 184 561 135 c 0x3140
 561 73 624 40 634 40 c 0
401 519 m 0
 395 470 388 405 387 392 c 1
 463 392 l 1
 461 360 l 1
 385 360 l 1
 377 247 372 159 368 88 c 0
 358 -74 350 -141 309 -188 c 0
 287 -213 248 -229 215 -229 c 0
 181 -229 153 -214 153 -179 c 0
 153 -160 164 -143 180 -143 c 0
 211 -143 202 -192 243 -192 c 0x6ac0
 264 -192 281 -175 290 -123 c 0
 296 -92 297 -39 305 88 c 0
 309 155 315 243 326 360 c 1
 164 360 l 1
 156 255 152 164 147 88 c 0
 132 -155 117 -258 -7 -258 c 0
 -42 -258 -76 -241 -76 -205 c 0
 -76 -184 -65 -161 -45 -161 c 0
 -26 -161 -20 -180 -11 -196 c 0
 -2 -211 11 -223 27 -223 c 0
 65 -223 68 -136 83 76 c 0
 88 153 95 248 105 360 c 1
 35 360 l 1
 35 392 l 1
 106 392 l 1
 109 418 110 443 112 468 c 0
 129 643 253 670 306 670 c 0xacc0
 363 670 381 629 381 629 c 1
 381 629 389 640 395 646 c 0
 432 683 464 702 509 702 c 0
 540 702 567 691 567 691 c 1
 567 691 593 708 602 708 c 0
 608 708 611 704 611 699 c 0
 611 697 607 670 575 360 c 2x2ac0
 566 270 l 1
 632 366 692 398 723 398 c 0
 737 398 776 384 776 294 c 4
 776 284 765 152 709 78 c 0
 690 53 632 -4 613 -4 c 0
 587 -4 558 19 525 42 c 0
 511 52 507 57 507 68 c 0x3140
 507 74 518 208 526 349 c 0
 532 453 537 562 537 627 c 1
 516 643 508 661 478 661 c 0x32c0
 432 661 413 610 401 519 c 0
EndSplineSet
Ligature2: "'liga' Standard Ligatures in Latin lookup 14 subtable" f f b
LCarets2: 2 0 0 
EndChar

StartChar: f_h
Encoding: 65546 -1 80
Width: 656
VWidth: 0
Flags: HW
HStem: -258 35<-24.5 47.8282> 0 14G<308 326.5 495 504.5> 327 67<489.46 533.645> 360 32<35 105 166 239> 661 42<217.836 303.024>
VStem: 290 53<0.242615 160.902> 326 72<470.232 639.359> 484 65<13.9134 245.569> 508 62<81.7524 326.251>
DStem2: 59.6444 -258 122.644 -258 0.0697565 0.997564<113.765 619.658 655.836 858.519>
AnchorPoint: "top" 502 732 basechar 0
AnchorPoint: "r;o" 656 195 basechar 0
AnchorPoint: "r;x" 646 376 basechar 0
AnchorPoint: "r;bl" 626 15 basechar 0
AnchorPoint: "l;bl" 0 15 basechar 0
AnchorPoint: "l;x" 0 376 basechar 0
AnchorPoint: "l;o" 0 195 basechar 0
AnchorPoint: "l;k;lo" -74 -244 basechar 0
LayerCount: 3
Back
SplineSet
352.21484375 189.94140625 m 1
 412.2734375 292.96875 488.93359375 394.04296875 532.87890625 394.04296875 c 0
 560.22265625 394.04296875 569.98828125 352.5390625 569.98828125 289.55078125 c 0
 569.98828125 216.30859375 548.9921875 142.08984375 548.9921875 94.7265625 c 0
 548.9921875 85.44921875 549.48046875 75.1953125 555.828125 75.1953125 c 0
 566.5703125 75.1953125 591.9609375 106.4453125 610.02734375 131.34765625 c 2
 626.140625 154.296875 l 9
 641.765625 142.578125 l 17
 612.46875 90.8203125 576.3359375 55.17578125 556.31640625 35.64453125 c 0
 517.25390625 -2.44140625 510.90625 -7.32421875 497.72265625 -7.32421875 c 0
 491.86328125 -7.32421875 484.05078125 -4.39453125 484.05078125 19.04296875 c 0
 484.05078125 50.78125 508.46484375 228.515625 508.46484375 290.52734375 c 0
 508.46484375 318.359375 502.1171875 326.66015625 493.81640625 326.66015625 c 0
 466.47265625 326.66015625 370.28125 208.984375 354.65625 136.71875 c 0
 348.30859375 108.3984375 345.37890625 82.51953125 344.40234375 57.6171875 c 2
 343.42578125 28.80859375 l 2
 342.9375 7.32421875 337.56640625 0 314.6171875 0 c 0
 300.9453125 0 289.71484375 2.9296875 289.71484375 14.6484375 c 0
 289.71484375 33.203125 319.5 456.0546875 325.84765625 618.65234375 c 1
 303.38671875 636.71875 289.71484375 660.64453125 255.53515625 660.64453125 c 0
 204.75390625 660.64453125 182.29296875 592.28515625 171.0625 446.77734375 c 0
 159.83203125 303.7109375 153.97265625 186.5234375 147.625 91.796875 c 0
 131.0234375 -163.0859375 113.93359375 -257.8125 -6.671875 -257.8125 c 0
 -41.828125 -257.8125 -75.51953125 -240.72265625 -75.51953125 -205.078125 c 0
 -75.51953125 -184.08203125 -64.77734375 -161.1328125 -44.7578125 -161.1328125 c 0
 -25.71484375 -161.1328125 -19.85546875 -179.6875 -10.578125 -195.80078125 c 0
 -1.7890625 -210.44921875 10.41796875 -223.14453125 26.53125 -223.14453125 c 0
 64.12890625 -223.14453125 68.03515625 -136.23046875 82.68359375 76.171875 c 0
 90.0078125 184.08203125 103.6796875 360.3515625 108.5625 423.33984375 c 0
 116.86328125 530.76171875 125.65234375 598.14453125 173.50390625 645.99609375 c 0
 205.2421875 677.734375 236.98046875 702.1484375 289.71484375 702.1484375 c 0
 329.265625 702.1484375 354.65625 686.03515625 354.65625 686.03515625 c 1
 354.65625 686.03515625 380.046875 708.0078125 389.32421875 708.0078125 c 0
 395.671875 708.0078125 398.11328125 705.56640625 398.11328125 700.1953125 c 0
 398.11328125 689.94140625 385.41796875 566.89453125 373.2109375 435.546875 c 0
 364.91015625 347.16796875 356.609375 254.39453125 352.21484375 189.94140625 c 1
EndSplineSet
Fore
SplineSet
326 619 m 1xea
 302 639 291 661 255 661 c 0
 184 661 179 521 166 392 c 1
 241 392 l 1
 239 360 l 1
 164 360 l 1
 156 249 151 154 146 76 c 0
 131 -165 112 -258 -7 -258 c 0
 -42 -258 -76 -241 -76 -205 c 0
 -76 -184 -65 -161 -45 -161 c 0
 -26 -161 -20 -180 -11 -196 c 0
 -2 -211 11 -223 27 -223 c 0
 65 -223 68 -136 83 76 c 0
 88 153 95 248 105 360 c 1
 35 360 l 1
 35 392 l 1
 106 392 l 1xda
 116 490 114 586 174 646 c 0
 202 674 236 703 288 703 c 0
 329 703 355 686 355 686 c 1
 355 686 380 708 389 708 c 0
 395 708 398 705 398 700 c 0
 398 685 381 518 366 357 c 0
 361 298 355 240 352 190 c 1
 412 293 489 394 533 394 c 0
 560 394 570 353 570 290 c 0xea80
 570 217 549 142 549 95 c 0
 549 86 550 75 556 75 c 0
 567 75 592 106 610 131 c 2
 626 154 l 1
 642 143 l 1
 613 91 576 56 556 36 c 0
 517 -2 511 -7 498 -7 c 0
 492 -7 484 -4 484 19 c 0xe9
 484 51 508 229 508 291 c 0
 508 319 502 327 494 327 c 0
 467 327 371 209 355 137 c 0
 349 109 345 83 344 58 c 2
 343 29 l 2
 343 8 338 0 315 0 c 0
 301 0 290 3 290 15 c 0xec80
 290 34 320 456 326 619 c 1xea
EndSplineSet
Ligature2: "'liga' Standard Ligatures in Latin lookup 14 subtable" f h
LCarets2: 1 0 
EndChar

StartChar: f_f_h
Encoding: 65547 -1 81
Width: 878
VWidth: 0
Flags: HW
HStem: -258 35<-24.5 48.7514> -229 37<211.792 272.75> 0 14G<529 547.5 716 725.5> 327 67<711.714 755.592> 360 32<35 105 166 326 387 461> 631 39<224.298 316.799> 661 42<439.411 523.934>
VStem: 511 54<0.384766 160.902> 548 72<470.232 638.93> 706 65<13.9134 245.569> 730 62<81.7524 326.251>
DStem2: 59.6444 -258 122.805 -258 0.0697565 0.997564<127.23 619.658 655.836 829.246> 280.805 -258 343.805 -258 0.0697565 0.997564<125.961 619.647 655.824 844.564>
AnchorPoint: "top" 724 732 basechar 0
AnchorPoint: "r;bl" 848 15 basechar 0
AnchorPoint: "r;x" 868 376 basechar 0
AnchorPoint: "r;o" 878 195 basechar 0
AnchorPoint: "l;bl" 0 15 basechar 0
AnchorPoint: "l;x" 0 376 basechar 0
AnchorPoint: "l;o" 0 195 basechar 0
AnchorPoint: "l;k;lo" -74 -244 basechar 0
LayerCount: 3
Fore
SplineSet
355 586 m 2x2c
 342 586 309 631 266 631 c 0
 191 631 178 524 173 468 c 2
 166 392 l 1
 327 392 l 1
 334 462 336 530 357 586 c 1
 355 586 l 2x2c
408 564 m 0
 399 524 389 410 387 392 c 1
 463 392 l 1
 461 360 l 1
 385 360 l 1
 377 247 372 159 368 88 c 0
 358 -74 350 -141 309 -188 c 0
 287 -213 248 -229 215 -229 c 0
 181 -229 153 -214 153 -179 c 0
 153 -160 164 -143 180 -143 c 0
 211 -143 202 -192 243 -192 c 0x6a80
 264 -192 281 -175 290 -123 c 0
 296 -92 297 -39 305 88 c 0
 309 155 315 243 326 360 c 1
 164 360 l 1
 156 255 152 164 147 88 c 0
 132 -155 117 -258 -7 -258 c 0
 -42 -258 -76 -241 -76 -205 c 0
 -76 -184 -65 -161 -45 -161 c 0
 -26 -161 -20 -180 -11 -196 c 0
 -2 -211 11 -223 27 -223 c 0
 65 -223 68 -136 83 76 c 0
 88 153 95 248 105 360 c 1
 35 360 l 1
 35 392 l 1
 106 392 l 1
 109 418 110 443 112 468 c 0
 129 643 253 670 306 670 c 0xac80
 363 670 381 629 381 629 c 1
 381 629 389 640 395 646 c 0
 423 674 457 703 509 703 c 0
 550 703 576 686 576 686 c 1
 576 686 602 708 611 708 c 0
 617 708 620 705 620 700 c 0
 620 685 603 518 588 357 c 0
 583 298 577 240 574 190 c 1
 634 293 711 394 755 394 c 0
 782 394 792 353 792 290 c 4x32a0
 792 217 771 142 771 95 c 4
 771 86 772 75 778 75 c 4
 789 75 814 106 832 131 c 6
 848 154 l 5
 863 143 l 5
 834 91 798 56 778 36 c 4
 739 -2 732 -7 719 -7 c 0
 713 -7 706 -4 706 19 c 0x3240
 706 51 730 229 730 291 c 0
 730 319 723 327 715 327 c 0
 688 327 592 209 576 137 c 0
 570 109 567 83 566 58 c 2
 565 29 l 2
 565 8 559 0 536 0 c 0
 522 0 511 3 511 15 c 0x3320
 511 34 542 456 548 619 c 1
 522 640 512 661 476 661 c 0x3280
 421 661 410 572 408 564 c 0
EndSplineSet
Ligature2: "'liga' Standard Ligatures in Latin lookup 14 subtable" f f h
LCarets2: 2 0 0 
EndChar

StartChar: f_k
Encoding: 65548 -1 82
Width: 628
VWidth: 0
Flags: HW
HStem: -258 35<-24.5 49.662> -8 67<510.84 546.287> 360 32<35 105 166 239 445.561 514.988> 363 22<444 514.254> 661 41<217.342 299.683>
VStem: 276 61<-1.56525 150.948> 515 80<337.936 382>
DStem2: 59.6444 -258 123.064 -258 0.0697565 0.997564<112.063 619.658 655.836 859.912>
AnchorPoint: "r;o" 628 195 basechar 0
AnchorPoint: "r;x" 628 376 basechar 0
AnchorPoint: "r;bl" 608 15 basechar 0
AnchorPoint: "l;bl" 0 15 basechar 0
AnchorPoint: "l;x" 0 376 basechar 0
AnchorPoint: "l;o" 0 195 basechar 0
AnchorPoint: "l;k;lo" -74 -244 basechar 0
LayerCount: 3
Back
SplineSet
252.60546875 660.58984375 m 4
 183.643554688 657.500976562 178.72265625 522.881835938 165.69140625 391.6015625 c 5
 241.375 391.6015625 l 5
 239.421875 359.86328125 l 5
 163.73828125 359.86328125 l 5
 155.92578125 248.046875 151.04296875 154.296875 146.16015625 76.171875 c 4
 130.53515625 -166.9921875 111.98046875 -257.8125 -6.671875 -257.8125 c 4
 -41.828125 -257.8125 -75.51953125 -240.72265625 -75.51953125 -205.078125 c 4
 -75.51953125 -184.08203125 -64.77734375 -161.1328125 -44.7578125 -161.1328125 c 4
 -25.71484375 -161.1328125 -19.85546875 -179.6875 -10.578125 -195.80078125 c 4
 -1.7890625 -210.44921875 10.41796875 -223.14453125 26.53125 -223.14453125 c 4
 64.12890625 -223.14453125 68.03515625 -136.23046875 82.68359375 76.171875 c 4
 88.0546875 153.3203125 94.40234375 247.55859375 104.65625 359.86328125 c 5
 35.3203125 359.86328125 l 5
 35.3203125 391.6015625 l 5
 105.6328125 391.6015625 l 5
 115.88671875 489.2578125 113.4453125 585.9375 173.50390625 645.99609375 c 4
 204.603515625 677.095703125 237.109375 701.163085938 284.34375 702.119140625 c 4
 284.915039062 702.130859375 287.24609375 702.13671875 289.229492188 702.13671875 c 4
 292.15625 702.127929688 l 4
 330.109375 701.485351562 349.7734375 686.03515625 349.7734375 686.03515625 c 5
 349.7734375 686.03515625 380.046875 708.0078125 389.32421875 708.0078125 c 4
 395.671875 708.0078125 398.11328125 707.51953125 398.11328125 697.75390625 c 4
 398.11328125 687.532226562 384.465820312 548.15625 371.294921875 416.015625 c 4
 347.33203125 177.734375 l 5
 347.33203125 177.734375 515.30078125 286.1328125 515.30078125 347.16796875 c 4
 515.30078125 363.28125 498.2109375 363.76953125 490.3984375 363.76953125 c 6
 470.8671875 363.76953125 l 6
 463.0546875 363.76953125 453.77734375 363.76953125 442.546875 363.28125 c 5
 444.01171875 384.765625 l 5
 476.7265625 387.6953125 530.4375 388.671875 552.41015625 388.671875 c 4
 590.49609375 388.671875 595.37890625 385.25390625 595.37890625 379.39453125 c 4
 595.37890625 362.79296875 566.08203125 324.70703125 537.76171875 295.8984375 c 4
 494.79296875 251.953125 441.5703125 215.8203125 441.5703125 215.8203125 c 5
 441.5703125 215.8203125 504.0703125 59.08203125 538.25 59.08203125 c 4
 557.78125 59.08203125 594.890625 135.7421875 594.890625 135.7421875 c 5
 617.3515625 122.55859375 l 5
 617.3515625 122.55859375 606.12109375 100.09765625 590.0078125 73.73046875 c 4
 567.05859375 36.62109375 534.34375 -8.30078125 514.8125 -8.30078125 c 4
 473.796875 -8.30078125 393.23046875 183.59375 393.23046875 183.59375 c 5
 345.37890625 150.87890625 l 5
 345.37890625 150.87890625 339.03125 80.078125 338.0546875 55.17578125 c 6
 337.078125 26.3671875 l 6
 336.58984375 4.8828125 331.21875 -2.44140625 308.26953125 -2.44140625 c 4
 294.59765625 -2.44140625 276.04296875 0.48828125 276.04296875 12.20703125 c 4
 276.04296875 26.7529296875 284.640625 94.6015625 300.963867188 295.8984375 c 4
 307.655273438 378.408203125 315.643554688 483.33984375 324.87109375 616.2109375 c 5
 303.905273438 634.793945312 290.379882812 659.421875 257.9765625 660.600585938 c 4
 257.6171875 660.61328125 256.663085938 660.620117188 255.646484375 660.620117188 c 4
 254.395507812 660.620117188 253.049804688 660.610351562 252.60546875 660.58984375 c 4
EndSplineSet
Fore
SplineSet
325 616 m 1xde
 304 635 290 661 256 661 c 0
 184 661 179 527 166 392 c 1
 241 392 l 1
 239 360 l 1
 164 360 l 1
 156 246 151 150 146 70 c 0
 131 -166 111 -258 -7 -258 c 0
 -42 -258 -76 -241 -76 -205 c 0
 -76 -184 -65 -161 -45 -161 c 0
 -26 -161 -20 -180 -11 -196 c 0
 -2 -211 11 -223 27 -223 c 0
 65 -223 68 -136 83 76 c 0
 88 153 95 248 105 360 c 1
 35 360 l 1
 35 392 l 1
 106 392 l 1xee
 116 490 114 586 174 646 c 0
 210 682 242 702 288 702 c 0
 330 702 350 686 350 686 c 1
 350 686 380 708 389 708 c 0
 395 708 398 708 398 698 c 0
 398 688 384 548 371 416 c 2
 347 178 l 1
 347 178 515 286 515 347 c 0
 515 363 498 364 490 364 c 2
 471 364 l 2
 463 364 454 363 443 363 c 1
 444 385 l 1
 477 388 530 389 552 389 c 0
 590 389 595 385 595 379 c 0
 595 362 566 325 538 296 c 0
 495 252 442 216 442 216 c 1
 442 216 504 59 538 59 c 0
 558 59 595 136 595 136 c 1
 617 123 l 1
 617 123 606 100 590 74 c 0
 567 37 535 -8 515 -8 c 0
 474 -8 393 184 393 184 c 1
 345 151 l 1
 345 151 339 80 338 55 c 2
 337 26 l 2
 337 5 331 -2 308 -2 c 0
 294 -2 276 0 276 12 c 0
 276 42 290 106 325 616 c 1xde
EndSplineSet
Ligature2: "'liga' Standard Ligatures in Latin lookup 14 subtable" f k
LCarets2: 1 0 
EndChar

StartChar: f_f_k
Encoding: 65549 -1 83
Width: 849
VWidth: 0
Flags: HW
HStem: -258 35<-24.5 48.97> -229 37<211.792 272.75> -8 67<733.275 767.99> 360 32<35 105 166 326 387 461 667.561 736.988> 363 22<666 736.254> 631 39<224.298 316.799> 661 41<438.625 521.479>
VStem: 498 61<-1.56525 150.948> 737 80<337.936 382>
DStem2: 59.6444 -258 123.197 -258 0.0697565 0.997564<147.38 619.658 655.836 829.246> 280.197 -258 344.197 -258 0.0697565 0.997564<148.657 619.69 655.867 844.607>
AnchorPoint: "r;bl" 829 15 basechar 0
AnchorPoint: "r;x" 849 376 basechar 0
AnchorPoint: "r;o" 849 195 basechar 0
AnchorPoint: "l;bl" 0 15 basechar 0
AnchorPoint: "l;x" 0 376 basechar 0
AnchorPoint: "l;o" 0 195 basechar 0
AnchorPoint: "l;k;lo" -74 -244 basechar 0
LayerCount: 3
Back
SplineSet
546.55078125 616.2109375 m 5xfb
 525.5546875 634.765625 510.90625 660.64453125 477.21484375 660.64453125 c 4
 404.94921875 660.64453125 400.5546875 526.3671875 387.37109375 391.6015625 c 5
 463.0546875 391.6015625 l 5
 461.1015625 359.86328125 l 5
 385.41796875 359.86328125 l 5
 377.60546875 245.60546875 372.72265625 149.90234375 367.3515625 70.3125 c 4
 352.21484375 -166.015625 333.171875 -257.8125 215.0078125 -257.8125 c 4
 179.8515625 -257.8125 146.16015625 -240.72265625 146.16015625 -205.078125 c 4
 146.16015625 -184.08203125 156.90234375 -161.1328125 176.921875 -161.1328125 c 4
 195.96484375 -161.1328125 201.82421875 -179.6875 211.1015625 -195.80078125 c 4
 219.890625 -210.44921875 232.09765625 -223.14453125 248.2109375 -223.14453125 c 4
 285.80859375 -223.14453125 289.71484375 -136.23046875 304.36328125 76.171875 c 4
 309.734375 153.3203125 316.08203125 247.55859375 326.3359375 359.86328125 c 5
 257 359.86328125 l 5
 257 391.6015625 l 5
 327.3125 391.6015625 l 5
 337.56640625 489.2578125 335.125 585.9375 395.18359375 645.99609375 c 4
 431.31640625 682.12890625 464.03125 702.1484375 509.9296875 702.1484375 c 4
 551.43359375 702.1484375 570.96484375 686.03515625 571.453125 686.03515625 c 6
 571.453125 686.03515625 601.7265625 708.0078125 611.00390625 708.0078125 c 4
 617.3515625 708.0078125 619.79296875 707.51953125 619.79296875 697.75390625 c 4
 619.79296875 687.5 606.12109375 548.33984375 592.9375 416.015625 c 6xfb
 569.01171875 177.734375 l 5
 569.01171875 177.734375 736.98046875 286.1328125 736.98046875 347.16796875 c 4
 736.98046875 363.28125 719.890625 363.76953125 712.078125 363.76953125 c 6
 692.546875 363.76953125 l 6
 684.734375 363.76953125 675.45703125 363.76953125 664.2265625 363.28125 c 5
 665.69140625 384.765625 l 5
 698.40625 387.6953125 752.1171875 388.671875 774.08984375 388.671875 c 4
 812.17578125 388.671875 817.05859375 385.25390625 817.05859375 379.39453125 c 4
 817.05859375 362.79296875 787.76171875 324.70703125 759.44140625 295.8984375 c 4
 716.47265625 251.953125 663.25 215.8203125 663.25 215.8203125 c 5
 663.25 215.8203125 725.75 59.08203125 759.9296875 59.08203125 c 4
 779.4609375 59.08203125 816.5703125 135.7421875 816.5703125 135.7421875 c 5
 839.03125 122.55859375 l 5
 839.03125 122.55859375 827.80078125 100.09765625 811.6875 73.73046875 c 4
 788.73828125 36.62109375 756.0234375 -8.30078125 736.4921875 -8.30078125 c 4
 695.4765625 -8.30078125 614.91015625 183.59375 614.91015625 183.59375 c 5
 567.05859375 150.87890625 l 5
 567.05859375 150.87890625 560.7109375 80.078125 559.734375 55.17578125 c 6
 558.7578125 26.3671875 l 6
 558.26953125 4.8828125 552.8984375 -2.44140625 529.94921875 -2.44140625 c 4
 516.27734375 -2.44140625 497.72265625 0.48828125 497.72265625 12.20703125 c 4xfd
 497.72265625 41.9921875 511.39453125 106.4453125 546.55078125 616.2109375 c 5xfb
EndSplineSet
Fore
SplineSet
355 586 m 2x3580
 342 586 309 631 266 631 c 0
 191 631 178 524 173 468 c 2
 166 392 l 1
 327 392 l 1
 334 462 336 530 357 586 c 1
 355 586 l 2x3580
401 519 m 0
 396 479 391 435 387 392 c 1
 463 392 l 1
 461 360 l 1
 385 360 l 1
 378 260 374 178 370 111 c 0
 360 -63 352 -138 309 -188 c 0
 287 -213 248 -229 215 -229 c 0
 181 -229 153 -214 153 -179 c 0
 153 -160 164 -143 180 -143 c 0
 211 -143 202 -192 243 -192 c 0x7380
 264 -192 281 -175 290 -123 c 0
 296 -91 297 -25 306 111 c 0
 310 176 317 258 326 360 c 1
 164 360 l 1
 157 265 153 182 149 111 c 0
 133 -154 118 -258 -7 -258 c 0
 -42 -258 -76 -241 -76 -205 c 0
 -76 -184 -65 -161 -45 -161 c 0
 -26 -161 -20 -180 -11 -196 c 0
 -2 -211 11 -223 27 -223 c 0
 65 -223 68 -136 83 76 c 0
 88 153 95 248 105 360 c 1
 35 360 l 1
 35 392 l 1
 106 392 l 1
 109 418 110 443 112 468 c 0
 129 643 253 670 306 670 c 0xb580
 363 670 381 629 381 629 c 1
 381 629 389 640 395 646 c 0
 431 682 464 702 510 702 c 0
 552 702 571 686 571 686 c 1
 571 686 602 708 611 708 c 0
 617 708 620 708 620 698 c 0
 620 688 606 548 593 416 c 2
 569 178 l 1
 569 178 737 286 737 347 c 4
 737 363 720 364 712 364 c 6
 693 364 l 6
 685 364 675 363 664 363 c 5
 666 385 l 5
 699 388 752 389 774 389 c 4
 812 389 817 385 817 379 c 4
 817 362 787 325 759 296 c 4
 716 252 663 216 663 216 c 5
 663 216 726 59 760 59 c 4
 780 59 817 136 817 136 c 5
 839 123 l 5
 839 123 828 100 812 74 c 4
 789 37 756 -8 736 -8 c 4
 695 -8 615 184 615 184 c 1
 567 151 l 1
 567 151 561 80 560 55 c 2
 559 26 l 2
 559 5 553 -2 530 -2 c 0
 516 -2 498 0 498 12 c 0
 498 42 512 106 547 616 c 1
 526 635 511 661 477 661 c 0x2b80
 426 661 411 597 401 519 c 0
EndSplineSet
Ligature2: "'liga' Standard Ligatures in Latin lookup 14 subtable" f f k
LCarets2: 2 2 0 
EndChar

StartChar: ampersand
Encoding: 38 38 84
Width: 833
VWidth: 0
Flags: W
HStem: -15 53<210.417 449.648> 188 22<426.253 479.761> 311 74<647.715 751.253> 323 70<438.772 595.234> 395 28<263.604 345.872> 486 32<386.903 447.64> 496 26<728.123 777.096> 653 31<290.76 418.664>
VStem: 16 94<124.124 284.567> 130 86<455.049 588.683> 374 40<215.035 295.274> 462 64<526.859 621.787> 782 37<417.238 494.192>
LayerCount: 3
Fore
SplineSet
317 395 m 0xcdf8
 162 389 110 274 110 202 c 0
 110 136 149 38 336 38 c 0
 544 38 596 173 596 292 c 0
 596 310 593 316 580 318 c 0
 574 319 545 323 515 323 c 0
 504 323 492 322 478 320 c 0
 444 316 414 282 414 253 c 0
 414 230 429 210 451 210 c 0
 465 210 471 215 477 216 c 0
 481 217 485 214 485 208 c 0
 485 197 462 188 450 188 c 0
 400 188 374 226 374 269 c 0
 374 330 422 393 507 393 c 0xddf8
 563 393 606 385 683 385 c 0
 740 385 782 420 782 461 c 0
 782 487 769 496 754 496 c 0
 750 496 741 494 738 494 c 0
 732 494 727 496 727 504 c 0
 727 518 747 522 764 522 c 0xebf8
 797 522 819 505 819 444 c 0
 819 418 814 390 807 374 c 0
 790 335 747 311 677 311 c 2
 670 311 l 2
 660 311 649 309 646 279 c 0
 622 81 502 -15 312 -15 c 0
 89 -15 16 69 16 195 c 0
 16 380 208 413 208 413 c 1
 208 413 130 442 130 517 c 0
 130 592 204 684 359 684 c 0
 447 684 526 648 526 571 c 0
 526 513 482 486 439 486 c 0xedf8
 411 486 374 501 374 522 c 0xcbf8
 374 532 384 534 390 528 c 0
 398 520 405 518 415 518 c 0
 443 518 462 544 462 573 c 0
 462 610 431 653 350 653 c 0
 263 653 216 576 216 527 c 0
 216 450 263 424 311 423 c 0
 330 423 346 421 346 411 c 0
 346 397 335 396 317 395 c 0xcdf8
EndSplineSet
Position2: "'cpsp' Capital Spacing in Latin lookup 2 subtable" dx=4 dy=0 dh=8 dv=0
EndChar

StartChar: m
Encoding: 109 109 85
Width: 608
VWidth: 0
Flags: HMW
HStem: 0 15G<87.5 118.5 276 309 458 480> 378 20G<291.5 330.5 502.5 522.5> 384 20G<144 156.5>
VStem: 69 67<0.081543 150.698> 259 65<-0.854946 153.793> 446 71<21.8903 222.241>
AnchorPoint: "l;bl" 0 15 basechar 0
AnchorPoint: "l;x" 0 376 basechar 0
AnchorPoint: "l;o" 0 195 basechar 0
AnchorPoint: "r;bl" 588 15 basechar 0
AnchorPoint: "r;x" 608 376 basechar 0
AnchorPoint: "r;o" 608 195 basechar 0
LayerCount: 3
Fore
SplineSet
69 14 m 0xdc
 69 24 95 282 95 327 c 0
 95 346 90 351 82 351 c 0
 76 351 69 348 61 345 c 2
 19 327 l 1
 10 354 l 1
 56 375 136 404 152 404 c 0xbc
 161 404 169 401 169 392 c 0
 169 350 149 278 148 195 c 1
 148 195 261 396 322 396 c 0
 339 396 343 365 343 328 c 0
 343 277 337 200 337 200 c 1
 337 200 386 281 435 339 c 0
 463 372 494 398 511 398 c 0
 534 398 534 356 534 332 c 0
 534 266 517 154 517 110 c 0
 517 92 522 81 531 81 c 0
 538 81 553 100 564 117 c 0
 575 133 580 146 580 146 c 1
 598 137 l 1
 565 65 495 -6 465 -6 c 0
 451 -6 446 11 446 36 c 0
 446 82 472 223 472 279 c 0
 472 301 472 314 460 314 c 0
 439 314 361 218 331 116 c 0
 330 110 326 103 324 20 c 0
 324 7 320 -1 298 -1 c 2
 282 -1 l 2
 270 -1 259 2 259 13 c 0
 259 31 283 222 283 283 c 0
 283 302 275 312 268 312 c 0
 239 312 149 155 145 115 c 0
 142 86 138 67 136 19 c 0
 136 7 125 0 112 0 c 2
 93 0 l 2
 82 0 69 2 69 14 c 0xdc
EndSplineSet
Layer: 2
SplineSet
532.2265625 332.03125 m 4xca80
 532.2265625 265.625 515.13671875 154.78515625 515.13671875 110.3515625 c 4
 515.13671875 92.28515625 519.53125 81.0546875 528.80859375 81.0546875 c 4
 536.1328125 81.0546875 550.29296875 100.09765625 561.5234375 117.1875 c 4
 572.265625 133.30078125 578.125 146.484375 578.125 146.484375 c 5
 595.703125 136.71875 l 5
 562.98828125 64.453125 492.67578125 -5.859375 462.890625 -5.859375 c 4
 449.21875 -5.859375 444.3359375 10.7421875 444.3359375 36.1328125 c 4xc1
 444.3359375 82.03125 470.21484375 222.65625 470.21484375 278.80859375 c 4
 470.21484375 301.26953125 470.21484375 314.453125 458.49609375 314.453125 c 4
 437.5 314.453125 358.3984375 218.26171875 328.61328125 116.2109375 c 4
 327.1484375 110.3515625 324.21875 103.02734375 322.265625 19.53125 c 4
 321.77734375 6.34765625 318.359375 -1.46484375 296.38671875 -1.46484375 c 6
 280.2734375 -1.46484375 l 6
 268.06640625 -1.46484375 256.8359375 2.44140625 256.8359375 13.18359375 c 4xc480
 256.8359375 30.76171875 280.76171875 222.65625 280.76171875 283.203125 c 4
 280.76171875 302.24609375 273.4375 312.5 266.11328125 312.5 c 4
 237.3046875 312.5 146.97265625 154.296875 142.578125 114.74609375 c 4
 139.16015625 85.9375 136.23046875 66.89453125 133.7890625 18.5546875 c 4
 133.30078125 6.8359375 123.53515625 -0.48828125 110.3515625 -0.48828125 c 6
 90.8203125 -0.48828125 l 6
 79.58984375 -0.48828125 67.3828125 2.44140625 67.3828125 14.16015625 c 4xd2
 67.3828125 25.390625 92.7734375 285.15625 92.7734375 326.66015625 c 4
 92.7734375 345.703125 87.890625 351.07421875 80.078125 351.07421875 c 4
 74.21875 351.07421875 66.40625 348.14453125 58.59375 344.7265625 c 6
 16.6015625 327.1484375 l 5
 7.8125 353.515625 l 5
 53.7109375 374.51171875 134.27734375 404.296875 150.390625 404.296875 c 4xa8
 159.66796875 404.296875 166.9921875 400.87890625 166.9921875 391.6015625 c 4
 166.9921875 350.09765625 146.97265625 278.3203125 145.99609375 194.82421875 c 5
 145.99609375 194.82421875 259.27734375 395.5078125 319.82421875 395.5078125 c 4
 336.9140625 395.5078125 340.8203125 364.74609375 340.8203125 327.63671875 c 4
 340.8203125 276.85546875 334.9609375 200.1953125 334.9609375 200.1953125 c 5
 334.9609375 200.1953125 383.7890625 280.76171875 433.10546875 338.8671875 c 4
 461.42578125 372.0703125 491.69921875 397.94921875 508.7890625 397.94921875 c 4
 532.2265625 397.94921875 532.2265625 355.95703125 532.2265625 332.03125 c 4xca80
EndSplineSet
EndChar

StartChar: zero.lining
Encoding: 65550 -1 86
Width: 519
VWidth: 0
Flags: HW
HStem: -9 32<194.439 303.974> 607 26<210.999 308.384>
VStem: 25 57<167.581 441.952> 420 66<191.032 473.314>
LayerCount: 3
Fore
SplineSet
25 304 m 0
 25 463 109 633 259 633 c 0
 413 633 486 493 486 335 c 0
 486 177 413 -9 247 -9 c 0
 47 -9 25 172 25 304 c 0
252 23 m 0
 359 23 420 197 420 339 c 0
 420 500 344 607 261 607 c 0
 156 607 82 468 82 303 c 0
 82 160 148 23 252 23 c 0
EndSplineSet
EndChar

StartChar: one.lining
Encoding: 65551 -1 87
Width: 409
VWidth: 0
Flags: HW
HStem: 0 32<63 173.115 244.054 362>
VStem: 219 74<405.716 640>
LayerCount: 3
Fore
SplineSet
63 0 m 1
 63 32 l 1
 122 32 l 2
 172 32 173 34 175 65 c 0
 188 228 219 560 219 572 c 0
 219 586 213 591 204 591 c 0
 201 591 197 590 193 589 c 0
 184 587 107 561 107 561 c 1
 109 590 l 1
 246 627 274 647 283 647 c 0
 288 647 293 645 293 635 c 0
 293 616 288 591 284 550 c 0
 270 389 242 73 242 61 c 0
 242 34 259 32 287 32 c 2
 362 32 l 1
 362 0 l 1
 63 0 l 1
EndSplineSet
EndChar

StartChar: two.lining
Encoding: 65552 -1 88
Width: 516
VWidth: 0
Flags: HW
HStem: 0 42<88.0058 392.907> 593 41<171.338 326.612>
VStem: 377 81<401.388 551.06>
LayerCount: 3
Fore
SplineSet
13 8 m 0
 13 12 21 22 33 33 c 0
 123 115 215 192 286 275 c 0
 344 342 377 415 377 489 c 0
 377 575 288 593 255 593 c 0
 151 593 137 540 118 540 c 0
 110 540 107 545 107 551 c 0
 107 583 172 634 268 634 c 0
 401 634 458 573 458 498 c 0
 458 384 364 272 284 200 c 0
 208 132 88 52 88 46 c 0
 88 42 96 42 106 42 c 0
 180 42 242 44 289 47 c 0
 443 58 457 99 475 99 c 0
 477 99 479 98 479 93 c 0
 479 87 455 32 449 6 c 0
 448 2 448 0 405 0 c 2
 37 0 l 2
 27 0 13 1 13 8 c 0
EndSplineSet
EndChar

StartChar: three.lining
Encoding: 65553 -1 89
Width: 472
VWidth: 0
Flags: W
HStem: -2 42<116.332 274.532> 344 28<161.198 242.025> 592 41<146.632 300.624>
VStem: 342 78<444.282 553.291> 349 78<117.89 264.691>
LayerCount: 3
Fore
SplineSet
32 76 m 0xe8
 32 83 39 84 44 84 c 0
 52 84 108 40 201 40 c 0
 302 40 349 135 349 191 c 0xe8
 349 289 283 330 209 344 c 0
 178 350 161 345 161 356 c 0
 161 366 170 368 189 372 c 0
 305 391 342 452 342 502 c 0
 342 540 303 592 234 592 c 0
 146 592 118 550 107 550 c 0
 99 550 95 556 95 565 c 0
 95 575 133 633 247 633 c 0
 328 633 420 594 420 515 c 0xf0
 420 385 252 366 252 366 c 1
 252 366 427 341 427 176 c 0
 427 44 323 -2 225 -2 c 0
 136 -2 32 49 32 76 c 0xe8
EndSplineSet
EndChar

StartChar: four.lining
Encoding: 65554 -1 90
Width: 531
VWidth: 0
Flags: W
HStem: 151 62<98 346 421 506>
VStem: 328 78<-45 19.6111> 351 70<213 311.955>
DStem2: 40 192 98 213 0.662418 0.749134<54.1521 469.298>
LayerCount: 3
Fore
SplineSet
40 192 m 0xc0
 84 246 196 367 426 633 c 0
 431 639 437 642 442 642 c 0
 450 642 455 634 455 624 c 0
 455 607 433 457 421 213 c 9xa0
 527 213 l 25
 506 151 l 25
 415 151 l 25
 406 -45 l 25
 328 -64 l 25
 346 151 l 17
 49 151 l 2
 37 151 28 151 28 164 c 0
 28 178 31 181 40 192 c 0xc0
98 213 m 9
 351 213 l 25
 373 524 l 17
 98 213 l 9
EndSplineSet
EndChar

StartChar: five.lining
Encoding: 65555 -1 91
Width: 492
VWidth: 0
Flags: HW
HStem: -9 49<70.0876 240.173> 394 36<180.332 262.37> 566 51<207.145 427.042>
VStem: 139 41<400 526.488> 348 87<144.259 322.43>
LayerCount: 3
Fore
SplineSet
18 61 m 0
 18 77 30 77 30 77 c 1
 63 77 63 40 149 40 c 0
 247 40 348 109 348 239 c 0
 348 381 218 394 184 394 c 0
 175 394 157 393 152 393 c 0
 144 393 139 395 139 405 c 0
 139 431 152 480 158 518 c 0
 162 541 166 562 168 577 c 0
 172 605 171 618 186 618 c 0
 217 618 260 617 303 617 c 0
 341 617 383 618 414 621 c 0
 433 623 443 646 448 656 c 1
 474 649 l 1
 468 620 441 547 429 547 c 0
 389 547 235 566 222 566 c 0
 219 566 210 564 207 556 c 0
 198 534 180 473 180 455 c 0
 180 432 187 430 203 430 c 2
 217 430 l 2
 325 430 435 367 435 225 c 0
 435 155 382 -9 181 -9 c 0
 54 -9 18 51 18 61 c 0
EndSplineSet
EndChar

StartChar: six.lining
Encoding: 65556 -1 92
Width: 507
VWidth: 0
Flags: W
HStem: -17 28<213.352 312.389> 379 39<196.158 308.989> 606 30<285.001 419.931>
VStem: 50 70<121.712 356.255> 384 79<104.61 295.108>
LayerCount: 3
Fore
SplineSet
50 250 m 0
 50 449 153 635 346 636 c 0
 385 636 434 624 434 605 c 0
 434 597 426 593 420 593 c 0
 412 593 376 606 351 606 c 0
 176 606 121 356 111 323 c 1
 155 392 227 418 268 418 c 0
 451 418 463 221 463 209 c 0
 463 67 363 -17 261 -17 c 0
 128 -17 50 92 50 250 c 0
384 196 m 0
 384 300 326 379 245 379 c 0
 145 379 120 268 120 212 c 0
 120 99 192 11 261 11 c 0
 336 11 384 80 384 196 c 0
EndSplineSet
EndChar

StartChar: seven.lining
Encoding: 65557 -1 93
Width: 468
VWidth: 0
Flags: HW
HStem: -17 21G<110.5 190> 522 96<60.0534 114.25> 564 54<122.259 365.992>
VStem: 366 54<516.272 609.5>
LayerCount: 3
Fore
SplineSet
44 552 m 0xd0
 48 567 56 592 60 611 c 0
 61 617 71 618 81 618 c 2xd0
 400 618 l 2
 416 618 420 614 420 605 c 0
 420 589 412 565 404 536 c 0
 382 456 342 356 313 276 c 0
 269 153 276 181 215 33 c 0
 198 -9 197 -17 183 -17 c 2
 116 -17 l 2
 105 -17 98 -14 98 -3 c 0
 98 12 174 65 277 313 c 0
 322 422 366 523 366 547 c 0
 366 559 355 564 341 564 c 0xb0
 307 564 183 555 128 546 c 0
 65 536 59 522 51 522 c 0
 44 522 41 528 41 536 c 0
 41 541 43 548 44 552 c 0xd0
EndSplineSet
EndChar

StartChar: eight.lining
Encoding: 65558 -1 94
Width: 474
VWidth: 0
Flags: HW
HStem: -14 35<170.193 299.796> 612 25<197.836 302.759>
VStem: 53 57<75.9894 216.861> 81 69<451.368 569.043> 350 56<441.438 578.21> 360 56<80.5308 200.671>
LayerCount: 3
Fore
SplineSet
219 -14 m 0xc4
 105 -14 53 39 53 124 c 0xe4
 53 251 160 314 194 333 c 1
 150 362 81 414 81 486 c 0
 81 581 143 637 250 637 c 0
 331 637 406 598 406 507 c 0xd8
 406 408 279 357 279 357 c 1
 327 319 416 273 416 178 c 0
 416 68 348 -14 219 -14 c 0xc4
110 153 m 0
 110 72 165 21 237 21 c 0
 309 21 360 79 360 140 c 0
 360 187 321 241 216 320 c 1
 163 287 110 219 110 153 c 0
256 612 m 0
 167 612 150 553 150 506 c 0
 150 442 258 371 258 371 c 1
 258 371 350 422 350 508 c 0xd8
 350 568 315 612 256 612 c 0
EndSplineSet
EndChar

StartChar: nine.lining
Encoding: 65559 -1 95
Width: 495
VWidth: 0
Flags: HW
HStem: -13 48<85.5671 235.64> 228 51<189.582 306.662> 606 29<211.641 312.02>
VStem: 59 71<341.482 512.569> 379 76<293.641 511.311>
LayerCount: 3
Fore
SplineSet
13 71 m 0
 13 80 19.0210578828 86.1082620497 24.6812422665 86.1082620497 c 0
 33.6781863424 86.1082620497 41.6970034254 78.9279321413 52 71.5322265625 c 0
 73.099609375 56.384765625 103.037945208 35 157 35 c 0
 346 35 381 329 381 329 c 1
 381 329 334 228 227 228 c 0
 99 228 59 344 59 416 c 0
 59 539 154 635 260 635 c 0
 392 635 455 517 455 396 c 0
 455 224 363 -13 190 -13 c 0
 98 -13 13 39 13 71 c 0
263 606 m 0
 176 606 130 508 130 432 c 0
 130 389 144 279 269 279 c 0
 323 279 379 340 379 440 c 0
 379 533 331 606 263 606 c 0
EndSplineSet
EndChar

StartChar: dollar.lining
Encoding: 65560 -1 96
Width: 515
VWidth: 0
Flags: HW
HStem: -3 35<164.797 226 262 331.457> 599 28<208.153 267> 690 20G<273.795 306>
VStem: 37 34<110.448 173.769> 82 67<444.822 553.995> 211 40<-166.525 -89.9333> 395 68<82.5358 208.904>
DStem2: 213.945 -169 248.154 -169 0.0697565 0.997564<201.491 456.365 542.407 769.83 797.971 881.118>
LayerCount: 3
Fore
SplineSet
58 174 m 0
 67 174 69 161 71 150 c 0
 81 98 133 44 228 32 c 1
 249 297 l 1
 192 328 82 387 82 476 c 0
 82 624 256 627 269 627 c 2
 270 627 l 1
 275 710 l 1
 306 708 l 1
 301 625 l 1
 332 622 370 616 400 610 c 1
 400 610 433 612 434 612 c 0
 446 612 444 599 452 548 c 0
 452 543 455 525 455 523 c 2
 455 515 l 2
 455 510 454 506 448 506 c 0
 435 506 422 528 411 542 c 0
 372 596 298 599 298 599 c 1
 282 359 l 1
 386 306 463 262 463 164 c 0
 463 2 277 -2 259 -2 c 1
 251 -169 l 1
 211 -166 l 1
 226 -3 l 1
 226 -3 122 3 69 26 c 0
 53 33 49 37 47 51 c 0
 43 73 37 133 37 144 c 0
 37 163 39 174 58 174 c 0
149 501 m 0
 149 431 253 372 253 372 c 1
 267 599 l 1
 267 599 149 597 149 501 c 0
262 29 m 1
 307 29 395 61 395 147 c 0
 395 211 328 262 278 284 c 1
 262 29 l 1
EndSplineSet
EndChar

StartChar: zero.denom
Encoding: 65571 -1 107
Width: 402
VWidth: 0
Flags: W
HStem: -13 34<148.8 244.369> 406 34<168.928 260.159>
VStem: 29 60<89.5449 306.575> 313 67<126.728 344.727>
LayerCount: 3
Fore
SplineSet
216 440 m 0
 325 440 380 343 380 240 c 0
 380 105 297 -13 186 -13 c 0
 92 -13 29 65 29 195 c 0
 29 316 102 440 216 440 c 0
216 406 m 0
 141 406 89 299 89 196 c 0
 89 112 126 21 195 21 c 0
 288 21 313 159 313 242 c 0
 313 351 268 406 216 406 c 0
EndSplineSet
Layer: 2
SplineSet
16 224 m 4
 16 345 106 440 199 440 c 4
 324 440 391 330 391 219 c 4
 391 95 316 -13 201 -13 c 4
 92 -13 16 76 16 224 c 4
78 226 m 4
 78 136 124 21 207 21 c 4
 298 21 318 141 318 212 c 4
 318 341 261 405 200 405 c 4
 127 405 78 317 78 226 c 4
EndSplineSet
EndChar

StartChar: one.denom
Encoding: 65572 -1 108
Width: 243
VWidth: 0
Flags: W
HStem: 0 29<17 90.4709 152.945 234>
VStem: 115 69<204.81 445>
LayerCount: 3
Back
SplineSet
16 0 m 5
 18 29 l 5
 79 30 91 25 93 57 c 6
 115 366 l 6
 115.253566341 369.042796093 115.394614876 371.748038766 115.394614876 374.152410386 c 4
 115.394614876 390.712477106 108.703637566 393 86 393 c 6
 48 393 l 5
 50 421 l 5
 132 421 l 6
 160 421 164 437 172 450 c 5
 185 449 l 5
 185 449 174 356 169 290 c 6
 152 57 l 6
 151.877856029 55.1067684483 151.811658869 53.3440794561 151.811658869 51.7028216027 c 4
 151.811658869 26.4699269472 167.458254944 29.9389280145 236 29 c 5
 234 0 l 5
 16 0 l 5
EndSplineSet
Fore
SplineSet
16 0 m 1
 17 29 l 1
 78 30 91 25 93 57 c 0
 101 162 115 356 115 375 c 0
 115 394 112 399 105 399 c 0
 99 399 43 380 32 374 c 1
 33 399 l 1
 67 410 103 423 133 434 c 0
 147 439 170 450 178 450 c 0
 183 450 184 447 184 443 c 0
 184 438 173 345 169 290 c 0
 163 211 152 59 152 52 c 0
 152 27 166 30 235 29 c 1
 234 0 l 1
 16 0 l 1
EndSplineSet
Layer: 2
SplineSet
18 0 m 5
 18 29 l 5
 83 30 96 25 96 57 c 6
 96 366 l 6
 96 390 91 393 63 393 c 6
 22 393 l 5
 23 421 l 5
 111 421 l 6
 141 421 144 437 152 450 c 5
 166 449 l 5
 166 449 160 356 160 290 c 6
 160 57 l 6
 160 26 173 30 252 29 c 5
 252 0 l 5
 18 0 l 5
EndSplineSet
EndChar

StartChar: two.denom
Encoding: 65573 -1 109
Width: 369
VWidth: 0
Flags: W
HStem: 0 38<118.004 287.75> 395 43<123.861 236.071>
VStem: 258.304 76.0723<246.986 373.624>
LayerCount: 3
Fore
SplineSet
334.37638647 322.582933101 m 0
 334.37638647 190.206656845 119.156842142 53.7252635663 118 41 c 0
 118 39 124 38 131 38 c 0
 267 38 327 72 340 72 c 0
 344 72 345 70 345 64 c 0
 345 59 332 9 324 4 c 0
 322 2 323 0 291 0 c 2
 60 0 l 2
 53 0 44 1 44 6 c 0
 45.1068213551 20.3886776162 258.304045278 182.222960252 258.304045278 316.026558333 c 0
 258.304045278 383.963581772 204.057246056 395 182 395 c 0
 109 395 106 359 90 359 c 0
 84 359 83 363 83 368 c 0
 85 399 137 438 210 438 c 0
 289.776642351 438 334.37638647 388.391553774 334.37638647 322.582933101 c 0
EndSplineSet
Layer: 2
SplineSet
48 6 m 4
 48 19 255 179 255 307 c 4
 255 383 192 395 167 395 c 4
 89 395 88 359 71 359 c 4
 65 359 63 363 63 368 c 4
 63 399 115 438 194 438 c 4
 284 438 337 383 337 312 c 4
 337 187 125 52 125 41 c 4
 125 39 131 38 139 38 c 4
 285 38 347 72 361 72 c 4
 365 72 367 70 367 64 c 4
 367 59 357 9 349 4 c 4
 347 2 348 0 314 0 c 6
 66 0 l 6
 58 0 48 1 48 6 c 4
EndSplineSet
EndChar

StartChar: three.denom
Encoding: 65574 -1 110
Width: 340
VWidth: 0
Flags: W
HStem: -11 35<55.6697 202.808> 397 43<109.679 212.089>
VStem: 228 75<299.263 381.054> 249 72<64.0849 183.502>
LayerCount: 3
Fore
SplineSet
303 357 m 0xe0
 303 272 188 242 188 242 c 1
 188 242 321 225 321 128 c 0
 321 30 229 -11 144 -11 c 0
 80 -11 23 14 23 37 c 0
 23 48 32 49 36 49 c 0
 50 49 68 24 137 24 c 0
 225 24 249 89 249 127 c 0xd0
 249 168 214 213 162 222 c 0
 141 226 127 223 127 233 c 0
 127 247 139 247 158 251 c 0
 218 264 228 314 228 336 c 0
 228 361 207 397 163 397 c 0
 103 397 93 364 77 364 c 0
 71 364 69 368 69 375 c 0
 70 389 109 440 191 440 c 0
 248 440 303 412 303 357 c 0xe0
EndSplineSet
Layer: 2
SplineSet
22 38 m 4xd0
 22 48 31 49 35 49 c 4
 50 49 72 24 146 24 c 4
 240 24 259 88 259 122 c 4xd0
 259 164 217 213 158 222 c 4
 134 226 119 223 119 234 c 4
 119 247 132 247 152 251 c 4
 214 264 221 314 221 333 c 4
 221 358 196 397 146 397 c 4
 82 397 73 364 56 364 c 4
 50 364 47 368 47 375 c 4
 47 389 85 440 173 440 c 4
 236 440 300 410 300 351 c 4xe0
 300 270 184 242 184 242 c 5
 184 242 337 225 337 121 c 4
 337 29 246 -11 156 -11 c 4
 86 -11 22 15 22 38 c 4xd0
EndSplineSet
EndChar

StartChar: four.denom
Encoding: 65575 -1 111
Width: 395
VWidth: 0
Flags: W
HStem: -10 21G<234 294.385> 120 56<114 243 306 362>
DStem2: 234 -10 293 -10 0.0697565 0.997564<4.11563 130.311 190.569 351.889>
LayerCount: 3
Fore
SplineSet
37 125 m 0
 38 144 88 178 308 437 c 0
 313 443 318 444 320 444 c 0
 325 444 324 436 323 427 c 2
 306 176 l 9
 381 176 l 25
 362 120 l 25
 302 120 l 25
 293 -10 l 25
 234 -10 l 25
 243 120 l 17
 46 120 l 2
 41 120 37 120 37 125 c 0
114 176 m 9
 247 176 l 25
 259 341 l 17
 114 176 l 9
EndSplineSet
Layer: 2
SplineSet
31 125 m 4
 31 144 82 178 299 437 c 4
 304 443 309 444 311 444 c 4
 316 444 316 436 316 427 c 6
 316 176 l 13
 397 176 l 29
 381 120 l 29
 316 120 l 29
 316 -10 l 29
 253 -10 l 29
 253 120 l 21
 41 120 l 6
 36 120 31 120 31 125 c 4
110 176 m 13
 253 176 l 29
 253 341 l 21
 110 176 l 13
EndSplineSet
EndChar

StartChar: five.denom
Encoding: 65576 -1 112
Width: 330
VWidth: 0
Flags: HMW
LayerCount: 3
Fore
SplineSet
130 387 m 0
 107 387 101 336 101 305 c 0
 101 292 104 292 115 292 c 0
 132 292 141 295 161 295 c 0
 239 295 314 253 314 163 c 0
 314 101 263 -8 129 -8 c 0
 41 -8 19 32 19 41 c 0
 19 47 26 50 26 50 c 1
 46 50 32 25 124 25 c 0
 193 25 242 87 242 154 c 0
 242 241 152 262 100 262 c 0
 91 262 76 261 66 260 c 1
 69 342 71 379 73 407 c 0
 74 428 76 431 86 431 c 0
 104 431 153 428 185 428 c 0
 206 428 229 429 256 433 c 0
 267 435 270 459 270 459 c 1
 289 458 l 1
 277 395 l 2
 274 379 270 373 261 373 c 0
 234 373 139 387 130 387 c 0
EndSplineSet
Layer: 2
SplineSet
18 42 m 4
 18 48 25 50 25 50 c 4
 47 50 33 25 132 25 c 4
 203 25 250 83 250 144 c 4
 250 239 146 262 88 262 c 4
 78 262 63 261 52 260 c 5
 49 342 48 379 48 407 c 4
 48 428 49 431 60 431 c 4
 79 431 133 428 167 428 c 4
 190 428 214 429 243 433 c 4
 255 435 256 459 256 459 c 5
 277 458 l 5
 269 395 l 6
 267 379 263 373 253 373 c 4
 224 373 121 387 111 387 c 4
 93 387 85 364 85 312 c 4
 85 292 88 292 102 292 c 4
 120 292 130 295 151 295 c 4
 238 295 327 249 327 151 c 4
 327 99 280 -8 140 -8 c 4
 43 -8 18 34 18 42 c 4
EndSplineSet
EndChar

StartChar: six.denom
Encoding: 65577 -1 113
Width: 375
VWidth: 0
Flags: W
HStem: -10 32<163.068 250.726> 233 46<157.222 259.311> 412 33<237.859 348.225>
VStem: 45 68<68.2869 239.387> 293 63<70.6154 197.168>
LayerCount: 3
Fore
SplineSet
288 445 m 0
 300 445 351 441 351 422 c 0
 351 415 345 411 340 411 c 0
 334 411 322 412 303 412 c 0
 239 412 187 369 160 333 c 0
 118 278 109 213 105 204 c 1
 139 259 193 279 223 279 c 0
 346 279 356 175 356 151 c 0
 356 47 268 -10 194 -10 c 0
 96 -10 45 69 45 169 c 0
 45 322 169 445 288 445 c 0
113 146 m 0
 113 80 156 22 207 22 c 0
 249 22 293 63 293 128 c 0
 293 193 251 233 201 233 c 0
 152 233 113 192 113 146 c 0
EndSplineSet
Layer: 2
SplineSet
36 191 m 4
 36 331 154 445 277 445 c 4
 290 445 347 435 347 416 c 4
 347 409 341 406 336 406 c 4
 330 406 316 412 296 412 c 4
 269 412 243 404 220 393 c 4
 113 341 104 217 98 204 c 5
 130 259 188 279 220 279 c 4
 365 279 373 155 373 147 c 4
 373 46 293 -10 210 -10 c 4
 97 -10 36 80 36 191 c 4
111 157 m 4
 111 87 164 22 222 22 c 4
 264 22 307 58 307 117 c 4
 307 189 256 233 199 233 c 4
 152 233 111 195 111 157 c 4
EndSplineSet
EndChar

StartChar: seven.denom
Encoding: 65578 -1 114
Width: 331
VWidth: 0
Flags: HMW
LayerCount: 3
Fore
SplineSet
71 427 m 0
 72 433 79 433 86 433 c 2
 315 433 l 2
 324 433 326 433 326 427 c 0
 326 364 243 145 233 116 c 2
 200 27 l 2
 189 -4 187 -7 177 -7 c 2
 125 -7 l 2
 117 -7 113 -3 113 2 c 0
 114 12 154 42 224 212 c 0
 255 289 275 356 276 372 c 0
 277 380 268 382 259 382 c 0
 235 382 171 374 132 366 c 0
 87 357 72 345 66 345 c 0
 61 345 59 347 59 356 c 0
 59 376 65 398 71 427 c 0
EndSplineSet
Layer: 2
SplineSet
37 362 m 4
 37 376 41 402 45 427 c 4
 46 433 53 433 61 433 c 6
 307 433 l 6
 318 433 319 433 319 424 c 4
 319 362 252 145 243 116 c 6
 214 27 l 6
 204 -4 203 -7 192 -7 c 6
 136 -7 l 6
 127 -7 122 -3 122 2 c 4
 122 12 163 42 226 212 c 4
 254 289 270 356 270 372 c 4
 270 380 261 382 251 382 c 4
 225 382 156 374 115 366 c 4
 67 357 52 345 46 345 c 4
 40 345 37 348 37 362 c 4
EndSplineSet
EndChar

StartChar: eight.denom
Encoding: 65579 -1 115
Width: 348
VWidth: 0
Flags: W
HStem: -12 30<122.799 225.489> 416 30<153.015 242.895>
VStem: 32 52<47.4099 153.255> 69 60<291.558 395.524> 259 64<53.2868 156.635> 272 44<292.444 395.058>
LayerCount: 3
Fore
SplineSet
32 91 m 0xe8
 32 178 136 215 147 221 c 1
 102 246 69 281 69 329 c 0
 69 402 132 446 206 446 c 0
 263 446 316 405 316 355 c 0xd4
 316 275 227 242 227 242 c 1
 244 233 323 194 323 123 c 0
 323 50 262 -12 170 -12 c 0
 77 -12 32 38 32 91 c 0xe8
162 211 m 1
 151 205 84 164 84 102 c 0
 84 55 123 18 173 18 c 0
 238 18 259 66 259 102 c 0xe8
 259 156 213 178 162 211 c 1
197 416 m 0
 148 416 129 378 129 344 c 0
 129 282 207 253 207 253 c 1
 207 253 272 279 272 342 c 0xd4
 272 393 232 416 197 416 c 0
EndSplineSet
Layer: 2
SplineSet
28 98 m 4xe4
 28 181 131 215 142 221 c 5
 89 247 49 285 49 337 c 4
 49 404 110 446 189 446 c 4
 252 446 314 403 314 350 c 4xd8
 314 273 226 242 226 242 c 5
 245 233 339 192 339 117 c 4
 339 49 283 -12 184 -12 c 4
 80 -12 28 42 28 98 c 4xe4
83 107 m 4xe4
 83 58 129 18 185 18 c 4
 186 18 187 18 188 18 c 4
 254 19 272 65 272 95 c 4
 272 154 219 177 159 211 c 5
 148 205 83 166 83 107 c 4xe4
113 350 m 4xd8
 113 284 204 253 204 253 c 5
 204 253 268 276 268 335 c 4
 268 391 221 416 181 416 c 4
 130 416 113 380 113 350 c 4xd8
EndSplineSet
EndChar

StartChar: nine.denom
Encoding: 65580 -1 116
Width: 355
VWidth: 0
Flags: W
HStem: -3 39<51.3757 196.782> 152 45<143.182 239.049> 419 29<154.427 229.191>
VStem: 45 64<232.074 365.236> 279 70<140.438 366.232>
LayerCount: 3
Fore
SplineSet
196 448 m 0
 289 448 349 375 349 262 c 0
 349 72 226 -3 133 -3 c 0
 69 -3 31 23 31 42 c 0
 31 51 35 55 41 55 c 0
 60 55 68 36 127 36 c 0
 234 36 285 146 285 215 c 1
 285 215 245 152 159 152 c 0
 89 152 45 211 45 281 c 0
 45 367 106 448 196 448 c 0
109 307 m 0
 109 273 122 197 203 197 c 0
 256 197 279 231 279 278 c 0
 279 351 244 419 191 419 c 0
 167 419 109 392 109 307 c 0
EndSplineSet
Layer: 2
SplineSet
27 292 m 4xf4
 27 370 84 448 178 448 c 4
 285 448 357 365 357 238 c 4xf8
 357 60 239 -3 144 -3 c 4
 73 -3 30 30 30 54 c 4
 30 62 34 65 40 65 c 4
 60 65 71 36 134 36 c 4
 248 36 292 144 292 207 c 4
 292 212 291 215 291 215 c 5
 291 215 252 152 160 152 c 4
 80 152 27 217 27 292 c 4xf4
94 314 m 4
 94 285 110 197 204 197 c 4
 255 197 281 227 281 264 c 4
 281 342 234 419 174 419 c 4
 147 419 94 396 94 314 c 4
EndSplineSet
EndChar

StartChar: slash
Encoding: 47 47 137
Width: 415
VWidth: 488
Flags: W
HStem: 686 20G<338.721 393>
DStem2: 5 -231 52 -231 0.341985 0.939706<16.0733 997.121>
LayerCount: 3
Fore
SplineSet
5 -231 m 1
 346 706 l 1
 393 706 l 1
 52 -231 l 1
 5 -231 l 1
EndSplineSet
Layer: 2
SplineSet
-4.8828125 -258.7890625 m 5
 353.02734375 724.609375 l 5
 399.4140625 724.609375 l 5
 41.50390625 -258.7890625 l 5
 -4.8828125 -258.7890625 l 5
EndSplineSet
AlternateSubs2: "'aalt' Access All Alternates lookup 0 subtable" fraction
AlternateSubs2: "'aalt' Access All Alternates in Latin lookup 0 subtable" fraction
Substitution2: "numerators subtable" fraction
EndChar

StartChar: fraction
Encoding: 8260 8260 138
Width: 415
VWidth: 488
Flags: W
DStem2: -41 -47 -7 -71 0.574282 0.818657<0 900.132>
LayerCount: 3
Fore
SplineSet
-41 -47 m 1
 476 690 l 1
 510 666 l 1
 -7 -71 l 1
 -41 -47 l 1
EndSplineSet
EndChar

StartChar: bar
Encoding: 124 124 139
Width: 415
VWidth: 488
Flags: W
HStem: 686 20G<182 226>
VStem: 182 44<-231 706>
LayerCount: 3
Fore
SplineSet
182 -231 m 1
 182 706 l 1
 226 706 l 1
 226 -231 l 1
 182 -231 l 1
EndSplineSet
EndChar

StartChar: at
Encoding: 64 64 140
Width: 764
VWidth: -13
Flags: W
HStem: -151 38<278.794 499.705> -11 70<265 319.86 455.5 553.127> 355 45<367.756 423.18> 509 30<321.228 524.285>
VStem: 42 66<54.2331 291.057> 226 51<67.2474 216.225> 419 66<30.5 200.642> 469 51<355.8 411.996> 676 36<178.538 375.088>
LayerCount: 3
Fore
SplineSet
446 290 m 0xfc80
 446 321 405 355 385 355 c 0
 350 355 277 235 277 131 c 0
 277 86 299 59 314 59 c 0
 353 59 446 230 446 290 c 0xfc80
413 539 m 0
 654 539 712 392 712 286 c 0
 712 109 586 -11 461 -11 c 0
 450 -11 419 0 419 61 c 0xfe80
 419 83 421 111 424 149 c 1
 412 126 387 81 357 44 c 0
 332 14 291 -11 275 -11 c 0
 255 -11 226 7 226 99 c 0
 226 185 245 222 289 293 c 0
 305 319 376 400 408 400 c 0
 444 400 459 339 459 339 c 1
 469 395 l 2
 472 412 486 412 492 412 c 2
 502 412 l 2
 517 412 520 411 520 400 c 0xfd80
 520 391 485 189 485 121 c 0xfe80
 485 73 497 59 534 59 c 0
 590 59 676 121 676 280 c 0
 676 352 650 509 416 509 c 0
 193 509 108 320 108 184 c 0
 108 22 192 -113 389 -113 c 0
 503 -113 605 -69 670 4 c 1
 682 -7 l 1
 627 -93 508 -151 370 -151 c 0
 144 -151 42 2 42 178 c 0
 42 347 182 539 413 539 c 0
EndSplineSet
EndChar

StartChar: parenleft
Encoding: 40 40 141
Width: 338
VWidth: 0
Flags: W
HStem: 666 20G<270.672 297>
VStem: 45 67<83.6821 385.185>
LayerCount: 3
Fore
SplineSet
45 229 m 0
 45 548 281 686 281 686 c 1
 297 667 l 1
 297 667 112 523 112 233 c 0
 112 -67 287 -200 287 -200 c 1
 269 -221 l 1
 269 -221 45 -45 45 229 c 0
EndSplineSet
EndChar

StartChar: parenright
Encoding: 41 41 142
Width: 338
VWidth: 0
Flags: W
HStem: 666 20G<45 71.3282>
VStem: 230 67<83.6821 385.185>
LayerCount: 3
Fore
SplineSet
45 667 m 1
 61 686 l 1
 61 686 297 548 297 229 c 0
 297 -45 73 -221 73 -221 c 1
 56 -200 l 1
 56 -200 230 -67 230 233 c 0
 230 523 45 667 45 667 c 1
EndSplineSet
EndChar

StartChar: asterisk
Encoding: 42 42 143
Width: 460
VWidth: 0
Flags: W
HStem: 424 58<195.674 212 244.078 260.488>
VStem: 183 84<262.169 381.359 540.429 651.058> 195 67<439.557 462.078> 212 28<362.208 421.981 482.139 528.725>
LayerCount: 3
Fore
SplineSet
44 371 m 0x90
 44 424 195 434 195 451 c 0xa0
 195 477 45 464 45 530 c 0
 45 561 76 570 84 570 c 0
 118 570 192 482 212 482 c 0x90
 216 482 216 486 216 491 c 0
 216 517 185 594 185 610 c 0
 185 641 207 659 229 659 c 0
 249 659 273 647 273 604 c 0
 273 582 244 507 244 485 c 0
 244 480 245 478 249 478 c 0
 270 478 330 566 372 566 c 0
 395 566 411 552 411 534 c 0
 411 465 262 471 262 451 c 0xa0
 262 428 402 430 402 367 c 0
 402 349 392 331 370 331 c 0
 325 331 258 422 245 422 c 0
 244 422 240 421 240 411 c 0x90
 240 385 267 322 267 298 c 0
 267 273 247 256 226 256 c 0
 205 256 183 274 183 295 c 0xc0
 183 318 212 403 212 420 c 0
 212 422 212 424 210 424 c 0
 196 424 126 334 80 334 c 0
 55 334 44 357 44 371 c 0x90
EndSplineSet
EndChar

StartChar: bracketleft
Encoding: 91 91 144
Width: 400
VWidth: 0
Flags: W
HStem: -231 29<144 303> 676 30<144 303>
VStem: 82 62<-202 676>
LayerCount: 3
Fore
SplineSet
82 -231 m 1
 82 706 l 1
 303 706 l 1
 303 676 l 1
 144 676 l 1
 144 -202 l 1
 303 -202 l 1
 303 -231 l 1
 82 -231 l 1
EndSplineSet
EndChar

StartChar: backslash
Encoding: 92 92 145
Width: 415
VWidth: 488
Flags: W
HStem: 686 20G<5 59.2785>
DStem2: 52 706 5 706 0.341985 -0.939706<0 981.048>
LayerCount: 3
Fore
SplineSet
5 706 m 1
 52 706 l 1
 393 -231 l 1
 346 -231 l 1
 5 706 l 1
EndSplineSet
EndChar

StartChar: bracketright
Encoding: 93 93 146
Width: 404
VWidth: 0
Flags: W
HStem: -231 29<82 241> 676 30<82 241>
VStem: 241 62<-202 676>
LayerCount: 3
Fore
SplineSet
82 -202 m 1
 241 -202 l 1
 241 676 l 1
 82 676 l 1
 82 706 l 1
 303 706 l 1
 303 -231 l 1
 82 -231 l 1
 82 -202 l 1
EndSplineSet
EndChar

StartChar: plus
Encoding: 43 43 147
Width: 843
VWidth: 0
Flags: W
HStem: 206 58<116 393 442 719>
VStem: 388 59<-67 210 260 537>
LayerCount: 3
Fore
SplineSet
116 206 m 1
 116 264 l 1
 365 264 393 260 393 260 c 1
 393 260 388 273 388 537 c 1
 447 537 l 1
 447 273 442 260 442 260 c 1
 442 260 472 264 719 264 c 1
 719 206 l 1
 472 206 442 210 442 210 c 1
 442 210 447 180 447 -67 c 1
 388 -67 l 1
 388 180 393 210 393 210 c 1
 393 210 365 206 116 206 c 1
EndSplineSet
EndChar

StartChar: braceright
Encoding: 125 125 148
Width: 308
VWidth: 488
Flags: W
HStem: -231 29<34 86.403> 230 19<242.281 281> 677 29<34 86.0692>
VStem: 133 65<-150.291 203.185 273.927 623.12>
LayerCount: 3
Fore
SplineSet
34 -202 m 1
 131 -202 138 -112 138 -29 c 0
 138 26 133 71 133 114 c 0
 133 178 150 221 200 240 c 1
 150 259 133 299 133 365 c 0
 133 409 137 454 137 509 c 0
 137 591 130 677 34 677 c 1
 34 706 l 1
 157 706 202 612 202 503 c 0
 202 458 198 417 198 381 c 0
 198 254 236 258 281 249 c 1
 281 230 l 1
 241 221 198 229 198 98 c 0
 198 61 202 20 202 -24 c 0
 202 -144 158 -231 34 -231 c 1
 34 -202 l 1
EndSplineSet
EndChar

StartChar: percent
Encoding: 37 37 149
Width: 870
VWidth: 0
Flags: W
HStem: -11 41<484.259 588.936> 270 40<600.377 698.667> 306 41<166.693 270.958> 577 33<373.625 621.471> 586 40<283.377 432.102>
VStem: 115 43<355.512 458.085> 389 48<472.383 579.162> 432 43<39.3215 142.201> 707 47<155.777 262.161>
DStem2: 103 -18 142 -40 0.681659 0.73167<10.488 878.678>
LayerCount: 3
Fore
SplineSet
94 -33 m 0x9680
 94 -30 96 -26 103 -18 c 2
 704 623 l 1
 682 612 604 577 490 577 c 0x9680
 468 577 443 580 418 583 c 1
 430 564 437 541 437 510 c 0
 437 398 335 306 232 306 c 0
 152 306 115 361 115 423 c 0
 115 543 240 626 326 626 c 0xae80
 371 626 373 610 488 610 c 0
 638 610 751 666 779 666 c 0
 783 666 787 665 787 661 c 0
 787 654 778 643 769 633 c 2
 142 -40 l 1
 111 -40 l 2
 101 -40 94 -39 94 -33 c 0x9680
158 397 m 0
 158 371 173 347 209 347 c 0
 300 347 389 474 389 542 c 0
 389 568 368 586 340 586 c 0xae80
 273 586 158 468 158 397 c 0
432 107 m 0xc580
 432 228 557 310 643 310 c 0
 704 310 754 275 754 193 c 0
 754 81 653 -11 550 -11 c 0
 470 -11 432 45 432 107 c 0xc580
475 81 m 0
 475 55 491 30 527 30 c 0
 618 30 707 158 707 226 c 0
 707 252 685 270 657 270 c 0
 590 270 475 152 475 81 c 0
EndSplineSet
Layer: 2
SplineSet
345.21484375 636.71875 m 0
 402.83203125 636.71875 407.2265625 616.2109375 555.6640625 616.2109375 c 0
 749.51171875 616.2109375 896.484375 688.96484375 932.12890625 688.96484375 c 0
 937.5 688.96484375 940.4296875 687.5 940.4296875 683.59375 c 0
 940.4296875 675.78125 931.15234375 662.59765625 917.96875 648.4375 c 2
 106.4453125 -228.515625 l 1
 67.3828125 -228.515625 l 2
 52.24609375 -228.515625 46.38671875 -226.07421875 46.38671875 -220.703125 c 0
 46.38671875 -216.30859375 50.78125 -209.9609375 58.10546875 -202.1484375 c 2
 841.796875 638.671875 l 1
 841.796875 638.671875 733.3984375 575.1953125 557.6171875 575.1953125 c 0
 527.34375 575.1953125 495.1171875 578.125 460.9375 583.0078125 c 1
 478.02734375 559.08203125 487.79296875 527.34375 487.79296875 485.83984375 c 0
 487.79296875 341.796875 355.95703125 223.14453125 224.609375 223.14453125 c 0
 122.0703125 223.14453125 73.73046875 293.9453125 73.73046875 374.51171875 c 0
 73.73046875 529.78515625 234.86328125 636.71875 345.21484375 636.71875 c 0
305.6640625 507.32421875 m 0
 305.6640625 414.55078125 232.91015625 280.2734375 158.69140625 280.2734375 c 0
 104.98046875 280.2734375 83.0078125 323.2421875 83.0078125 376.46484375 c 0
 83.0078125 491.69921875 173.828125 601.5625 239.74609375 601.5625 c 0
 269.53125 601.5625 414.0625 613.28125 455.078125 725.5859375 c 1
 495.1171875 708.49609375 l 1
 108.3984375 -190.91796875 l 1
 73.2421875 -175.29296875 l 1
 418.9453125 619.62890625 l 1
 397.94921875 605.46875 346.6796875 572.265625 274.4140625 567.87109375 c 1
 300.29296875 554.6875 305.6640625 517.08984375 305.6640625 507.32421875 c 0
194.82421875 272.4609375 m 0
 313.4765625 272.4609375 429.19921875 437.98828125 429.19921875 528.3203125 c 0
 429.19921875 562.5 402.34375 587.40234375 363.28125 587.40234375 c 0
 275.87890625 587.40234375 125.9765625 433.10546875 125.9765625 339.84375 c 0
 125.9765625 305.17578125 147.4609375 272.4609375 194.82421875 272.4609375 c 0
238.76953125 553.7109375 m 0
 193.84765625 553.7109375 139.6484375 436.5234375 139.6484375 369.140625 c 0
 139.6484375 349.609375 145.01953125 328.125 165.0390625 328.125 c 0
 214.35546875 328.125 269.53125 441.40625 269.53125 508.7890625 c 0
 269.53125 531.25 263.18359375 553.7109375 238.76953125 553.7109375 c 0
424.8046875 222.65625 m 0
 473.14453125 222.65625 492.1875 186.5234375 492.1875 139.16015625 c 0
 492.1875 46.875 417.96875 -97.65625 343.75 -97.65625 c 0
 290.0390625 -97.65625 268.5546875 -55.17578125 268.5546875 -1.953125 c 0
 268.5546875 112.3046875 357.91015625 222.65625 424.8046875 222.65625 c 0
423.828125 175.78125 m 0
 379.8828125 175.78125 325.1953125 60.05859375 325.1953125 -9.27734375 c 0
 325.1953125 -29.296875 330.078125 -50.78125 350.09765625 -50.78125 c 0
 399.90234375 -50.78125 455.078125 63.96484375 455.078125 130.37109375 c 0
 455.078125 152.83203125 448.2421875 175.78125 423.828125 175.78125 c 0
897.94921875 74.21875 m 0
 897.94921875 -69.82421875 766.11328125 -188.4765625 634.765625 -188.4765625 c 0
 532.2265625 -188.4765625 483.88671875 -117.67578125 483.88671875 -37.109375 c 0
 483.88671875 118.1640625 645.01953125 225.09765625 755.37109375 225.09765625 c 0
 833.49609375 225.09765625 897.94921875 179.19921875 897.94921875 74.21875 c 0
604.98046875 -139.16015625 m 0
 723.6328125 -139.16015625 839.35546875 26.3671875 839.35546875 116.69921875 c 0
 839.35546875 150.87890625 812.5 175.78125 773.4375 175.78125 c 0
 686.03515625 175.78125 536.1328125 21.484375 536.1328125 -71.77734375 c 0
 536.1328125 -106.4453125 557.6171875 -139.16015625 604.98046875 -139.16015625 c 0
EndSplineSet
EndChar

StartChar: sterling
Encoding: 163 163 150
Width: 562
VWidth: 0
Flags: W
HStem: -15 40<357.031 427.073> 98 25<192 273.387> 245 39<91 198 267 386> 628 33<307.664 388.382>
VStem: 189 83<285.927 533.078> 402 80<529.329 619.376> 434 45<32.5897 107.84>
LayerCount: 3
Fore
SplineSet
81 23 m 0xfa
 81 74 156 94 184 113 c 1
 199 129 205 187 205 216 c 0
 205 218 203 229 202 245 c 1
 91 245 l 1
 91 284 l 1
 198 284 l 1
 194 325 189 373 189 394 c 0
 189 575 270 661 373 661 c 0
 429 661 482 621 482 570 c 0
 482 542 464 523 444 523 c 0
 426 523 409 535 402 572 c 0xfc
 396 600 392 628 350 628 c 0
 318 628 271 602 271 518 c 0
 271 491 272 446 272 359 c 0
 272 332 270 307 267 284 c 1
 386 284 l 1
 386 245 l 1
 261 245 l 1
 245 168 217 120 217 120 c 1
 217 120 222 123 229 123 c 0
 315 123 345 25 398 25 c 0
 419 25 434 48 434 69 c 0
 434 102 394 111 394 144 c 0
 394 161 406 181 425 181 c 0
 457 181 479 137 479 98 c 0
 479 38 431 -15 360 -15 c 0
 297 -15 281 26 249 67 c 0
 232 88 220 98 209 98 c 0
 175 98 175 -13 115 -13 c 0
 95 -13 81 4 81 23 c 0xfa
EndSplineSet
Layer: 2
SplineSet
382.8125 733.88671875 m 4
 445.3125 733.88671875 504.39453125 689.453125 504.39453125 632.8125 c 4
 504.39453125 602.05078125 484.375 581.0546875 461.9140625 581.0546875 c 4
 442.3828125 581.0546875 423.33984375 593.75 415.0390625 634.765625 c 4
 408.69140625 665.52734375 403.80859375 697.265625 357.421875 697.265625 c 4
 322.265625 697.265625 269.04296875 667.48046875 269.04296875 574.21875 c 4
 269.04296875 544.43359375 270.99609375 495.1171875 270.99609375 398.4375 c 4
 270.99609375 368.65234375 268.5546875 340.33203125 265.13671875 314.94140625 c 5
 396.97265625 314.94140625 l 5
 396.97265625 270.99609375 l 5
 257.8125 270.99609375 l 5
 239.74609375 186.03515625 209.47265625 132.8125 209.47265625 132.8125 c 5
 209.47265625 132.8125 215.33203125 136.23046875 223.14453125 136.23046875 c 4
 318.84765625 136.23046875 351.5625 27.34375 410.15625 27.34375 c 4
 434.08203125 27.34375 449.70703125 52.24609375 449.70703125 76.171875 c 4
 449.70703125 112.3046875 405.2734375 123.046875 405.2734375 159.1796875 c 4
 405.2734375 177.734375 419.43359375 200.1953125 440.4296875 200.1953125 c 4
 475.5859375 200.1953125 500.9765625 151.85546875 500.9765625 108.3984375 c 4
 500.9765625 42.48046875 446.77734375 -17.08984375 368.1640625 -17.08984375 c 4
 297.8515625 -17.08984375 280.2734375 28.3203125 244.62890625 73.73046875 c 4
 226.07421875 97.65625 211.9140625 108.3984375 200.1953125 108.3984375 c 4
 162.109375 108.3984375 162.109375 -15.625 95.703125 -15.625 c 4
 74.21875 -15.625 58.10546875 3.90625 58.10546875 24.90234375 c 4
 58.10546875 82.03125 142.08984375 104.00390625 172.8515625 124.51171875 c 5
 188.96484375 142.08984375 195.3125 206.54296875 195.3125 239.2578125 c 4
 195.3125 241.69921875 193.84765625 253.90625 192.3828125 270.99609375 c 5
 68.84765625 270.99609375 l 5
 68.84765625 314.94140625 l 5
 187.98828125 314.94140625 l 5
 183.59375 360.3515625 178.7109375 413.57421875 178.7109375 436.5234375 c 4
 178.7109375 637.20703125 268.5546875 733.88671875 382.8125 733.88671875 c 4
EndSplineSet
EndChar

StartChar: less
Encoding: 60 60 151
Width: 761
VWidth: 10
Flags: W
DStem2: 59 255 163 244 0.901873 0.432001<89.0428 684.017> 163 244 59 233 0.901873 -0.432001<0 594.974>
LayerCount: 3
Fore
SplineSet
59 255 m 1
 702 563 l 1
 702 496 l 1
 163 244 l 1
 702 -8 l 1
 702 -75 l 1
 59 233 l 1
 59 255 l 1
EndSplineSet
EndChar

StartChar: equal
Encoding: 61 61 152
Width: 853
VWidth: 0
Flags: W
HStem: 122 59<120 724> 289 59<120 724>
LayerCount: 3
Fore
SplineSet
120 122 m 1
 120 181 l 1
 724 181 l 1
 724 122 l 1
 120 122 l 1
120 289 m 1
 120 348 l 1
 724 348 l 1
 724 289 l 1
 120 289 l 1
EndSplineSet
EndChar

StartChar: greater
Encoding: 62 62 153
Width: 761
VWidth: 0
Flags: W
DStem2: 59 563 59 496 0.901873 -0.432001<28.9441 623.918> 59 -8 59 -75 0.901873 0.432001<0 594.974>
LayerCount: 3
Fore
SplineSet
702 233 m 1
 59 -75 l 1
 59 -8 l 1
 598 244 l 1
 59 496 l 1
 59 563 l 1
 702 255 l 1
 702 233 l 1
EndSplineSet
EndChar

StartChar: notequal
Encoding: 8800 8800 154
Width: 691
VWidth: 0
Flags: W
HStem: 239 49<57 206 327 622> 378 49<57 350 471 622>
DStem2: 35 74 106 74 0.719033 0.694976<51.0513 237.626 358.682 437.768 558.825 748.227>
LayerCount: 3
Fore
SplineSet
35 74 m 1
 206 239 l 1
 57 239 l 1
 57 288 l 1
 256 288 l 1
 350 378 l 1
 57 378 l 1
 57 427 l 1
 400 427 l 1
 573 594 l 1
 644 594 l 1
 471 427 l 1
 622 427 l 1
 622 378 l 1
 420 378 l 1
 327 288 l 1
 622 288 l 1
 622 239 l 1
 276 239 l 1
 106 74 l 1
 35 74 l 1
EndSplineSet
EndChar

StartChar: uni2053
Encoding: 8275 8275 156
Width: 941
VWidth: 0
Flags: W
HStem: 217 53<633.48 770.2> 389 60<171.812 304.709>
VStem: 32 32<221.469 270.929> 876 32<403.083 443.312>
LayerCount: 3
Fore
SplineSet
32 223 m 1
 32 223 73 449 263 449 c 0
 442 449 579 270 724 270 c 0
 833 270 876 448 876 448 c 1
 908 442 l 1
 903 431 867 217 680 217 c 0
 495 217 358 389 208 389 c 0
 90 389 64 216 64 216 c 1
 32 223 l 1
EndSplineSet
EndChar

StartChar: plusminus
Encoding: 177 177 157
Width: 794
VWidth: 0
Flags: W
HStem: -23 59<135 700> 289 58<135 393 442 700>
VStem: 388 59<75 293 343 561>
LayerCount: 3
Fore
SplineSet
135 -23 m 1
 135 36 l 1
 700 36 l 1
 700 -23 l 1
 135 -23 l 1
135 289 m 1
 135 347 l 1
 353 347 393 343 393 343 c 1
 393 343 388 383 388 561 c 1
 447 561 l 1
 447 392 442 343 442 343 c 1
 442 343 492 347 700 347 c 1
 700 289 l 1
 481 289 442 293 442 293 c 1
 442 293 447 254 447 75 c 1
 388 75 l 1
 388 252 393 293 393 293 c 1
 393 293 353 289 135 289 c 1
EndSplineSet
EndChar

StartChar: minus
Encoding: 8722 8722 158
Width: 806
VWidth: 0
Flags: W
HStem: 206 58<110 694>
LayerCount: 3
Fore
SplineSet
110 206 m 1
 110 264 l 1
 694 264 l 1
 694 206 l 1
 110 206 l 1
EndSplineSet
EndChar

StartChar: multiply
Encoding: 215 215 159
Width: 843
VWidth: 0
Flags: W
DStem2: 417 270 382 235 0.707107 -0.707107<-276.479 0 50.2046 326.683> 382 235 417 200 0.707107 0.707107<-276.479 0 50.2046 326.683>
LayerCount: 3
Fore
SplineSet
183 42 m 1
 359 218 382 235 382 235 c 1
 382 235 370 241 183 428 c 1
 225 469 l 1
 412 282 417 270 417 270 c 1
 417 270 435 294 610 469 c 1
 652 428 l 1
 477 253 453 235 453 235 c 1
 453 235 477 217 652 42 c 1
 610 1 l 1
 435 176 417 200 417 200 c 1
 417 200 401 177 225 1 c 1
 183 42 l 1
EndSplineSet
EndChar

StartChar: divide
Encoding: 247 247 160
Width: 806
VWidth: 0
Flags: W
HStem: 18 121<356.107 447.323> 206 58<110 694> 331 121<356.107 447.323>
VStem: 341 121<32.6773 123.893 346.107 437.323>
CounterMasks: 1 e0
LayerCount: 3
Fore
SplineSet
110 206 m 1
 110 264 l 1
 694 264 l 1
 694 206 l 1
 110 206 l 1
341 78 m 0
 341 111 369 139 402 139 c 0
 435 139 462 111 462 78 c 0
 462 45 435 18 402 18 c 0
 369 18 341 45 341 78 c 0
341 392 m 0
 341 425 369 452 402 452 c 0
 435 452 462 425 462 392 c 0
 462 359 435 331 402 331 c 0
 369 331 341 359 341 392 c 0
EndSplineSet
EndChar

StartChar: underscore
Encoding: 95 95 161
Width: 186
VWidth: 488
Flags: HW
HStem: -102 43<0 186>
VStem: 0 186<-102 -59>
AnchorPoint: "l;bl" 0 15 basechar 0
AnchorPoint: "l;x" 0 376 basechar 0
AnchorPoint: "l;hi" 0 684 basechar 0
AnchorPoint: "l;o" 0 195 basechar 0
AnchorPoint: "l;lo" 0 -244 basechar 0
AnchorPoint: "r;bl" 186 15 basechar 0
AnchorPoint: "r;x" 186 376 basechar 0
AnchorPoint: "r;hi" 186 684 basechar 0
AnchorPoint: "r;o" 186 195 basechar 0
AnchorPoint: "r;lo" 186 -244 basechar 0
LayerCount: 3
Fore
SplineSet
0 -59 m 1
 186 -59 l 1
 186 -102 l 1
 0 -102 l 1
 0 -59 l 1
EndSplineSet
EndChar

StartChar: asciicircum
Encoding: 94 94 162
Width: 402
VWidth: 0
Flags: W
HStem: 331 320
VStem: 40 326
DStem2: 40 331 103 331 0.440468 0.897768<27.7495 262.123> 209 651 203 543 0.440468 -0.897768<94.3162 328.69>
LayerCount: 3
Fore
SplineSet
40 331 m 1
 197 651 l 1
 209 651 l 1
 366 331 l 1
 303 331 l 1
 203 543 l 1
 103 331 l 1
 40 331 l 1
EndSplineSet
EndChar

StartChar: numbersign
Encoding: 35 35 163
Width: 483
VWidth: 0
Flags: W
HStem: 257 34<49 138 188 261 311 427> 366 34<50 168 218 291 341 428> 667 20G<251.495 298 375.425 421>
DStem2: 53 -49 94 -49 0.267104 0.963668<10.9512 317.586 363.706 430.639 476.759 763.749> 175 -49 215 -49 0.269533 0.962991<10.7813 317.855 364.073 430.907 477.126 764.285>
LayerCount: 3
Fore
SplineSet
49 257 m 1
 49 291 l 1
 147 291 l 1
 168 366 l 1
 50 366 l 1
 50 400 l 1
 178 400 l 1
 257 687 l 1
 298 687 l 1
 218 400 l 1
 301 400 l 1
 381 687 l 1
 421 687 l 1
 341 400 l 1
 428 400 l 1
 428 366 l 1
 332 366 l 1
 311 291 l 1
 427 291 l 1
 427 257 l 1
 301 257 l 1
 215 -49 l 1
 175 -49 l 1
 261 257 l 1
 178 257 l 1
 94 -49 l 1
 53 -49 l 1
 138 257 l 1
 49 257 l 1
188 291 m 1
 270 291 l 1
 291 366 l 1
 209 366 l 1
 188 291 l 1
EndSplineSet
Layer: 2
SplineSet
61.5234375 138.671875 m 5
 61.5234375 172.8515625 l 5
 184.08203125 172.8515625 l 5
 211.42578125 275.390625 l 5
 61.5234375 275.390625 l 5
 61.5234375 309.5703125 l 5
 220.703125 309.5703125 l 5
 318.359375 673.33984375 l 5
 358.3984375 673.33984375 l 5
 260.7421875 309.5703125 l 5
 366.2109375 309.5703125 l 5
 463.8671875 673.33984375 l 5
 504.39453125 673.33984375 l 5
 406.73828125 309.5703125 l 5
 518.5546875 309.5703125 l 5
 518.5546875 275.390625 l 5
 397.4609375 275.390625 l 5
 370.1171875 172.8515625 l 5
 518.5546875 172.8515625 l 5
 518.5546875 138.671875 l 5
 360.83984375 138.671875 l 5
 258.30078125 -243.1640625 l 5
 218.26171875 -243.1640625 l 5
 320.3125 138.671875 l 5
 214.84375 138.671875 l 5
 112.79296875 -243.1640625 l 5
 72.265625 -243.1640625 l 5
 174.8046875 138.671875 l 5
 61.5234375 138.671875 l 5
224.12109375 172.8515625 m 5
 329.58984375 172.8515625 l 5
 356.93359375 275.390625 l 5
 251.953125 275.390625 l 5
 224.12109375 172.8515625 l 5
EndSplineSet
EndChar

StartChar: currency
Encoding: 164 164 164
Width: 527
Flags: W
HStem: 65 55<188.884 336.297> 404 53<189.862 335.383>
VStem: 67 57<185.877 337.198> 403 58<187.408 335.118>
DStem2: 77 487 38 448 0.706249 -0.707963<-33.3796 100.31 481.774 616.81> 381 418 420 378 0.706249 0.707963<-519.275 -384.85 -4.11932 130.3>
LayerCount: 3
Fore
SplineSet
20 44 m 0
 20 56 29 65 38 74 c 2
 106 143 l 1
 81 176 67 217 67 262 c 0
 67 305 81 347 105 379 c 1
 38 448 l 2
 36 450 20 463 20 478 c 0
 20 494 33 505 46 505 c 0
 58 505 68 496 77 487 c 2
 146 418 l 1
 178 442 220 457 263 457 c 0
 310 457 350 441 381 418 c 1
 450 487 l 2
 452 489 465 504 480 504 c 0
 496 504 507 491 507 478 c 0
 507 466 498 457 489 448 c 2
 420 378 l 1
 444 345 461 304 461 260 c 0
 461 217 444 176 420 144 c 1
 489 74 l 2
 491 72 507 59 507 44 c 0
 507 28 493 17 480 17 c 0
 468 17 459 26 450 35 c 2
 381 104 l 1
 349 80 307 65 263 65 c 0
 220 65 178 79 146 103 c 1
 77 35 l 2
 75 33 61 18 46 18 c 0
 30 18 20 31 20 44 c 0
124 260 m 0
 124 181 187 120 263 120 c 0
 339 120 403 183 403 261 c 0
 403 338 340 404 263 404 c 0
 185 404 124 338 124 260 c 0
EndSplineSet
EndChar

StartChar: dagger
Encoding: 8224 8224 165
Width: 472
VWidth: 0
Flags: W
HStem: 371 91<50.9321 169.078 302.368 416.824> 404 23<175.738 221.984 251.001 297.072>
VStem: 185 99<530.208 714.114> 202 61<-216.309 56.3524> 223 24<342.609 403.991 427.001 500.31>
LayerCount: 3
Fore
SplineSet
43 414 m 0x88
 43 449 75 462 89 462 c 0x88
 130 462 189 427 220 427 c 0
 222 427 222 428 222 429 c 0
 222 484 185 609 185 650 c 0
 185 702 208 725 234 725 c 0
 261 725 284 705 284 653 c 0
 284 626 251 482 251 435 c 0
 251 427 252 427 254 427 c 0x60
 297 429 329 462 371 462 c 0
 390 462 424 451 424 418 c 0
 424 382 393 371 370 371 c 0xa0
 335 371 293 404 250 404 c 0
 248 404 247 404 247 402 c 0x48
 247 385 284 208 284 208 c 1x60
 284 208 263 122 263 -166 c 0
 263 -186 249 -219 233 -219 c 0
 212 -219 202 -186 202 -167 c 0x50
 202 125 182 208 182 208 c 1
 182 208 223 387 223 403 c 0
 223 404 220 405 220 405 c 0
 182 405 138 371 93 371 c 0
 88 371 43 372 43 414 c 0x88
EndSplineSet
Layer: 2
SplineSet
201.66015625 -166.50390625 m 4
 201.66015625 125 181.640625 208.0078125 181.640625 208.0078125 c 5
 181.640625 208.0078125 223.14453125 386.71875 223.14453125 402.83203125 c 4
 223.14453125 403.80859375 220.21484375 404.78515625 219.7265625 404.78515625 c 4
 181.640625 404.78515625 137.6953125 370.60546875 92.7734375 370.60546875 c 4
 87.890625 370.60546875 42.96875 371.58203125 42.96875 414.0625 c 4
 42.96875 449.21875 75.68359375 462.40234375 89.35546875 462.40234375 c 4
 130.37109375 462.40234375 188.96484375 426.7578125 219.7265625 426.7578125 c 4
 221.6796875 426.7578125 221.6796875 427.734375 221.6796875 428.7109375 c 4
 221.6796875 483.3984375 184.5703125 608.88671875 184.5703125 649.90234375 c 4
 184.5703125 702.1484375 207.51953125 724.609375 233.88671875 724.609375 c 4
 260.7421875 724.609375 283.69140625 705.56640625 283.69140625 653.3203125 c 4
 283.69140625 625.9765625 250.9765625 482.421875 250.9765625 435.05859375 c 4
 250.9765625 427.24609375 251.953125 426.7578125 253.90625 426.7578125 c 4
 296.875 429.19921875 328.61328125 462.40234375 370.60546875 462.40234375 c 4
 389.6484375 462.40234375 424.31640625 451.66015625 424.31640625 418.45703125 c 4
 424.31640625 382.32421875 393.5546875 370.60546875 370.1171875 370.60546875 c 4
 334.9609375 370.60546875 292.48046875 404.296875 249.51171875 404.296875 c 4
 247.0703125 404.296875 247.0703125 403.80859375 247.0703125 401.85546875 c 4
 247.0703125 385.25390625 283.69140625 208.0078125 283.69140625 208.0078125 c 5
 283.69140625 208.0078125 262.6953125 122.0703125 262.6953125 -165.52734375 c 4
 262.6953125 -185.546875 249.0234375 -218.75 233.3984375 -218.75 c 4
 211.9140625 -218.75 201.66015625 -185.546875 201.66015625 -166.50390625 c 4
EndSplineSet
EndChar

StartChar: daggerdbl
Encoding: 8225 8225 166
Width: 472
VWidth: 0
Flags: W
HStem: -33 92<50.9197 163.681 300.1 415.178> 3 22<172.749 215.999 246 288.838> 444 92<51.8219 167.493 303.319 416.824> 478 22<178.889 221.984 251.001 293.301> 692 20G<223 249.5>
VStem: 184 99<-198.947 -68.8828 575.183 701.609> 220 24<26.828 68.8144 435.01 477.999>
LayerCount: 3
Fore
SplineSet
43 11 m 0x8c
 43 47 75 59 98 59 c 0x8c
 133 59 176 25 218 25 c 0
 220 25 220 26 220 28 c 0
 220 45 188 141 188 141 c 1
 220 249 l 1
 187 352 l 1
 187 352 223 460 223 476 c 0
 223 477 220 478 220 478 c 0x5a
 182 478 138 444 93 444 c 0
 88 444 43 445 43 487 c 0
 43 522 76 536 90 536 c 0x2a
 131 536 189 500 220 500 c 0x1a
 222 500 222 501 222 502 c 0
 222 557 185 606 185 647 c 0
 185 695 210 712 236 712 c 0
 263 712 283 698 283 651 c 0
 283 624 251 555 251 508 c 0
 251 500 252 500 254 500 c 0x1c
 296 502 328 536 370 536 c 0
 389 536 424 525 424 492 c 0
 424 456 393 444 370 444 c 0x2c
 335 444 292 478 250 478 c 0
 248 478 247 477 247 475 c 0
 247 458 279 352 279 352 c 1
 247 249 l 1
 281 141 l 1
 281 141 244 43 244 27 c 0
 244 26 248 25 248 25 c 0x5a
 286 25 329 59 374 59 c 0
 379 59 424 58 424 16 c 0
 424 -19 391 -33 377 -33 c 0x8a
 336 -33 279 3 248 3 c 0
 246 3 246 2 246 1 c 0
 246 -54 283 -104 283 -145 c 0
 283 -192 257 -209 231 -209 c 0
 204 -209 184 -194 184 -148 c 0
 184 -121 216 -52 216 -5 c 0
 216 3 215 3 213 3 c 0x4c
 171 1 139 -33 97 -33 c 0
 78 -33 43 -22 43 11 c 0x8c
EndSplineSet
Layer: 2
SplineSet
186.5234375 352.05078125 m 5
 186.5234375 352.05078125 223.14453125 459.9609375 223.14453125 476.07421875 c 4
 223.14453125 477.05078125 220.21484375 478.02734375 219.7265625 478.02734375 c 4
 181.640625 478.02734375 138.18359375 443.84765625 93.26171875 443.84765625 c 4
 88.37890625 443.84765625 43.45703125 444.82421875 43.45703125 487.3046875 c 4
 43.45703125 522.4609375 76.171875 535.64453125 89.84375 535.64453125 c 4
 130.859375 535.64453125 188.96484375 500 219.7265625 500 c 4
 221.6796875 500 221.6796875 500.9765625 221.6796875 501.953125 c 4
 221.6796875 556.640625 184.5703125 606.4453125 184.5703125 647.4609375 c 4
 184.5703125 695.80078125 209.9609375 712.40234375 236.328125 712.40234375 c 4
 263.18359375 712.40234375 283.203125 698.2421875 283.203125 650.87890625 c 4
 283.203125 623.53515625 250.9765625 555.6640625 250.9765625 508.30078125 c 4
 250.9765625 500.48828125 251.953125 500 253.90625 500 c 4
 296.38671875 502.44140625 328.125 535.64453125 370.1171875 535.64453125 c 4
 389.16015625 535.64453125 423.828125 524.90234375 423.828125 491.69921875 c 4
 423.828125 455.56640625 393.06640625 443.84765625 369.62890625 443.84765625 c 4
 334.47265625 443.84765625 291.9921875 477.5390625 249.51171875 477.5390625 c 4
 247.0703125 477.5390625 247.0703125 477.05078125 247.0703125 475.09765625 c 4
 247.0703125 458.49609375 278.80859375 352.05078125 278.80859375 352.05078125 c 5
 247.0703125 248.53515625 l 5
 280.76171875 141.11328125 l 5
 280.76171875 141.11328125 244.140625 42.96875 244.140625 26.85546875 c 4
 244.140625 25.87890625 247.0703125 24.90234375 247.55859375 24.90234375 c 4
 285.64453125 24.90234375 329.1015625 59.08203125 374.0234375 59.08203125 c 4
 378.90625 59.08203125 423.828125 58.10546875 423.828125 15.625 c 4
 423.828125 -19.53125 391.11328125 -32.71484375 377.44140625 -32.71484375 c 4
 336.42578125 -32.71484375 278.3203125 2.9296875 247.55859375 2.9296875 c 4
 245.60546875 2.9296875 245.60546875 1.953125 245.60546875 0.9765625 c 4
 245.60546875 -53.7109375 282.71484375 -103.515625 282.71484375 -144.53125 c 4
 282.71484375 -191.40625 257.32421875 -209.47265625 230.95703125 -209.47265625 c 4
 204.1015625 -209.47265625 184.08203125 -194.3359375 184.08203125 -147.94921875 c 4
 184.08203125 -120.60546875 216.30859375 -52.734375 216.30859375 -5.37109375 c 4
 216.30859375 2.44140625 215.33203125 2.9296875 213.37890625 2.9296875 c 4
 170.8984375 0.48828125 139.16015625 -32.71484375 97.16796875 -32.71484375 c 4
 78.125 -32.71484375 43.45703125 -21.97265625 43.45703125 11.23046875 c 4
 43.45703125 47.36328125 74.21875 59.08203125 97.65625 59.08203125 c 4
 132.8125 59.08203125 175.29296875 25.390625 217.7734375 25.390625 c 4
 220.21484375 25.390625 220.21484375 25.87890625 220.21484375 27.83203125 c 4
 220.21484375 44.43359375 188.4765625 141.11328125 188.4765625 141.11328125 c 5
 220.21484375 248.53515625 l 5
 186.5234375 352.05078125 l 5
EndSplineSet
EndChar

StartChar: paragraph
Encoding: 182 182 167
Width: 668
VWidth: 0
Flags: W
HStem: 662 32<341.482 469.446>
VStem: 37 166<190.893 462.36> 303 37<-6 647> 595 62<-173.971 -113.721>
LayerCount: 3
Fore
SplineSet
37 341 m 0
 37 557 208 694 405 694 c 0
 498 694 529 662 529 646 c 0
 529 634 519 627 511 627 c 0
 490 627 469 662 396 662 c 0
 369 662 348 657 340 657 c 9
 340 -14 l 17
 443 -39 657 -18 657 -130 c 0
 657 -159 642 -191 615 -191 c 0
 608 -191 588 -191 588 -165 c 0
 588 -154 595 -148 595 -140 c 0
 595 -78 343 -70 236 -21 c 0
 98 42 37 178 37 341 c 0
203 43 m 17
 231 19 258 6 303 -6 c 9
 303 647 l 17
 250 634 220 613 203 598 c 9
 203 43 l 17
EndSplineSet
EndChar

StartChar: section
Encoding: 167 167 168
Width: 446
VWidth: 0
Flags: W
HStem: -210 31<186.125 288.913> -35 20G<138.5 161.5> 88 19<278.621 337.903> 389 18<131.087 165> 669 33<165.475 249.89>
VStem: 56 45<269.731 371.302> 88 50<531.673 647.275> 96 76<-154.969 -59.9434> 252 91<577.282 659.079> 325 50<-152.37 -42.8794> 358 39<121.739 303.219>
LayerCount: 3
Fore
SplineSet
56 295 m 0xfc40
 56 379 108 407 152 407 c 0
 157 407 162 406 165 406 c 1
 163 411 88 479 88 573 c 0
 88 665 152 702 216 702 c 0
 300 702 343 649 343 604 c 0
 343 562 319 548 293 548 c 0
 263 548 229 568 229 591 c 0
 229 611 252 629 252 646 c 0
 252 659 240 669 223 669 c 0
 181 669 138 653 138 589 c 0
 138 474 397 398 397 204 c 0xfaa0
 397 105 346 88 311 88 c 0
 296 88 287 91 277 93 c 1
 305 67 375 2 375 -87 c 0
 375 -170 307 -210 239 -210 c 0
 169 -210 96 -168 96 -89 c 0
 96 -45 122 -15 155 -15 c 0
 168 -15 211 -41 211 -64 c 0
 211 -88 172 -112 172 -136 c 0xf940
 172 -153 184 -179 241 -179 c 0
 278 -179 325 -150 325 -105 c 0
 325 -25 223 29 143 112 c 0
 78 179 56 245 56 295 c 0xfc40
101 333 m 0xfc20
 101 254 250 107 304 107 c 0
 334 107 358 123 358 153 c 0
 358 231 198 389 170 389 c 0
 128 389 101 365 101 333 c 0xfc20
EndSplineSet
Layer: 2
SplineSet
55.6640625 294.921875 m 4xfc40
 55.6640625 379.39453125 107.421875 406.73828125 151.85546875 406.73828125 c 4
 157.2265625 406.73828125 161.62109375 406.25 165.0390625 405.76171875 c 5
 162.59765625 410.64453125 87.890625 479.00390625 87.890625 572.75390625 c 4
 87.890625 664.55078125 152.34375 702.1484375 216.30859375 702.1484375 c 4
 279.296875 702.1484375 343.75 665.0390625 343.75 605.95703125 c 4
 343.75 578.125 321.2890625 543.9453125 284.66796875 543.9453125 c 4
 256.8359375 543.9453125 229.98046875 559.5703125 229.98046875 590.8203125 c 4
 229.98046875 623.53515625 252.44140625 624.51171875 252.44140625 647.94921875 c 4
 252.44140625 656.25 246.58203125 668.9453125 218.75 668.9453125 c 4
 181.640625 668.9453125 137.6953125 652.34375 137.6953125 588.8671875 c 4
 137.6953125 473.6328125 396.97265625 397.4609375 396.97265625 203.61328125 c 4xfaa0
 396.97265625 104.98046875 345.21484375 87.890625 310.546875 87.890625 c 4
 295.41015625 87.890625 287.59765625 90.8203125 277.34375 93.26171875 c 5
 305.6640625 66.89453125 375.48828125 1.953125 375.48828125 -87.40234375 c 4
 375.48828125 -170.8984375 307.12890625 -210.44921875 238.76953125 -210.44921875 c 4
 168.9453125 -210.44921875 95.703125 -167.96875 95.703125 -89.35546875 c 4
 95.703125 -44.921875 132.8125 -15.625 165.52734375 -15.625 c 4
 195.3125 -15.625 211.42578125 -41.015625 211.42578125 -63.96484375 c 4
 211.42578125 -112.3046875 171.875 -111.81640625 171.875 -136.23046875 c 4xf940
 171.875 -153.3203125 184.08203125 -178.7109375 241.2109375 -178.7109375 c 4
 278.3203125 -178.7109375 325.1953125 -150.390625 325.1953125 -105.46875 c 4
 325.1953125 -34.1796875 245.1171875 15.625 174.8046875 80.56640625 c 5
 85.44921875 159.66796875 55.6640625 236.81640625 55.6640625 294.921875 c 4xfc40
385.25390625 -67.87109375 m 0xf080
 385.25390625 -152.83203125 315.4296875 -193.359375 244.140625 -193.359375 c 0
 170.41015625 -193.359375 95.703125 -150.390625 95.703125 -69.82421875 c 0
 95.703125 -24.4140625 133.7890625 6.34765625 167.96875 6.34765625 c 0
 200.1953125 6.34765625 218.26171875 -20.5078125 218.26171875 -44.43359375 c 0
 218.26171875 -93.26171875 176.7578125 -94.23828125 176.7578125 -116.69921875 c 0xf280
 176.7578125 -132.8125 188.96484375 -156.73828125 246.58203125 -156.73828125 c 0
 284.66796875 -156.73828125 330.078125 -128.90625 330.078125 -85.9375 c 0
 330.078125 -16.11328125 249.51171875 32.71484375 175.78125 98.14453125 c 0
 85.9375 177.734375 55.6640625 255.37109375 55.6640625 314.453125 c 0xf880
 55.6640625 366.69921875 78.61328125 428.22265625 154.296875 428.22265625 c 0
 157.2265625 428.22265625 160.15625 427.734375 163.0859375 427.734375 c 1
 163.0859375 427.734375 87.890625 498.53515625 87.890625 592.28515625 c 0
 87.890625 685.546875 153.3203125 724.12109375 220.703125 724.12109375 c 0
 287.109375 724.12109375 353.515625 686.5234375 353.515625 625.48828125 c 0
 353.515625 596.6796875 330.078125 561.03515625 291.9921875 561.03515625 c 0
 262.6953125 561.03515625 232.421875 577.1484375 232.421875 610.3515625 c 0
 232.421875 643.5546875 256.34765625 645.99609375 256.34765625 667.48046875 c 0
 256.34765625 676.7578125 247.55859375 686.03515625 223.14453125 686.03515625 c 0
 185.546875 686.03515625 142.578125 670.41015625 142.578125 608.3984375 c 0
 142.578125 495.1171875 406.73828125 417.96875 406.73828125 223.14453125 c 0xf540
 406.73828125 120.60546875 351.07421875 104.98046875 317.87109375 104.98046875 c 0
 303.7109375 104.98046875 293.45703125 107.91015625 293.45703125 107.91015625 c 1
 293.45703125 107.91015625 385.25390625 32.71484375 385.25390625 -67.87109375 c 0xf080
169.921875 388.671875 m 4
 128.41796875 388.671875 100.5859375 364.74609375 100.5859375 332.51953125 c 4xfc20
 100.5859375 253.90625 249.51171875 107.421875 303.7109375 107.421875 c 4
 333.49609375 107.421875 357.91015625 123.046875 357.91015625 152.83203125 c 4
 357.91015625 230.46875 197.75390625 388.671875 169.921875 388.671875 c 4
172.36328125 405.76171875 m 0
 132.32421875 405.76171875 105.46875 382.8125 105.46875 352.05078125 c 0
 105.46875 274.4140625 257.32421875 129.39453125 311.03515625 129.39453125 c 0
 339.35546875 129.39453125 362.79296875 144.04296875 362.79296875 172.36328125 c 0xf840
 362.79296875 248.53515625 199.70703125 405.76171875 172.36328125 405.76171875 c 0
EndSplineSet
EndChar

StartChar: brokenbar
Encoding: 166 166 169
Width: 415
VWidth: 488
Flags: W
HStem: 686 20G<182 226>
VStem: 182 44<-231 144 331 706>
LayerCount: 3
Fore
SplineSet
182 144 m 1
 226 144 l 1
 226 -231 l 1
 182 -231 l 1
 182 144 l 1
182 331 m 1
 182 706 l 1
 226 706 l 1
 226 331 l 1
 182 331 l 1
EndSplineSet
EndChar

StartChar: exclamdown
Encoding: 161 161 170
Width: 254
VWidth: 0
Flags: W
HStem: -9 21G<76 81> 541 95<126.369 183.937>
VStem: 69 79<8.00781 156.789> 112 84<553.172 622.199> 128 34<305.16 467.944>
LayerCount: 3
Fore
SplineSet
196 588 m 0xd0
 196 569 165 541 152 541 c 0
 135 541 112 574 112 589 c 0
 112 601 140 636 158 636 c 0
 173 636 196 600 196 588 c 0xd0
146 468 m 0
 155 468 162 460 162 440 c 0xc8
 162 420 148 183 148 35 c 0
 148 13 130 9 94 -5 c 0
 89 -7 83 -9 79 -9 c 0
 73 -9 69 -6 69 2 c 0xe0
 69 27 83 93 128 414 c 0xc8
 133 449 130 468 146 468 c 0
EndSplineSet
Position2: "'cpsp' Capital Spacing in Latin lookup 2 subtable" dx=4 dy=0 dh=8 dv=0
EndChar

StartChar: questiondown
Encoding: 191 191 171
Width: 368
VWidth: 0
Flags: W
HStem: -9 62<130.794 237.714> 572 95<186.142 244.937>
VStem: 36 65<92.2909 174.036> 172 85<584.172 652.667> 222 51<381.354 479.838>
LayerCount: 3
Fore
SplineSet
36 171 m 0xe8
 36 235 222 350 222 437 c 0
 222 477 200 490 200 500 c 0
 200 507 205 512 212 512 c 0
 228 512 273 476 273 400 c 0
 273 301 101 210 101 109 c 0
 101 73 130 53 160 53 c 0
 176 53 218 63 246 63 c 0
 255 63 259 60 259 51 c 0
 259 35 232 -9 188 -9 c 0
 139 -9 36 71 36 171 c 0xe8
257 619 m 0xf0
 257 600 226 572 213 572 c 0
 196 572 172 605 172 620 c 0
 172 632 201 667 219 667 c 0
 234 667 257 631 257 619 c 0xf0
EndSplineSet
Position2: "'cpsp' Capital Spacing in Latin lookup 2 subtable" dx=4 dy=0 dh=8 dv=0
EndChar

StartChar: cent
Encoding: 162 162 172
Width: 496
VWidth: 0
Flags: W
HStem: -12 34<211.135 338.064> 405 28<296 332.787>
VStem: 58 80<109.38 316.742> 348 73<307.5 379.664>
DStem2: 156 20 181 6 0.267226 0.963634<-221.142 -6.81022 59.8992 395.365 435.392 728.264>
LayerCount: 3
Fore
SplineSet
58 219 m 0
 58 323 126 436 267 436 c 1
 339 725 l 1
 379 720 l 1
 296 433 l 1
 364 422 421 379 421 324 c 0
 421 291 395 263 362 263 c 0
 333 263 309 285 309 310 c 0
 309 344 348 355 348 371 c 0
 348 384 322 404 289 405 c 1
 193 52 l 1
 216 31 245 22 274 22 c 0
 361 22 414 103 415 104 c 1
 437 83 l 1
 429 76 368 -12 263 -12 c 0
 235 -12 207 -6 181 6 c 1
 129 -202 l 1
 94 -193 l 1
 156 20 l 1
 99 56 58 123 58 219 c 0
138 213 m 0
 138 152 150 109 171 78 c 1
 258 402 l 1
 182 387 138 309 138 213 c 0
EndSplineSet
Layer: 2
SplineSet
308.59375 310.05859375 m 4
 308.59375 344.23828125 348.14453125 354.98046875 348.14453125 370.60546875 c 4
 348.14453125 383.7890625 321.2890625 403.80859375 288.57421875 404.78515625 c 5
 193.359375 52.24609375 l 5
 216.796875 31.25 245.60546875 21.97265625 274.4140625 21.97265625 c 4
 361.328125 21.97265625 414.0625 102.5390625 415.0390625 103.515625 c 5
 436.5234375 83.0078125 l 5
 428.7109375 76.171875 368.65234375 -11.71875 263.18359375 -11.71875 c 4
 235.3515625 -11.71875 207.03125 -5.37109375 180.6640625 6.34765625 c 5
 129.39453125 -201.66015625 l 5
 94.23828125 -192.87109375 l 5
 155.76171875 20.01953125 l 5
 99.12109375 56.15234375 57.6171875 123.046875 57.6171875 218.75 c 4
 57.6171875 323.2421875 125.9765625 435.546875 266.6015625 435.546875 c 5
 338.8671875 724.609375 l 5
 378.90625 719.7265625 l 5
 296.38671875 432.6171875 l 5
 364.74609375 421.38671875 420.8984375 378.90625 420.8984375 324.21875 c 4
 420.8984375 291.015625 395.5078125 262.6953125 362.3046875 262.6953125 c 4
 333.49609375 262.6953125 308.59375 284.66796875 308.59375 310.05859375 c 4
171.38671875 77.63671875 m 5
 257.8125 401.85546875 l 5
 182.12890625 386.71875 137.6953125 309.08203125 137.6953125 212.890625 c 4
 137.6953125 152.34375 150.87890625 108.3984375 171.38671875 77.63671875 c 5
EndSplineSet
EndChar

StartChar: minute
Encoding: 8242 8242 174
Width: 231
VWidth: 0
Flags: W
HStem: 475 259<67 161>
VStem: 55 136
LayerCount: 3
Fore
SplineSet
55 487 m 0
 55 501 71 545 79 567 c 0
 108 652 110 734 161 734 c 0
 184 734 191 711 191 701 c 0
 191 669 144 601 118 552 c 0
 87 495 83 475 67 475 c 0
 57 475 55 482 55 487 c 0
EndSplineSet
EndChar

StartChar: second
Encoding: 8243 8243 175
Width: 351
VWidth: 0
Flags: W
HStem: 478 256<162 274>
VStem: 62 54<502.057 597.375>
LayerCount: 3
Fore
SplineSet
62 488 m 0
 62 501 94 663 105 704 c 0
 110 724 127 734 147 734 c 0
 168 734 181 715 181 702 c 0
 181 678 142 611 116 553 c 16
 95 507 88 478 73 478 c 0
 67 478 62 482 62 488 c 0
156 491 m 0
 156 503 170 541 184 571 c 16
 219 647 225 733 274 733 c 0
 299 733 306 718 306 708 c 0
 306 677 254 603 222 554 c 0
 189 504 182 479 167 479 c 0
 162 479 156 480 156 491 c 0
EndSplineSet
EndChar

StartChar: degree
Encoding: 176 176 176
Width: 285
VWidth: 0
Flags: W
HStem: 487 35<88.6243 189.556> 693 36<88.6243 190.888>
VStem: 18 36<556.112 658.376> 225 35<557.444 658.376>
LayerCount: 3
Fore
SplineSet
18 608 m 0
 18 675 72 729 139 729 c 0
 206 729 260 675 260 608 c 0
 260 541 206 487 139 487 c 0
 72 487 18 541 18 608 c 0
54 608 m 0
 54 561 92 522 139 522 c 0
 186 522 225 561 225 608 c 0
 225 655 186 693 139 693 c 0
 92 693 54 655 54 608 c 0
EndSplineSet
EndChar

StartChar: yen
Encoding: 165 165 177
Width: 629
VWidth: 0
Flags: W
HStem: 0 39<172 266.141 350.465 452> 197 48<122 268 349 505> 344 48<122 216 410 505> 627 40<22 77.3374 174.022 246 435 515.976 560.695 616>
VStem: 268 81<41.4478 197 245 310>
DStem2: 335 354 410 392 0.576554 0.817059<74.2898 316.675>
LayerCount: 3
Fore
SplineSet
21 627 m 1
 22 667 l 1
 246 667 l 1
 246 627 l 1
 204 625 174 630 174 614 c 0
 174 606 179 600 292 423 c 2
 335 354 l 1
 510 602 l 2
 513 607 516 611 516 614 c 0
 516 628 483 626 435 627 c 1
 434 667 l 1
 616 667 l 1
 616 627 l 1
 579 626 574 628 544 585 c 2
 410 392 l 1
 517 392 l 1
 505 344 l 1
 370 344 l 1
 349 310 l 1
 349 245 l 1
 517 245 l 1
 505 197 l 1
 349 197 l 1
 349 85 l 2
 349 33 350 41 453 39 c 1
 452 0 l 1
 171 0 l 1
 172 39 l 1
 179 39 185 39 191 39 c 0
 199 39 206 39 212 39 c 0
 261 39 268 41 268 83 c 2
 268 197 l 1
 110 197 l 1
 122 245 l 1
 268 245 l 1
 268 318 l 1
 253 344 l 1
 110 344 l 1
 122 392 l 1
 216 392 l 1
 104 566 l 2
 65 627 70 627 21 627 c 1
EndSplineSet
EndChar

StartChar: dotlessi
Encoding: 305 305 178
Width: 244
VWidth: 0
Flags: HW
HStem: -5 21G<85.5 98.5> 353 47<76.6795 160.292>
VStem: 74 69<14.5518 241.215> 101 65<137.796 388.843>
AnchorPoint: "top" 149 488 basechar 0
AnchorPoint: "l;bl" 0 15 basechar 0
AnchorPoint: "l;x" 0 376 basechar 0
AnchorPoint: "l;o" 0 195 basechar 0
AnchorPoint: "r;bl" 219 15 basechar 0
AnchorPoint: "r;x" 234 376 basechar 0
AnchorPoint: "r;o" 244 195 basechar 0
LayerCount: 3
Fore
SplineSet
166 385 m 4xd0
 166 353 143 130 143 102 c 4
 143 84 146 79 151 79 c 4
 166 79 218 161 218 161 c 5
 234 148 l 5
 234 148 216 104 173 59 c 4
 153 38 106 -5 91 -5 c 4
 80 -5 74 1 74 17 c 4xe0
 74 40 101 248 101 337 c 4
 101 346 98 353 89 353 c 4
 73 353 28 334 28 334 c 5
 20 359 l 5
 20 359 135 400 155 400 c 4
 162 400 166 396 166 385 c 4xd0
EndSplineSet
EndChar

StartChar: uni0237
Encoding: 567 567 179
Width: 247
VWidth: 0
Flags: HMW
HStem: -258 35<-4 54> 392 10G<168 181>
DStem2: 83 -115 164 92 0.0785899 0.996907<-17.4999 212.761 453.551 467.93>
AnchorPoint: "top" 162 488 basechar 0
AnchorPoint: "l;bl" 20 15 basechar 0
AnchorPoint: "l;x" 0 376 basechar 0
AnchorPoint: "l;o" 20 195 basechar 0
AnchorPoint: "r;bl" 227 15 basechar 0
AnchorPoint: "r;x" 247 376 basechar 0
AnchorPoint: "r;o" 247 195 basechar 0
AnchorPoint: "l;k;lo" -80 -244 basechar 0
LayerCount: 3
Fore
SplineSet
109 352 m 0
 99 352 81 345 39 328 c 1
 30 354 l 1
 118 389 158 402 177 402 c 0
 185 402 187 396 187 385 c 4
 187 374 169 184 164 92 c 0
 158 -12 151 -99 137 -153 c 0
 112 -253 21 -258 10 -258 c 0
 -33 -258 -78 -234 -78 -199 c 0
 -78 -177 -65 -153 -43 -153 c 0
 -8 -153 -21 -223 27 -223 c 0
 59 -223 76 -171 83 -115 c 0
 100 21 118 306 118 337 c 0
 118 345 115 352 109 352 c 0
EndSplineSet
EndChar

StartChar: bullet
Encoding: 8226 8226 215
Width: 418
Flags: W
HStem: 181 241<142.271 277.412>
VStem: 89 241<233.588 369.412>
LayerCount: 3
Fore
SplineSet
89 301 m 0
 89 367 142 422 209 422 c 0
 275 422 330 369 330 302 c 0
 330 235 277 181 210 181 c 0
 143 181 89 234 89 301 c 0
EndSplineSet
EndChar

StartChar: quotereversed
Encoding: 8219 8219 216
Width: 243
VWidth: 0
Flags: HW
HStem: 468 212<136 179>
VStem: 69 60<531.632 606.23>
AnchorPoint: "r;s;quote" 307 589 basechar 0
AnchorPoint: "l;s;quote" 136 589 basechar 0
AnchorPoint: "l;x" 0 376 basechar 0
AnchorPoint: "l;hi" 0 684 basechar 0
AnchorPoint: "l;o" 0 195 basechar 0
AnchorPoint: "r;x" 243 376 basechar 0
AnchorPoint: "r;hi" 243 684 basechar 0
AnchorPoint: "r;o" 243 195 basechar 0
LayerCount: 3
Fore
SplineSet
69 602 m 0
 69 646 86 653 107 666 c 0
 122 675 131 680 136 680 c 0
 142 680 149 671 151 668 c 2
 176 633 l 2
 178 629 180 626 180 624 c 0
 180 608 129 617 129 567 c 0
 129 505 190 501 190 477 c 0
 190 471 186 468 179 468 c 0
 150 468 69 519 69 602 c 0
EndSplineSet
EndChar

StartChar: figuredash
Encoding: 8210 8210 219
Width: 520
VWidth: 0
Flags: W
HStem: 0 34<211.477 267.957> 129 31<213.238 264.221> 264 43<488 1008> 653 56<166.207 272.136>
VStem: 52 268<452.688 542.016> 52 140<48.5222 114.704> 52 110<206.51 343.002> 52 84<575.006 623.693> 224 224<203.728 297.122> 288 160<48.7331 116.736> 377 71<406.541 545.147>
LayerCount: 3
Fore
SplineSet
52 0 m 17xf120
 52 709 l 9
 448 709 l 25
 448 0 l 25
 52 0 l 17xf120
136 591 m 0
 136 583 139 575 153 575 c 0
 182 575 194 576 208 576 c 0
 265 576 320 537 320 507 c 0xf8
 320 420 162 384 162 279 c 0
 162 205 222 160 248 160 c 0
 258 160 265 165 265 176 c 0
 265 196 224 207 224 253 c 0xf280
 224 299 290 329 351 401 c 0
 371 425 377 444 377 474 c 0
 377 567 262 653 221 653 c 0
 180 653 136 609 136 591 c 0
192 82 m 0xf440
 192 68 221 35 239 34 c 1
 263 35 288 75 288 82 c 0
 288 98 260 129 241 129 c 0
 227 129 192 102 192 82 c 0xf440
488 264 m 1
 488 307 l 1
 1008 307 l 1
 1008 264 l 1
 488 264 l 1
EndSplineSet
EndChar

StartChar: braceleft
Encoding: 123 123 220
Width: 308
VWidth: 488
Flags: W
HStem: -231 29<228.663 281> 230 19<34 72.9713> 677 29<228.996 281>
VStem: 114 64<-143.513 208.252 270.75 615.131>
LayerCount: 3
Fore
SplineSet
34 230 m 1
 34 249 l 1
 79 258 117 254 117 381 c 0
 117 417 114 458 114 503 c 0
 114 612 158 706 281 706 c 1
 281 677 l 1
 185 677 178 591 178 509 c 0
 178 454 183 409 183 365 c 0
 183 299 166 259 116 240 c 1
 166 221 182 178 182 114 c 0
 182 71 178 26 178 -29 c 0
 178 -112 184 -202 281 -202 c 1
 281 -231 l 1
 157 -231 114 -144 114 -24 c 0
 114 20 118 61 118 98 c 0
 118 229 74 221 34 230 c 1
EndSplineSet
EndChar

StartChar: logicalnot
Encoding: 172 172 221
Width: 718
VWidth: 0
Flags: W
HStem: 206 58<61 562>
VStem: 562 59<-33 206>
LayerCount: 3
Fore
SplineSet
61 206 m 1
 61 264 l 1
 621 264 l 1
 621 -33 l 1
 562 -33 l 1
 562 206 l 1
 61 206 l 1
EndSplineSet
Layer: 2
SplineSet
109.86328125 205.56640625 m 5
 109.86328125 264.16015625 l 5
 693.84765625 264.16015625 l 5
 693.84765625 -57.12890625 l 5
 635.25390625 -57.12890625 l 5
 635.25390625 205.56640625 l 5
 109.86328125 205.56640625 l 5
EndSplineSet
EndChar

StartChar: guillemotleft
Encoding: 171 171 222
Width: 359
Flags: HW
HStem: 83 266
VStem: 20 168 152 168
AnchorPoint: "r;s;quote" 359 589 basechar 0
AnchorPoint: "l;x" 0 376 basechar 0
AnchorPoint: "r;bl" 359 15 basechar 0
AnchorPoint: "r;o" 359 195 basechar 0
AnchorPoint: "l;s;quote" 95 589 basechar 0
AnchorPoint: "l;o" 0 195 basechar 0
AnchorPoint: "l;bl" 0 15 basechar 0
AnchorPoint: "r;x" 359 376 basechar 0
LayerCount: 3
Fore
Refer: 224 8249 N 1 0 0 1 132 0 2
Refer: 224 8249 N 1 0 0 1 0 0 2
Layer: 2
SplineSet
19.53125 216.30859375 m 5
 171.875 349.12109375 l 5
 188.4765625 330.56640625 l 5
 94.7265625 216.30859375 l 5
 188.4765625 102.05078125 l 5
 171.875 83.49609375 l 5
 19.53125 216.30859375 l 5
151.85546875 216.30859375 m 5
 304.19921875 349.12109375 l 5
 320.80078125 330.56640625 l 5
 227.05078125 216.30859375 l 5
 320.80078125 102.05078125 l 5
 304.19921875 83.49609375 l 5
 151.85546875 216.30859375 l 5
EndSplineSet
EndChar

StartChar: guilsinglleft
Encoding: 8249 8249 224
Width: 227
Flags: HW
HStem: 83 266
VStem: 20 168
AnchorPoint: "l;s;quote" 95 589 basechar 0
AnchorPoint: "r;s;quote" 227 589 basechar 0
AnchorPoint: "l;bl" 0 15 basechar 0
AnchorPoint: "l;x" 0 376 basechar 0
AnchorPoint: "l;o" 0 195 basechar 0
AnchorPoint: "r;bl" 227 15 basechar 0
AnchorPoint: "r;x" 227 376 basechar 0
AnchorPoint: "r;o" 227 195 basechar 0
LayerCount: 3
Fore
SplineSet
20 216 m 1
 172 349 l 1
 188 331 l 1
 95 216 l 1
 188 102 l 1
 172 83 l 1
 20 216 l 1
EndSplineSet
EndChar

StartChar: guilsinglright
Encoding: 8250 8250 225
Width: 219
Flags: HW
HStem: 83 266
VStem: 20 168
AnchorPoint: "r;s;quote" 246 589 basechar 0
AnchorPoint: "l;s;quote" 113 589 basechar 0
AnchorPoint: "l;bl" 0 15 basechar 0
AnchorPoint: "l;x" 0 376 basechar 0
AnchorPoint: "l;o" 0 195 basechar 0
AnchorPoint: "r;bl" 219 15 basechar 0
AnchorPoint: "r;x" 219 376 basechar 0
AnchorPoint: "r;o" 219 195 basechar 0
LayerCount: 3
Fore
SplineSet
20 102 m 1
 113 216 l 1
 20 331 l 1
 36 349 l 1
 188 216 l 1
 36 83 l 1
 20 102 l 1
EndSplineSet
EndChar

StartChar: registered
Encoding: 174 174 226
Width: 478
Flags: W
HStem: 337 31<170.438 312.901> 432 24<135 159 198 226 333.969 358> 542 21<198 232> 658 24<133 159 198 250.877> 729 28<174.866 304.025>
VStem: 31 31<475.355 617.126> 159 39<456.012 543 563 658> 274 45<568.584 645.254> 413 31<469.055 619.166>
DStem2: 271 550 232 542 0.573462 -0.819232<0 118.461>
LayerCount: 3
Fore
SplineSet
31 546 m 0
 31 663 122 757 237 757 c 0
 354 757 444 663 444 546 c 0
 444 432 366 337 237 337 c 0
 122 337 31 432 31 546 c 0
62 545 m 0
 62 447 141 368 240 368 c 0
 346 368 413 447 413 545 c 0
 413 644 336 729 240 729 c 0
 141 729 62 644 62 545 c 0
132 658 m 1
 133 682 l 1
 215 682 l 2
 252 682 274 679 292 664 c 0
 311 649 319 629 319 609 c 0
 319 586 307 562 271 550 c 1
 336 464 l 2
 341 457 344 456 348 456 c 2
 358 456 l 1
 359 432 l 1
 309 432 l 1
 232 542 l 1
 230 542 228 542 226 542 c 0
 210 542 203 543 198 543 c 1
 198 460 l 2
 198 455 198 456 208 456 c 0
 214 456 221 456 227 456 c 1
 226 432 l 1
 135 432 l 1
 135 456 l 1
 145 456 l 2
 158 456 159 456 159 459 c 2
 159 650 l 2
 159 657 156 658 146 658 c 2
 132 658 l 1
198 564 m 1
 202 563 209 563 216 563 c 0
 262 563 274 579 274 604 c 0
 274 635 250 658 204 658 c 0
 199 658 198 658 198 646 c 2
 198 564 l 1
EndSplineSet
Layer: 2
SplineSet
29.296875 545.8984375 m 4
 29.296875 663.0859375 122.0703125 756.8359375 237.3046875 756.8359375 c 4
 354.4921875 756.8359375 448.73046875 663.0859375 448.73046875 545.8984375 c 4
 448.73046875 432.12890625 354.4921875 336.9140625 237.3046875 336.9140625 c 4
 122.0703125 336.9140625 29.296875 432.12890625 29.296875 545.8984375 c 4
59.08203125 545.8984375 m 4
 59.08203125 450.1953125 141.6015625 368.65234375 237.3046875 368.65234375 c 4
 336.42578125 368.65234375 417.96875 450.1953125 417.96875 545.8984375 c 4
 417.96875 645.01953125 336.42578125 726.07421875 237.3046875 726.07421875 c 4
 141.6015625 726.07421875 59.08203125 645.01953125 59.08203125 545.8984375 c 4
EndSplineSet
EndChar

StartChar: copyright
Encoding: 169 169 227
Width: 795
Flags: W
HStem: -128 39<294.412 503.734> -6 40<335.132 501.946> 422 42<318.986 487.726> 559 40<288.556 506.052>
VStem: 35 44<117.454 353.129> 154 67<148.067 323.656> 711 44<119.619 353.166>
LayerCount: 3
Fore
SplineSet
35 237 m 0
 35 435 193 599 400 599 c 0
 604 599 755 435 755 237 c 0
 755 41 608 -128 399 -128 c 0
 185 -128 35 30 35 237 c 0
79 237 m 0
 79 56 215 -89 400 -89 c 0
 571 -89 711 54 711 239 c 0
 711 410 583 559 399 559 c 0
 219 559 79 412 79 237 c 0
154 226 m 0
 154 391 290 464 398 464 c 0
 510 464 556 427 567 424 c 1
 567 354 l 2
 567 342 566 338 564 338 c 0
 554 338 516 422 400 422 c 0
 292 422 221 333 221 236 c 0
 221 134 302 34 416 34 c 0
 539 34 570 127 578 127 c 0
 580 127 580 122 580 110 c 2
 580 55 l 1
 580 55 517 -6 399 -6 c 0
 243 -6 154 102 154 226 c 0
EndSplineSet
EndChar

StartChar: uni00B5
Encoding: 181 181 228
Width: 502
Flags: W
HStem: -18 62<101.422 163.545 339.417 409.49>
VStem: 9 63<-196.934 -99.1833> 299 73<27.5 182.455> 357 78<274.676 370.795>
LayerCount: 3
Fore
SplineSet
9 -150 m 0xe0
 9 -57 45 27 71 141 c 0
 119 350 115 378 131 378 c 0
 133 378 173 373 173 355 c 0
 173 334 128 108 128 76 c 0
 128 63 132 44 146 44 c 0
 214 44 313 218 357 318 c 0
 385 377 375 378 392 378 c 0
 408 378 435 370 435 360 c 0xd0
 435 348 372 114 372 72 c 0
 372 58 384 49 396 49 c 0
 433 49 442 113 461 113 c 0
 471 113 473 104 473 97 c 0
 473 59 414 -21 339 -21 c 0
 306 -21 299 10 299 45 c 0
 299 86 319 171 319 181 c 0
 319 185 318 185 317 185 c 0
 309 185 292 130 222 53 c 0
 188 16 142 -18 105 -18 c 0
 74 -18 71 25 67 25 c 0
 63 25 49 -49 49 -85 c 0
 49 -118 72 -157 72 -168 c 0
 72 -173 66 -199 38 -199 c 0
 17 -199 9 -184 9 -150 c 0xe0
EndSplineSet
EndChar

StartChar: Euro
Encoding: 8364 8364 229
Width: 613
Flags: W
HStem: -10 47<266.471 452.162> 184 48<42 97 155 440> 271 47<39 97 155 477> 385 21G<518 531.98> 465 47<265.202 451.269>
VStem: 97 48<232 271>
LayerCount: 3
Fore
SplineSet
20 271 m 1
 39 318 l 1
 105 318 l 1
 149 468 280 512 352 512 c 0
 429 512 485 490 545 434 c 1
 532 401 523 385 523 385 c 1
 513 402 457 465 356 465 c 0
 289 465 196 430 155 318 c 1
 496 318 l 1
 477 271 l 1
 145 271 l 1
 145 267 144 261 144 252 c 0
 144 243 145 236 145 232 c 1
 460 232 l 1
 440 184 l 1
 155 184 l 1
 190 80 287 37 355 37 c 0
 464 37 521 111 523 113 c 1
 526 112 l 1
 526 51 l 1
 479 13 425 -10 358 -10 c 0
 271 -10 151 35 105 184 c 1
 23 184 l 1
 42 232 l 1
 97 232 l 1
 97 271 l 1
 20 271 l 1
EndSplineSet
EndChar

StartChar: acutecomb
Encoding: 769 769 230
Width: 0
VWidth: 0
Flags: W
HStem: 468 142
VStem: -220 114
AnchorPoint: "top" -195 488 mark 0
LayerCount: 3
Fore
SplineSet
-220 468 m 25
 -169 610 l 25
 -106 610 l 25
 -192 468 l 25
 -220 468 l 25
EndSplineSet
EndChar

StartChar: gravecomb
Encoding: 768 768 231
Width: 0
VWidth: 0
Flags: HMW
VStem: -257 61<644 665>
AnchorPoint: "top" -195 488 mark 0
LayerCount: 3
Fore
SplineSet
-219 468 m 25
 -267 610 l 25
 -207 610 l 25
 -191 468 l 25
 -219 468 l 25
EndSplineSet
EndChar

StartChar: uni0302
Encoding: 770 770 234
Width: 0
VWidth: 0
Flags: W
HStem: 468 140
VStem: -281 156
DStem2: -281 468 -249 468 0.448242 0.893912<14.3437 117.205>
AnchorPoint: "top" -195 488 mark 0
LayerCount: 3
Fore
SplineSet
-175 608 m 1
 -162 564 -142 509 -125 468 c 1
 -172 468 l 1
 -186 501 -191 525 -201 559 c 1
 -223 513 -238 487 -249 468 c 1
 -281 468 l 1
 -261 504 -223 577 -210 608 c 1
 -175 608 l 1
EndSplineSet
EndChar

StartChar: tildecomb
Encoding: 771 771 238
Width: 0
VWidth: 0
Flags: W
HStem: 497 53<-190.523 -121.832> 531 56<-264.075 -192.477>
VStem: -293 11<480.091 497.773>
DStem2: -172 560 -211 521 0.842271 -0.539054<-45.338 27.775>
AnchorPoint: "top" -195 488 mark 0
LayerCount: 3
Fore
SplineSet
-293 482 m 1x60
 -293 482 -278 587 -232 587 c 0x60
 -219 587 -207 583 -197 576 c 2
 -172 560 l 2
 -163 554 -154 550 -145 550 c 0
 -119 550 -107 594 -107 594 c 1
 -95 591 l 1
 -96 586 -111 497 -156 497 c 0xa0
 -167 497 -177 500 -186 505 c 2
 -211 521 l 2
 -219 526 -232 531 -245 531 c 0
 -273 531 -282 479 -282 479 c 1
 -293 482 l 1x60
EndSplineSet
EndChar

StartChar: uni0304
Encoding: 772 772 239
Width: 0
VWidth: 0
Flags: W
HStem: 522 47<-280 -108>
VStem: -280 172<522 569>
AnchorPoint: "top" -195 488 mark 0
LayerCount: 3
Fore
SplineSet
-108 522 m 1
 -280 522 l 1
 -280 569 l 1
 -108 569 l 1
 -108 522 l 1
EndSplineSet
EndChar

StartChar: uni0306
Encoding: 774 774 240
Width: 0
VWidth: 0
Flags: W
HStem: 474 46<-225.922 -150.687>
VStem: -271 38<527.098 604> -120 17<581.729 604>
AnchorPoint: "top" -195 488 mark 0
LayerCount: 3
Fore
SplineSet
-190 520 m 0
 -166 520 -140 539 -120 604 c 1
 -103 604 l 1
 -104 599 -116 474 -204 474 c 0
 -251 474 -271 525 -271 563 c 0
 -271 585 -267 604 -267 604 c 1
 -232 604 l 1
 -232 604 -233 589 -233 581 c 0
 -233 548 -224 520 -190 520 c 0
EndSplineSet
EndChar

StartChar: uni0307
Encoding: 775 775 241
Width: 0
VWidth: 0
Flags: W
HStem: 508 85<-226.197 -169.249>
VStem: -234 74<517.945 585.364>
AnchorPoint: "top" -195 488 mark 0
LayerCount: 3
Fore
SplineSet
-234 555 m 0
 -234 564 -215 593 -192 593 c 0
 -177 593 -160 569 -160 550 c 0
 -160 530 -192 508 -200 508 c 0
 -216 508 -234 536 -234 555 c 0
EndSplineSet
EndChar

StartChar: uni0308
Encoding: 776 776 242
Width: 0
VWidth: 0
Flags: W
HStem: 508 85<-276.858 -220.069 -169.197 -113.069>
VStem: -285 74<517.945 585.047> -177 73<517.945 585.364>
AnchorPoint: "top" -195 488 mark 0
LayerCount: 3
Fore
SplineSet
-177 555 m 0
 -177 564 -158 593 -135 593 c 0
 -120 593 -104 569 -104 550 c 0
 -104 530 -136 508 -144 508 c 0
 -160 508 -177 536 -177 555 c 0
-285 555 m 0
 -285 564 -265 593 -242 593 c 0
 -227 593 -211 569 -211 550 c 0
 -211 530 -243 508 -251 508 c 0
 -267 508 -285 536 -285 555 c 0
EndSplineSet
EndChar

StartChar: uni030A
Encoding: 778 778 243
Width: 0
VWidth: 0
Flags: W
HStem: 466 30<-215.648 -142.346> 591 32<-213.441 -142.849>
VStem: -260 34<505.254 579.343> -133 35<503.458 581.843>
AnchorPoint: "top" -195 488 mark 0
LayerCount: 3
Fore
SplineSet
-179 623 m 0
 -136 623 -98 584 -98 543 c 0
 -98 502 -134 466 -176 466 c 0
 -218 466 -260 497 -260 539 c 0
 -260 577 -221 623 -179 623 c 0
-177 496 m 0
 -156 496 -133 506 -133 543 c 0
 -133 582 -161 591 -179 591 c 0
 -219 591 -226 552 -226 540 c 0
 -226 512 -206 496 -177 496 c 0
EndSplineSet
Layer: 2
SplineSet
-168 677 m 4
 -140 677 -110 651 -110 617 c 4
 -110 584 -139 560 -168 560 c 4
 -200 560 -227 586 -227 616 c 4
 -227 646 -197 677 -168 677 c 4
-195 615 m 4
 -195 599 -185 589 -167 589 c 4
 -146 589 -142 605 -142 618 c 4
 -142 640 -159 646 -169 646 c 4
 -189 646 -195 627 -195 615 c 4
EndSplineSet
EndChar

StartChar: uni030B
Encoding: 779 779 244
Width: 0
VWidth: 0
Flags: W
HStem: 468 142
VStem: -272 212
AnchorPoint: "top" -195 488 mark 0
LayerCount: 3
Fore
SplineSet
-175 468 m 25
 -123 610 l 25
 -60 610 l 25
 -146 468 l 25
 -175 468 l 25
-272 468 m 25
 -221 610 l 25
 -158 610 l 25
 -243 468 l 25
 -272 468 l 25
EndSplineSet
EndChar

StartChar: uni030C
Encoding: 780 780 245
Width: 0
VWidth: 0
Flags: W
HStem: 468 140
VStem: -268 156
DStem2: -192 517 -183 468 0.448242 0.893912<0 102.862>
AnchorPoint: "top" -195 488 mark 0
LayerCount: 3
Fore
SplineSet
-218 468 m 1
 -231 512 -251 567 -268 608 c 1
 -221 608 l 1
 -207 575 -202 551 -192 517 c 1
 -170 563 -155 589 -144 608 c 1
 -112 608 l 1
 -132 572 -170 499 -183 468 c 1
 -218 468 l 1
EndSplineSet
EndChar

StartChar: lacute
Encoding: 314 314 263
Width: 229
VWidth: 0
Flags: HW
HStem: -10 21G<71.5 81> 668 44<54.8817 162.259>
VStem: 62 65<10.0959 215.404> 98 75<456.079 701.276>
AnchorPoint: "l;bl" 0 15 basechar 0
AnchorPoint: "l;x" 10 376 basechar 0
AnchorPoint: "l;k;hi" 10 684 basechar 0
AnchorPoint: "l;o" 10 195 basechar 0
AnchorPoint: "r;bl" 199 15 basechar 0
AnchorPoint: "r;x" 214 376 basechar 0
AnchorPoint: "r;hi" 184 684 basechar 0
AnchorPoint: "r;o" 229 195 basechar 0
LayerCount: 3
Fore
SplineSet
87 668 m 0xd0
 81 668 40 658 21 652 c 1
 15 679 l 1
 15 679 128 712 152 712 c 0
 169 712 173 702 173 696 c 0xd0
 173 689 164 610 157 519 c 0
 143 346 127 109 127 101 c 0
 127 94 128 79 135 79 c 0
 154 79 203 166 203 166 c 1
 225 150 l 1
 225 150 173 48 105 0 c 0
 94 -8 84 -10 78 -10 c 0
 65 -10 62 3 62 20 c 0xe0
 62 33 64 48 65 67 c 0
 84 431 98 608 98 654 c 0
 98 663 96 668 87 668 c 0xd0
103 727 m 25
 155 869 l 25
 225 869 l 17
 146 738 l 1
 103 727 l 25
EndSplineSet
EndChar

